G75*
%MOIN*%
%OFA0B0*%
%FSLAX24Y24*%
%IPPOS*%
%LPD*%
%AMOC8*
5,1,8,0,0,1.08239X$1,22.5*
%
%ADD10C,0.0000*%
%ADD11C,0.0634*%
%ADD12C,0.0674*%
%ADD13R,0.0634X0.0634*%
%ADD14OC8,0.0634*%
%ADD15C,0.0480*%
%ADD16C,0.0476*%
D10*
X000180Y000180D02*
X000180Y021180D01*
X009180Y021180D01*
X009180Y030550D01*
X025672Y030550D01*
X025672Y000180D01*
X000180Y000180D01*
D11*
X001180Y001680D03*
X001180Y002680D03*
X001180Y003680D03*
X001180Y004680D03*
X001180Y005680D03*
X001180Y006680D03*
X001180Y007680D03*
X001180Y008680D03*
X001180Y009680D03*
X001180Y010680D03*
X001180Y011680D03*
X001180Y012680D03*
X001180Y013680D03*
X001180Y014680D03*
X001180Y015680D03*
X001180Y016680D03*
X001180Y017680D03*
X001180Y018680D03*
X001180Y019680D03*
X001180Y020680D03*
X007180Y020680D03*
X007180Y019680D03*
X007180Y018680D03*
X007180Y017680D03*
X007180Y016680D03*
X007180Y015680D03*
X007180Y014680D03*
X007180Y013680D03*
X007180Y012680D03*
X007180Y011680D03*
X007180Y010680D03*
X007180Y009680D03*
X007180Y008680D03*
X007180Y007680D03*
X007180Y006680D03*
X007180Y005680D03*
X007180Y004680D03*
X007180Y003680D03*
X007180Y002680D03*
X007180Y001680D03*
X010180Y001680D03*
X010180Y002680D03*
X010180Y003680D03*
X010180Y004680D03*
X010180Y005680D03*
X010180Y006680D03*
X010180Y007680D03*
X013180Y007680D03*
X013180Y006680D03*
X013180Y005680D03*
X013180Y004680D03*
X013180Y003680D03*
X013180Y002680D03*
X013180Y001680D03*
X013180Y008680D03*
X013180Y012680D03*
X013180Y013680D03*
X013180Y014680D03*
X013180Y015680D03*
X013180Y016680D03*
X013180Y017680D03*
X013180Y018680D03*
X013180Y019680D03*
X010180Y018680D03*
X010180Y017680D03*
X010180Y016680D03*
X010180Y015680D03*
X010180Y014680D03*
X010180Y013680D03*
X010180Y012680D03*
D12*
X017383Y012680D02*
X017977Y012680D01*
X017977Y013680D02*
X017383Y013680D01*
X017383Y014680D02*
X017977Y014680D01*
X017977Y015680D02*
X017383Y015680D01*
X017383Y016680D02*
X017977Y016680D01*
X017977Y017680D02*
X017383Y017680D01*
X017383Y018680D02*
X017977Y018680D01*
X017977Y019680D02*
X017383Y019680D01*
X017383Y020680D02*
X017977Y020680D01*
X017977Y021680D02*
X017383Y021680D01*
X017383Y022680D02*
X017977Y022680D01*
X017977Y023680D02*
X017383Y023680D01*
X017383Y024680D02*
X017977Y024680D01*
X017977Y025680D02*
X017383Y025680D01*
X017383Y026680D02*
X017977Y026680D01*
X023383Y026680D02*
X023977Y026680D01*
X023977Y025680D02*
X023383Y025680D01*
X023383Y024680D02*
X023977Y024680D01*
X023977Y023680D02*
X023383Y023680D01*
X023383Y022680D02*
X023977Y022680D01*
X023977Y021680D02*
X023383Y021680D01*
X023383Y020680D02*
X023977Y020680D01*
X023977Y019680D02*
X023383Y019680D01*
X023383Y018680D02*
X023977Y018680D01*
X023977Y017680D02*
X023383Y017680D01*
X023383Y016680D02*
X023977Y016680D01*
X023977Y015680D02*
X023383Y015680D01*
X023383Y014680D02*
X023977Y014680D01*
X023977Y013680D02*
X023383Y013680D01*
X023383Y012680D02*
X023977Y012680D01*
X023977Y011680D02*
X023383Y011680D01*
X023383Y010680D02*
X023977Y010680D01*
X023977Y009680D02*
X023383Y009680D01*
X023383Y008680D02*
X023977Y008680D01*
X023977Y007680D02*
X023383Y007680D01*
X023383Y006680D02*
X023977Y006680D01*
X023977Y005680D02*
X023383Y005680D01*
X023383Y004680D02*
X023977Y004680D01*
X023977Y003680D02*
X023383Y003680D01*
X017977Y003680D02*
X017383Y003680D01*
X017383Y004680D02*
X017977Y004680D01*
X017977Y005680D02*
X017383Y005680D01*
X017383Y006680D02*
X017977Y006680D01*
X017977Y007680D02*
X017383Y007680D01*
X017383Y008680D02*
X017977Y008680D01*
X017977Y009680D02*
X017383Y009680D01*
X017383Y010680D02*
X017977Y010680D01*
X017977Y011680D02*
X017383Y011680D01*
D13*
X010180Y008680D03*
X010180Y019680D03*
D14*
X011180Y021680D03*
X013180Y021680D03*
X013180Y024180D03*
X011180Y024180D03*
X011180Y026680D03*
X013180Y026680D03*
X013180Y029180D03*
X011180Y029180D03*
X011180Y010680D03*
X013180Y010680D03*
D15*
X013680Y010180D03*
X014180Y008680D03*
X015180Y009180D03*
X015680Y009680D03*
X015180Y010180D03*
X015180Y011180D03*
X016180Y010180D03*
X016680Y010680D03*
X018680Y008680D03*
X020430Y007680D03*
X022180Y007180D03*
X021180Y005680D03*
X020180Y004180D03*
X019680Y003680D03*
X020680Y002680D03*
X019680Y001180D03*
X018180Y002180D03*
X019680Y004680D03*
X016680Y006180D03*
X015680Y006180D03*
X015680Y005180D03*
X015180Y004180D03*
X014680Y004180D03*
X012680Y004180D03*
X011180Y005680D03*
X011180Y006680D03*
X012180Y006680D03*
X012180Y007180D03*
X012180Y008180D03*
X011680Y010180D03*
X011680Y012180D03*
X011680Y012680D03*
X012180Y012180D03*
X012180Y014680D03*
X011680Y014680D03*
X011180Y016180D03*
X011680Y016680D03*
X011680Y017180D03*
X012680Y017180D03*
X014180Y017680D03*
X015680Y019680D03*
X015180Y020180D03*
X014180Y021680D03*
X012680Y021180D03*
X012680Y020180D03*
X011180Y020680D03*
X010680Y022180D03*
X012680Y022180D03*
X015180Y023180D03*
X015680Y022180D03*
X018680Y021180D03*
X020180Y022680D03*
X020680Y022680D03*
X021680Y020680D03*
X022680Y021680D03*
X019680Y018680D03*
X019180Y017180D03*
X020180Y015680D03*
X019680Y015180D03*
X019680Y014180D03*
X020680Y014180D03*
X021180Y014180D03*
X022180Y013180D03*
X021680Y016180D03*
X018680Y014680D03*
X016680Y017180D03*
X016180Y018180D03*
X015680Y015680D03*
X015180Y015680D03*
X009180Y015680D03*
X008680Y016680D03*
X008680Y017180D03*
X008680Y018180D03*
X008680Y019180D03*
X005680Y019680D03*
X003180Y016680D03*
X002680Y018680D03*
X001680Y015180D03*
X002180Y014180D03*
X003680Y011180D03*
X004180Y010180D03*
X004680Y010680D03*
X004680Y011680D03*
X003180Y009680D03*
X003680Y009180D03*
X002680Y008180D03*
X002680Y007680D03*
X003680Y007680D03*
X004180Y007180D03*
X004680Y005680D03*
X006180Y005680D03*
X006680Y006180D03*
X006180Y004680D03*
X008180Y003680D03*
X008680Y004680D03*
X009680Y007180D03*
X009180Y008680D03*
X008180Y008680D03*
X008180Y010180D03*
X009180Y011680D03*
X009180Y013680D03*
X008180Y013680D03*
X006180Y014680D03*
X006680Y011180D03*
X006680Y010180D03*
X005680Y008680D03*
X003680Y002680D03*
X004680Y002180D03*
X006180Y001180D03*
X012180Y001180D03*
X014180Y006680D03*
X015680Y007680D03*
X023180Y001180D03*
X023680Y002180D03*
X018680Y023180D03*
X018680Y024180D03*
X019180Y026680D03*
D16*
X021430Y026930D03*
X024180Y029180D03*
X015180Y029180D03*
X015180Y026180D03*
X015180Y024180D03*
X019430Y013430D03*
X019930Y009930D03*
X016430Y012680D03*
X015430Y013180D03*
X014180Y012680D03*
X014180Y010680D03*
X008680Y010680D03*
X005680Y011680D03*
X005680Y013180D03*
X004680Y013430D03*
X003680Y013680D03*
X003930Y017680D03*
X002180Y019930D03*
X002430Y006180D03*
X003430Y004680D03*
X004180Y004180D03*
X005930Y003680D03*
X008430Y001680D03*
X011180Y001680D03*
X014430Y002930D03*
X022180Y003180D03*
X022430Y005430D03*
X024180Y001180D03*
X024680Y011180D03*
X002680Y002680D03*
X002680Y001680D03*
X001680Y004180D03*
M02*
