G75*
%MOIN*%
%OFA0B0*%
%FSLAX24Y24*%
%IPPOS*%
%LPD*%
%AMOC8*
5,1,8,0,0,1.08239X$1,22.5*
%
%ADD10C,0.0000*%
%ADD11C,0.0040*%
%ADD12C,0.0100*%
%ADD13C,0.0060*%
%ADD14C,0.0160*%
%ADD15C,0.0050*%
%ADD16C,0.0120*%
D10*
X000180Y000180D02*
X000180Y021180D01*
X009180Y021180D01*
X009180Y030550D01*
X025672Y030550D01*
X025672Y000180D01*
X000180Y000180D01*
D11*
X002103Y006200D02*
X002103Y006660D01*
X001950Y006660D02*
X002257Y006660D01*
X002410Y006660D02*
X002410Y006200D01*
X002410Y006430D02*
X002717Y006430D01*
X002871Y006430D02*
X003178Y006430D01*
X003178Y006507D02*
X003178Y006200D01*
X003331Y006200D02*
X003638Y006200D01*
X003485Y006200D02*
X003485Y006660D01*
X003331Y006507D01*
X003178Y006507D02*
X003024Y006660D01*
X002871Y006507D01*
X002871Y006200D01*
X002717Y006200D02*
X002717Y006660D01*
X002641Y006950D02*
X002487Y006950D01*
X002410Y007027D01*
X002410Y007334D01*
X002487Y007410D01*
X002641Y007410D01*
X002717Y007334D01*
X002871Y007410D02*
X002871Y007180D01*
X003024Y007257D01*
X003101Y007257D01*
X003178Y007180D01*
X003178Y007027D01*
X003101Y006950D01*
X002948Y006950D01*
X002871Y007027D01*
X002717Y007027D02*
X002641Y006950D01*
X002871Y007410D02*
X003178Y007410D01*
X003331Y007410D02*
X003638Y007410D01*
X003638Y007334D01*
X003331Y007027D01*
X003331Y006950D01*
X003792Y006950D02*
X004098Y006950D01*
X003945Y006950D02*
X003945Y007410D01*
X003792Y007257D01*
X003868Y007700D02*
X003792Y007777D01*
X003792Y007853D01*
X003868Y007930D01*
X004022Y007930D01*
X004098Y007853D01*
X004098Y007777D01*
X004022Y007700D01*
X003868Y007700D01*
X003868Y007930D02*
X003792Y008007D01*
X003792Y008084D01*
X003868Y008160D01*
X004022Y008160D01*
X004098Y008084D01*
X004098Y008007D01*
X004022Y007930D01*
X004252Y008084D02*
X004329Y008160D01*
X004482Y008160D01*
X004559Y008084D01*
X004559Y008007D01*
X004252Y007700D01*
X004559Y007700D01*
X004712Y007777D02*
X005019Y008084D01*
X005019Y007777D01*
X004943Y007700D01*
X004789Y007700D01*
X004712Y007777D01*
X004712Y008084D01*
X004789Y008160D01*
X004943Y008160D01*
X005019Y008084D01*
X005173Y008084D02*
X005173Y007777D01*
X005480Y008084D01*
X005480Y007777D01*
X005403Y007700D01*
X005249Y007700D01*
X005173Y007777D01*
X005173Y008084D02*
X005249Y008160D01*
X005403Y008160D01*
X005480Y008084D01*
X005633Y008160D02*
X005863Y008160D01*
X005940Y008084D01*
X005940Y007777D01*
X005863Y007700D01*
X005633Y007700D01*
X005633Y008160D01*
X005710Y008450D02*
X005633Y008527D01*
X005633Y008680D01*
X005863Y008680D01*
X005940Y008603D01*
X005940Y008527D01*
X005863Y008450D01*
X005710Y008450D01*
X005480Y008450D02*
X005173Y008450D01*
X005326Y008450D02*
X005326Y008910D01*
X005173Y008757D01*
X005019Y008834D02*
X005019Y008527D01*
X004943Y008450D01*
X004789Y008450D01*
X004712Y008527D01*
X005019Y008834D01*
X004943Y008910D01*
X004789Y008910D01*
X004712Y008834D01*
X004712Y008527D01*
X004559Y008680D02*
X004252Y008680D01*
X004098Y008450D02*
X003792Y008450D01*
X003945Y008450D02*
X003945Y008910D01*
X003792Y008757D01*
X003638Y008834D02*
X003331Y008527D01*
X003408Y008450D01*
X003561Y008450D01*
X003638Y008527D01*
X003638Y008834D01*
X003561Y008910D01*
X003408Y008910D01*
X003331Y008834D01*
X003331Y008527D01*
X003178Y008527D02*
X003101Y008450D01*
X002948Y008450D01*
X002871Y008527D01*
X003178Y008834D01*
X003178Y008527D01*
X003178Y008834D02*
X003101Y008910D01*
X002948Y008910D01*
X002871Y008834D01*
X002871Y008527D01*
X002717Y008527D02*
X002641Y008450D01*
X002487Y008450D01*
X002410Y008527D01*
X002257Y008450D02*
X002257Y008910D01*
X002410Y008834D02*
X002487Y008910D01*
X002641Y008910D01*
X002717Y008834D01*
X002717Y008757D01*
X002641Y008680D01*
X002717Y008603D01*
X002717Y008527D01*
X002641Y008680D02*
X002564Y008680D01*
X002257Y008450D02*
X001950Y008910D01*
X001950Y008450D01*
X001950Y008160D02*
X002257Y008160D01*
X002103Y008160D02*
X002103Y007700D01*
X002103Y007410D02*
X002103Y006950D01*
X001950Y007410D02*
X002257Y007410D01*
X002487Y007700D02*
X002410Y007777D01*
X002410Y008084D01*
X002487Y008160D01*
X002641Y008160D01*
X002717Y008084D01*
X002871Y008160D02*
X002871Y007930D01*
X003024Y008007D01*
X003101Y008007D01*
X003178Y007930D01*
X003178Y007777D01*
X003101Y007700D01*
X002948Y007700D01*
X002871Y007777D01*
X002717Y007777D02*
X002641Y007700D01*
X002487Y007700D01*
X002871Y008160D02*
X003178Y008160D01*
X003331Y008160D02*
X003638Y008160D01*
X003638Y008084D01*
X003331Y007777D01*
X003331Y007700D01*
X003945Y006584D02*
X003792Y006430D01*
X004022Y006430D01*
X004098Y006353D01*
X004098Y006277D01*
X004022Y006200D01*
X003868Y006200D01*
X003792Y006277D01*
X003792Y006430D01*
X003945Y006584D02*
X004098Y006660D01*
X004252Y006660D02*
X004252Y006200D01*
X004252Y006353D02*
X004482Y006353D01*
X004559Y006430D01*
X004559Y006584D01*
X004482Y006660D01*
X004252Y006660D01*
X004329Y006950D02*
X004482Y006950D01*
X004559Y007027D01*
X004559Y007103D01*
X004482Y007180D01*
X004252Y007180D01*
X004252Y007027D01*
X004329Y006950D01*
X004252Y007180D02*
X004405Y007334D01*
X004559Y007410D01*
X004712Y007334D02*
X004789Y007410D01*
X004943Y007410D01*
X005019Y007334D01*
X005019Y007257D01*
X004712Y006950D01*
X005019Y006950D01*
X005173Y007027D02*
X005173Y007334D01*
X005249Y007410D01*
X005403Y007410D01*
X005480Y007334D01*
X005173Y007027D01*
X005249Y006950D01*
X005403Y006950D01*
X005480Y007027D01*
X005480Y007334D01*
X005633Y007334D02*
X005710Y007410D01*
X005863Y007410D01*
X005940Y007334D01*
X005633Y007027D01*
X005710Y006950D01*
X005863Y006950D01*
X005940Y007027D01*
X005940Y007334D01*
X006094Y007410D02*
X006094Y006950D01*
X006324Y006950D01*
X006400Y007027D01*
X006400Y007334D01*
X006324Y007410D01*
X006094Y007410D01*
X005633Y007334D02*
X005633Y007027D01*
X005710Y006660D02*
X005633Y006584D01*
X005633Y006277D01*
X005940Y006584D01*
X005940Y006277D01*
X005863Y006200D01*
X005710Y006200D01*
X005633Y006277D01*
X005480Y006200D02*
X005173Y006200D01*
X005326Y006200D02*
X005326Y006660D01*
X005173Y006507D01*
X005019Y006584D02*
X005019Y006277D01*
X004943Y006200D01*
X004789Y006200D01*
X004712Y006277D01*
X005019Y006584D01*
X004943Y006660D01*
X004789Y006660D01*
X004712Y006584D01*
X004712Y006277D01*
X005710Y006660D02*
X005863Y006660D01*
X005940Y006584D01*
X006094Y006584D02*
X006094Y006277D01*
X006400Y006584D01*
X006400Y006277D01*
X006324Y006200D01*
X006170Y006200D01*
X006094Y006277D01*
X006094Y006584D02*
X006170Y006660D01*
X006324Y006660D01*
X006400Y006584D01*
X005633Y008680D02*
X005787Y008834D01*
X005940Y008910D01*
X004559Y009200D02*
X004252Y009200D01*
X004559Y009507D01*
X004559Y009584D01*
X004482Y009660D01*
X004329Y009660D01*
X004252Y009584D01*
X004098Y009584D02*
X004098Y009507D01*
X003792Y009200D01*
X004098Y009200D01*
X003638Y009277D02*
X003561Y009200D01*
X003408Y009200D01*
X003331Y009277D01*
X003178Y009277D02*
X003101Y009200D01*
X002948Y009200D01*
X002871Y009277D01*
X002871Y009584D01*
X002948Y009660D01*
X003101Y009660D01*
X003178Y009584D01*
X003331Y009584D02*
X003408Y009660D01*
X003561Y009660D01*
X003638Y009584D01*
X003638Y009507D01*
X003561Y009430D01*
X003638Y009353D01*
X003638Y009277D01*
X003561Y009430D02*
X003485Y009430D01*
X003792Y009584D02*
X003868Y009660D01*
X004022Y009660D01*
X004098Y009584D01*
X004022Y009950D02*
X003868Y009950D01*
X003792Y010027D01*
X003792Y010180D01*
X004022Y010180D01*
X004098Y010103D01*
X004098Y010027D01*
X004022Y009950D01*
X004252Y010027D02*
X004252Y010334D01*
X004329Y010410D01*
X004482Y010410D01*
X004559Y010334D01*
X004252Y010027D01*
X004329Y009950D01*
X004482Y009950D01*
X004559Y010027D01*
X004559Y010334D01*
X004559Y010700D02*
X004252Y010700D01*
X004559Y011007D01*
X004559Y011084D01*
X004482Y011160D01*
X004329Y011160D01*
X004252Y011084D01*
X004098Y011084D02*
X004022Y011160D01*
X003868Y011160D01*
X003792Y011084D01*
X003638Y011084D02*
X003638Y011007D01*
X003561Y010930D01*
X003408Y010930D01*
X003331Y011007D01*
X003331Y011084D01*
X003408Y011160D01*
X003561Y011160D01*
X003638Y011084D01*
X003561Y010930D02*
X003638Y010853D01*
X003638Y010777D01*
X003561Y010700D01*
X003408Y010700D01*
X003331Y010777D01*
X003331Y010853D01*
X003408Y010930D01*
X003178Y010777D02*
X003101Y010700D01*
X002948Y010700D01*
X002871Y010777D01*
X002871Y011084D01*
X002948Y011160D01*
X003101Y011160D01*
X003178Y011084D01*
X003101Y011450D02*
X003178Y011527D01*
X003101Y011450D02*
X002948Y011450D01*
X002871Y011527D01*
X002871Y011834D01*
X002948Y011910D01*
X003101Y011910D01*
X003178Y011834D01*
X003331Y011834D02*
X003331Y011757D01*
X003408Y011680D01*
X003561Y011680D01*
X003638Y011603D01*
X003638Y011527D01*
X003561Y011450D01*
X003408Y011450D01*
X003331Y011527D01*
X003331Y011603D01*
X003408Y011680D01*
X003561Y011680D02*
X003638Y011757D01*
X003638Y011834D01*
X003561Y011910D01*
X003408Y011910D01*
X003331Y011834D01*
X003408Y012200D02*
X003331Y012277D01*
X003331Y012353D01*
X003408Y012430D01*
X003561Y012430D01*
X003638Y012353D01*
X003638Y012277D01*
X003561Y012200D01*
X003408Y012200D01*
X003408Y012430D02*
X003331Y012507D01*
X003331Y012584D01*
X003408Y012660D01*
X003561Y012660D01*
X003638Y012584D01*
X003638Y012507D01*
X003561Y012430D01*
X003792Y012277D02*
X004098Y012584D01*
X004098Y012277D01*
X004022Y012200D01*
X003868Y012200D01*
X003792Y012277D01*
X003792Y012584D01*
X003868Y012660D01*
X004022Y012660D01*
X004098Y012584D01*
X004252Y012584D02*
X004252Y012277D01*
X004559Y012584D01*
X004559Y012277D01*
X004482Y012200D01*
X004329Y012200D01*
X004252Y012277D01*
X004252Y012584D02*
X004329Y012660D01*
X004482Y012660D01*
X004559Y012584D01*
X004712Y012584D02*
X004712Y012277D01*
X005019Y012584D01*
X005019Y012277D01*
X004943Y012200D01*
X004789Y012200D01*
X004712Y012277D01*
X004712Y012584D02*
X004789Y012660D01*
X004943Y012660D01*
X005019Y012584D01*
X004943Y012950D02*
X004789Y012950D01*
X004712Y013027D01*
X005019Y013334D01*
X005019Y013027D01*
X004943Y012950D01*
X004712Y013027D02*
X004712Y013334D01*
X004789Y013410D01*
X004943Y013410D01*
X005019Y013334D01*
X004559Y013334D02*
X004559Y013027D01*
X004482Y012950D01*
X004329Y012950D01*
X004252Y013027D01*
X004559Y013334D01*
X004482Y013410D01*
X004329Y013410D01*
X004252Y013334D01*
X004252Y013027D01*
X004098Y012950D02*
X003792Y012950D01*
X003945Y012950D02*
X003945Y013410D01*
X003792Y013257D01*
X003638Y013257D02*
X003561Y013180D01*
X003408Y013180D01*
X003331Y013257D01*
X003331Y013334D01*
X003408Y013410D01*
X003561Y013410D01*
X003638Y013334D01*
X003638Y013257D01*
X003561Y013180D02*
X003638Y013103D01*
X003638Y013027D01*
X003561Y012950D01*
X003408Y012950D01*
X003331Y013027D01*
X003331Y013103D01*
X003408Y013180D01*
X003178Y013027D02*
X003101Y012950D01*
X002948Y012950D01*
X002871Y013027D01*
X002871Y013334D01*
X002948Y013410D01*
X003101Y013410D01*
X003178Y013334D01*
X003101Y013700D02*
X003178Y013777D01*
X003101Y013700D02*
X002948Y013700D01*
X002871Y013777D01*
X002871Y014084D01*
X002948Y014160D01*
X003101Y014160D01*
X003178Y014084D01*
X003331Y014084D02*
X003331Y014007D01*
X003408Y013930D01*
X003561Y013930D01*
X003638Y013853D01*
X003638Y013777D01*
X003561Y013700D01*
X003408Y013700D01*
X003331Y013777D01*
X003331Y013853D01*
X003408Y013930D01*
X003561Y013930D02*
X003638Y014007D01*
X003638Y014084D01*
X003561Y014160D01*
X003408Y014160D01*
X003331Y014084D01*
X003331Y014450D02*
X003485Y014450D01*
X003408Y014450D02*
X003408Y014910D01*
X003331Y014910D02*
X003485Y014910D01*
X003638Y014834D02*
X003638Y014527D01*
X003715Y014450D01*
X003868Y014450D01*
X003945Y014527D01*
X004098Y014450D02*
X004405Y014450D01*
X004559Y014527D02*
X004636Y014450D01*
X004789Y014450D01*
X004866Y014527D01*
X004866Y014603D01*
X004789Y014680D01*
X004636Y014680D01*
X004559Y014757D01*
X004559Y014834D01*
X004636Y014910D01*
X004789Y014910D01*
X004866Y014834D01*
X004405Y014910D02*
X004098Y014910D01*
X004098Y014450D01*
X004098Y014680D02*
X004252Y014680D01*
X003945Y014834D02*
X003868Y014910D01*
X003715Y014910D01*
X003638Y014834D01*
X003178Y014910D02*
X003178Y014603D01*
X003024Y014450D01*
X002871Y014603D01*
X002871Y014910D01*
X002717Y014910D02*
X002410Y014910D01*
X002410Y014450D01*
X002717Y014450D01*
X002564Y014680D02*
X002410Y014680D01*
X002257Y014527D02*
X002180Y014450D01*
X001950Y014450D01*
X001950Y014910D01*
X002180Y014910D01*
X002257Y014834D01*
X002257Y014527D01*
X002180Y014160D02*
X002027Y014160D01*
X001950Y014084D01*
X002180Y014160D02*
X002257Y014084D01*
X002257Y014007D01*
X001950Y013700D01*
X002257Y013700D01*
X002410Y013700D02*
X002410Y013777D01*
X002717Y014084D01*
X002717Y014160D01*
X002410Y014160D01*
X002410Y013410D02*
X002717Y013410D01*
X002717Y013334D01*
X002410Y013027D01*
X002410Y012950D01*
X002257Y012950D02*
X001950Y012950D01*
X002257Y013257D01*
X002257Y013334D01*
X002180Y013410D01*
X002027Y013410D01*
X001950Y013334D01*
X002027Y012660D02*
X001950Y012584D01*
X002027Y012660D02*
X002180Y012660D01*
X002257Y012584D01*
X002257Y012507D01*
X001950Y012200D01*
X002257Y012200D01*
X002410Y012200D02*
X002410Y012277D01*
X002717Y012584D01*
X002717Y012660D01*
X002410Y012660D01*
X002871Y012584D02*
X002871Y012277D01*
X002948Y012200D01*
X003101Y012200D01*
X003178Y012277D01*
X003178Y012584D02*
X003101Y012660D01*
X002948Y012660D01*
X002871Y012584D01*
X002717Y011910D02*
X002410Y011910D01*
X002257Y011834D02*
X002180Y011910D01*
X002027Y011910D01*
X001950Y011834D01*
X002257Y011834D02*
X002257Y011757D01*
X001950Y011450D01*
X002257Y011450D01*
X002410Y011450D02*
X002410Y011527D01*
X002717Y011834D01*
X002717Y011910D01*
X002717Y011160D02*
X002410Y011160D01*
X002257Y011084D02*
X002180Y011160D01*
X002027Y011160D01*
X001950Y011084D01*
X002257Y011084D02*
X002257Y011007D01*
X001950Y010700D01*
X002257Y010700D01*
X002410Y010700D02*
X002410Y010777D01*
X002717Y011084D01*
X002717Y011160D01*
X002717Y010410D02*
X002410Y010410D01*
X002257Y010334D02*
X002180Y010410D01*
X002027Y010410D01*
X001950Y010334D01*
X002257Y010334D02*
X002257Y010257D01*
X001950Y009950D01*
X002257Y009950D01*
X002410Y009950D02*
X002410Y010027D01*
X002717Y010334D01*
X002717Y010410D01*
X002871Y010334D02*
X002871Y010027D01*
X002948Y009950D01*
X003101Y009950D01*
X003178Y010027D01*
X003331Y009950D02*
X003638Y009950D01*
X003485Y009950D02*
X003485Y010410D01*
X003331Y010257D01*
X003178Y010334D02*
X003101Y010410D01*
X002948Y010410D01*
X002871Y010334D01*
X002717Y009660D02*
X002410Y009660D01*
X002257Y009584D02*
X002257Y009507D01*
X001950Y009200D01*
X002257Y009200D01*
X002410Y009200D02*
X002410Y009277D01*
X002717Y009584D01*
X002717Y009660D01*
X002257Y009584D02*
X002180Y009660D01*
X002027Y009660D01*
X001950Y009584D01*
X003792Y010180D02*
X003945Y010334D01*
X004098Y010410D01*
X004098Y010700D02*
X003792Y010700D01*
X004098Y011007D01*
X004098Y011084D01*
X004022Y011450D02*
X003868Y011450D01*
X003792Y011527D01*
X004098Y011834D01*
X004098Y011527D01*
X004022Y011450D01*
X004252Y011450D02*
X004559Y011757D01*
X004559Y011834D01*
X004482Y011910D01*
X004329Y011910D01*
X004252Y011834D01*
X004098Y011834D02*
X004022Y011910D01*
X003868Y011910D01*
X003792Y011834D01*
X003792Y011527D01*
X004252Y011450D02*
X004559Y011450D01*
X004482Y013700D02*
X004329Y013700D01*
X004252Y013777D01*
X004559Y014084D01*
X004559Y013777D01*
X004482Y013700D01*
X004252Y013777D02*
X004252Y014084D01*
X004329Y014160D01*
X004482Y014160D01*
X004559Y014084D01*
X004098Y014084D02*
X004098Y013777D01*
X004022Y013700D01*
X003868Y013700D01*
X003792Y013777D01*
X004098Y014084D01*
X004022Y014160D01*
X003868Y014160D01*
X003792Y014084D01*
X003792Y013777D01*
D12*
X014680Y023680D02*
X015930Y023680D01*
X015430Y023180D01*
X015930Y023680D02*
X015430Y024180D01*
D13*
X016152Y024180D02*
X020230Y024180D01*
X020232Y024141D01*
X020238Y024102D01*
X020247Y024064D01*
X020260Y024027D01*
X020277Y023991D01*
X020297Y023958D01*
X020321Y023926D01*
X020347Y023897D01*
X020376Y023871D01*
X020408Y023847D01*
X020441Y023827D01*
X020477Y023810D01*
X020514Y023797D01*
X020552Y023788D01*
X020591Y023782D01*
X020630Y023780D01*
X020669Y023782D01*
X020708Y023788D01*
X020746Y023797D01*
X020783Y023810D01*
X020819Y023827D01*
X020852Y023847D01*
X020884Y023871D01*
X020913Y023897D01*
X020939Y023926D01*
X020963Y023958D01*
X020983Y023991D01*
X021000Y024027D01*
X021013Y024064D01*
X021022Y024102D01*
X021028Y024141D01*
X021030Y024180D01*
X025208Y024180D01*
X025208Y029830D01*
X021030Y029830D01*
X021028Y029791D01*
X021022Y029752D01*
X021013Y029714D01*
X021000Y029677D01*
X020983Y029641D01*
X020963Y029608D01*
X020939Y029576D01*
X020913Y029547D01*
X020884Y029521D01*
X020852Y029497D01*
X020819Y029477D01*
X020783Y029460D01*
X020746Y029447D01*
X020708Y029438D01*
X020669Y029432D01*
X020630Y029430D01*
X020591Y029432D01*
X020552Y029438D01*
X020514Y029447D01*
X020477Y029460D01*
X020441Y029477D01*
X020408Y029497D01*
X020376Y029521D01*
X020347Y029547D01*
X020321Y029576D01*
X020297Y029608D01*
X020277Y029641D01*
X020260Y029677D01*
X020247Y029714D01*
X020238Y029752D01*
X020232Y029791D01*
X020230Y029830D01*
X016152Y029830D01*
X016152Y024180D01*
X016152Y000530D01*
X025208Y000530D01*
X025208Y024180D01*
X014895Y022710D02*
X014468Y022710D01*
X014681Y022710D02*
X014681Y023351D01*
X014468Y023137D01*
X013606Y023351D02*
X013606Y022710D01*
X013179Y023351D01*
X013179Y022710D01*
X012963Y022710D02*
X012749Y022710D01*
X012856Y022710D02*
X012856Y023351D01*
X012749Y023351D02*
X012963Y023351D01*
X012532Y023244D02*
X012532Y023030D01*
X012425Y022924D01*
X012105Y022924D01*
X012105Y022710D02*
X012105Y023351D01*
X012425Y023351D01*
X012532Y023244D01*
X011887Y023244D02*
X011460Y022817D01*
X011460Y023030D02*
X011887Y023030D01*
X011887Y022817D02*
X011460Y023244D01*
X011674Y023244D02*
X011674Y022817D01*
X011580Y021680D02*
X012050Y021680D01*
X012300Y021680D02*
X012780Y021680D01*
X013530Y021180D02*
X013547Y021182D01*
X013564Y021186D01*
X013580Y021193D01*
X013594Y021203D01*
X013607Y021216D01*
X013617Y021230D01*
X013624Y021246D01*
X013628Y021263D01*
X013630Y021280D01*
X013630Y022080D01*
X013628Y022097D01*
X013624Y022114D01*
X013617Y022130D01*
X013607Y022144D01*
X013594Y022157D01*
X013580Y022167D01*
X013564Y022174D01*
X013547Y022178D01*
X013530Y022180D01*
X010830Y022180D01*
X010813Y022178D01*
X010796Y022174D01*
X010780Y022167D01*
X010766Y022157D01*
X010753Y022144D01*
X010743Y022130D01*
X010736Y022114D01*
X010732Y022097D01*
X010730Y022080D01*
X010730Y021280D01*
X010732Y021263D01*
X010736Y021246D01*
X010743Y021230D01*
X010753Y021216D01*
X010766Y021203D01*
X010780Y021193D01*
X010796Y021186D01*
X010813Y021182D01*
X010830Y021180D01*
X013530Y021180D01*
X013530Y023680D02*
X010830Y023680D01*
X010813Y023682D01*
X010796Y023686D01*
X010780Y023693D01*
X010766Y023703D01*
X010753Y023716D01*
X010743Y023730D01*
X010736Y023746D01*
X010732Y023763D01*
X010730Y023780D01*
X010730Y024580D01*
X010732Y024597D01*
X010736Y024614D01*
X010743Y024630D01*
X010753Y024644D01*
X010766Y024657D01*
X010780Y024667D01*
X010796Y024674D01*
X010813Y024678D01*
X010830Y024680D01*
X013530Y024680D01*
X013547Y024678D01*
X013564Y024674D01*
X013580Y024667D01*
X013594Y024657D01*
X013607Y024644D01*
X013617Y024630D01*
X013624Y024614D01*
X013628Y024597D01*
X013630Y024580D01*
X013630Y023780D01*
X013628Y023763D01*
X013624Y023746D01*
X013617Y023730D01*
X013607Y023716D01*
X013594Y023703D01*
X013580Y023693D01*
X013564Y023686D01*
X013547Y023682D01*
X013530Y023680D01*
X012780Y024180D02*
X012310Y024180D01*
X012060Y024180D02*
X011580Y024180D01*
X010830Y026180D02*
X013530Y026180D01*
X013547Y026182D01*
X013564Y026186D01*
X013580Y026193D01*
X013594Y026203D01*
X013607Y026216D01*
X013617Y026230D01*
X013624Y026246D01*
X013628Y026263D01*
X013630Y026280D01*
X013630Y027080D01*
X013628Y027097D01*
X013624Y027114D01*
X013617Y027130D01*
X013607Y027144D01*
X013594Y027157D01*
X013580Y027167D01*
X013564Y027174D01*
X013547Y027178D01*
X013530Y027180D01*
X010830Y027180D01*
X010813Y027178D01*
X010796Y027174D01*
X010780Y027167D01*
X010766Y027157D01*
X010753Y027144D01*
X010743Y027130D01*
X010736Y027114D01*
X010732Y027097D01*
X010730Y027080D01*
X010730Y026280D01*
X010732Y026263D01*
X010736Y026246D01*
X010743Y026230D01*
X010753Y026216D01*
X010766Y026203D01*
X010780Y026193D01*
X010796Y026186D01*
X010813Y026182D01*
X010830Y026180D01*
X011580Y026680D02*
X012060Y026680D01*
X012310Y026680D02*
X012780Y026680D01*
X013710Y026101D02*
X013710Y025460D01*
X014137Y025460D02*
X014137Y026101D01*
X014355Y025994D02*
X014355Y025567D01*
X014461Y025460D01*
X014675Y025460D01*
X014782Y025567D01*
X014782Y025994D02*
X014675Y026101D01*
X014461Y026101D01*
X014355Y025994D01*
X014137Y025460D02*
X013710Y026101D01*
X013530Y028680D02*
X010830Y028680D01*
X010813Y028682D01*
X010796Y028686D01*
X010780Y028693D01*
X010766Y028703D01*
X010753Y028716D01*
X010743Y028730D01*
X010736Y028746D01*
X010732Y028763D01*
X010730Y028780D01*
X010730Y029580D01*
X010732Y029597D01*
X010736Y029614D01*
X010743Y029630D01*
X010753Y029644D01*
X010766Y029657D01*
X010780Y029667D01*
X010796Y029674D01*
X010813Y029678D01*
X010830Y029680D01*
X013530Y029680D01*
X013547Y029678D01*
X013564Y029674D01*
X013580Y029667D01*
X013594Y029657D01*
X013607Y029644D01*
X013617Y029630D01*
X013624Y029614D01*
X013628Y029597D01*
X013630Y029580D01*
X013630Y028780D01*
X013628Y028763D01*
X013624Y028746D01*
X013617Y028730D01*
X013607Y028716D01*
X013594Y028703D01*
X013580Y028693D01*
X013564Y028686D01*
X013547Y028682D01*
X013530Y028680D01*
X012780Y029180D02*
X012310Y029180D01*
X012060Y029180D02*
X011580Y029180D01*
X006260Y020051D02*
X005833Y020051D01*
X005615Y019944D02*
X005615Y019517D01*
X005508Y019410D01*
X005295Y019410D01*
X005188Y019517D01*
X005615Y019944D01*
X005508Y020051D01*
X005295Y020051D01*
X005188Y019944D01*
X005188Y019517D01*
X004971Y019730D02*
X004544Y019730D01*
X004326Y019410D02*
X003899Y019410D01*
X003899Y020051D01*
X003682Y019410D02*
X003255Y019410D01*
X003255Y020051D01*
X003037Y019837D02*
X003037Y019410D01*
X003037Y019730D02*
X002610Y019730D01*
X002610Y019837D02*
X002610Y019410D01*
X002610Y019837D02*
X002824Y020051D01*
X003037Y019837D01*
X005833Y019517D02*
X005833Y019410D01*
X005833Y019517D02*
X006260Y019944D01*
X006260Y020051D01*
X010830Y011180D02*
X013530Y011180D01*
X013547Y011178D01*
X013564Y011174D01*
X013580Y011167D01*
X013594Y011157D01*
X013607Y011144D01*
X013617Y011130D01*
X013624Y011114D01*
X013628Y011097D01*
X013630Y011080D01*
X013630Y010280D01*
X013628Y010263D01*
X013624Y010246D01*
X013617Y010230D01*
X013607Y010216D01*
X013594Y010203D01*
X013580Y010193D01*
X013564Y010186D01*
X013547Y010182D01*
X013530Y010180D01*
X010830Y010180D01*
X010813Y010182D01*
X010796Y010186D01*
X010780Y010193D01*
X010766Y010203D01*
X010753Y010216D01*
X010743Y010230D01*
X010736Y010246D01*
X010732Y010263D01*
X010730Y010280D01*
X010730Y011080D01*
X010732Y011097D01*
X010736Y011114D01*
X010743Y011130D01*
X010753Y011144D01*
X010766Y011157D01*
X010780Y011167D01*
X010796Y011174D01*
X010813Y011178D01*
X010830Y011180D01*
X011580Y010680D02*
X012050Y010680D01*
X012300Y010680D02*
X012780Y010680D01*
D14*
X015930Y024680D02*
X015430Y025180D01*
X015430Y026180D01*
X015930Y026680D01*
D15*
X011616Y027580D02*
X011315Y027580D01*
X011541Y027805D01*
X011541Y027355D01*
X011155Y027430D02*
X011080Y027355D01*
X010930Y027355D01*
X010855Y027430D01*
X010855Y027730D01*
X010930Y027805D01*
X011080Y027805D01*
X011155Y027730D01*
X011080Y029855D02*
X011155Y029930D01*
X011080Y029855D02*
X010930Y029855D01*
X010855Y029930D01*
X010855Y030230D01*
X010930Y030305D01*
X011080Y030305D01*
X011155Y030230D01*
X011315Y030305D02*
X011315Y030080D01*
X011466Y030155D01*
X011541Y030155D01*
X011616Y030080D01*
X011616Y029930D01*
X011541Y029855D01*
X011390Y029855D01*
X011315Y029930D01*
X011315Y030305D02*
X011616Y030305D01*
X011541Y025305D02*
X011616Y025230D01*
X011616Y025155D01*
X011541Y025080D01*
X011616Y025005D01*
X011616Y024930D01*
X011541Y024855D01*
X011390Y024855D01*
X011315Y024930D01*
X011155Y024930D02*
X011080Y024855D01*
X010930Y024855D01*
X010855Y024930D01*
X010855Y025230D01*
X010930Y025305D01*
X011080Y025305D01*
X011155Y025230D01*
X011315Y025230D02*
X011390Y025305D01*
X011541Y025305D01*
X011541Y025080D02*
X011466Y025080D01*
X012709Y021005D02*
X012634Y020930D01*
X012634Y020630D01*
X012709Y020555D01*
X012859Y020555D01*
X012934Y020630D01*
X013095Y020555D02*
X013395Y020555D01*
X013245Y020555D02*
X013245Y021005D01*
X013095Y020855D01*
X012934Y020930D02*
X012859Y021005D01*
X012709Y021005D01*
X012180Y020180D02*
X012180Y019680D01*
X011180Y019680D01*
X011180Y020180D01*
X009680Y020180D01*
X009680Y012180D01*
X013680Y012180D01*
X013680Y020180D01*
X012180Y020180D01*
X011180Y020180D01*
X007680Y021180D02*
X004680Y021180D01*
X004680Y020680D01*
X003680Y020680D01*
X003680Y021180D01*
X000680Y021180D01*
X000680Y001180D01*
X007680Y001180D01*
X007680Y021180D01*
X004680Y021180D02*
X003680Y021180D01*
X010855Y015545D02*
X011305Y015545D01*
X011305Y015395D02*
X011305Y015695D01*
X011005Y015395D02*
X010855Y015545D01*
X010855Y015234D02*
X011230Y015234D01*
X011305Y015159D01*
X011305Y015009D01*
X011230Y014934D01*
X010855Y014934D01*
X012709Y010005D02*
X012634Y009930D01*
X012634Y009630D01*
X012709Y009555D01*
X012859Y009555D01*
X012934Y009630D01*
X013095Y009555D02*
X013395Y009855D01*
X013395Y009930D01*
X013320Y010005D01*
X013170Y010005D01*
X013095Y009930D01*
X012934Y009930D02*
X012859Y010005D01*
X012709Y010005D01*
X013095Y009555D02*
X013395Y009555D01*
X013680Y009180D02*
X013680Y001180D01*
X009680Y001180D01*
X009680Y009180D01*
X011180Y009180D01*
X011180Y008680D01*
X012180Y008680D01*
X012180Y009180D01*
X011180Y009180D01*
X012180Y009180D02*
X013680Y009180D01*
X011305Y004695D02*
X011305Y004395D01*
X011005Y004695D01*
X010930Y004695D01*
X010855Y004620D01*
X010855Y004470D01*
X010930Y004395D01*
X010855Y004234D02*
X011230Y004234D01*
X011305Y004159D01*
X011305Y004009D01*
X011230Y003934D01*
X010855Y003934D01*
D16*
X012050Y010430D02*
X012050Y010680D01*
X012050Y010930D01*
X012300Y010930D02*
X012300Y010680D01*
X012300Y010430D01*
X012300Y021430D02*
X012300Y021680D01*
X012300Y021930D01*
X012050Y021930D02*
X012050Y021680D01*
X012050Y021430D01*
X012060Y023930D02*
X012060Y024180D01*
X012060Y024430D01*
X012310Y024430D02*
X012310Y024180D01*
X012310Y023930D01*
X012310Y026430D02*
X012310Y026680D01*
X012310Y026930D01*
X012060Y026930D02*
X012060Y026680D01*
X012060Y026430D01*
X012060Y028930D02*
X012060Y029180D01*
X012060Y029430D01*
X012310Y029430D02*
X012310Y029180D01*
X012310Y028930D01*
M02*
