G75*
%MOIN*%
%OFA0B0*%
%FSLAX24Y24*%
%IPPOS*%
%LPD*%
%AMOC8*
5,1,8,0,0,1.08239X$1,22.5*
%
%ADD10C,0.0000*%
%ADD11C,0.0554*%
%ADD12C,0.0594*%
%ADD13R,0.0554X0.0554*%
%ADD14OC8,0.0554*%
%ADD15C,0.0100*%
%ADD16C,0.0400*%
%ADD17C,0.0396*%
%ADD18C,0.0160*%
D10*
X000180Y000180D02*
X000180Y021180D01*
X009180Y021180D01*
X009180Y030550D01*
X025672Y030550D01*
X025672Y000180D01*
X000180Y000180D01*
D11*
X001180Y001680D03*
X001180Y002680D03*
X001180Y003680D03*
X001180Y004680D03*
X001180Y005680D03*
X001180Y006680D03*
X001180Y007680D03*
X001180Y008680D03*
X001180Y009680D03*
X001180Y010680D03*
X001180Y011680D03*
X001180Y012680D03*
X001180Y013680D03*
X001180Y014680D03*
X001180Y015680D03*
X001180Y016680D03*
X001180Y017680D03*
X001180Y018680D03*
X001180Y019680D03*
X001180Y020680D03*
X007180Y020680D03*
X007180Y019680D03*
X007180Y018680D03*
X007180Y017680D03*
X007180Y016680D03*
X007180Y015680D03*
X007180Y014680D03*
X007180Y013680D03*
X007180Y012680D03*
X007180Y011680D03*
X007180Y010680D03*
X007180Y009680D03*
X007180Y008680D03*
X007180Y007680D03*
X007180Y006680D03*
X007180Y005680D03*
X007180Y004680D03*
X007180Y003680D03*
X007180Y002680D03*
X007180Y001680D03*
X010180Y001680D03*
X010180Y002680D03*
X010180Y003680D03*
X010180Y004680D03*
X010180Y005680D03*
X010180Y006680D03*
X010180Y007680D03*
X013180Y007680D03*
X013180Y006680D03*
X013180Y005680D03*
X013180Y004680D03*
X013180Y003680D03*
X013180Y002680D03*
X013180Y001680D03*
X013180Y008680D03*
X013180Y012680D03*
X013180Y013680D03*
X013180Y014680D03*
X013180Y015680D03*
X013180Y016680D03*
X013180Y017680D03*
X013180Y018680D03*
X013180Y019680D03*
X010180Y018680D03*
X010180Y017680D03*
X010180Y016680D03*
X010180Y015680D03*
X010180Y014680D03*
X010180Y013680D03*
X010180Y012680D03*
D12*
X017383Y012680D02*
X017977Y012680D01*
X017977Y013680D02*
X017383Y013680D01*
X017383Y014680D02*
X017977Y014680D01*
X017977Y015680D02*
X017383Y015680D01*
X017383Y016680D02*
X017977Y016680D01*
X017977Y017680D02*
X017383Y017680D01*
X017383Y018680D02*
X017977Y018680D01*
X017977Y019680D02*
X017383Y019680D01*
X017383Y020680D02*
X017977Y020680D01*
X017977Y021680D02*
X017383Y021680D01*
X017383Y022680D02*
X017977Y022680D01*
X017977Y023680D02*
X017383Y023680D01*
X017383Y024680D02*
X017977Y024680D01*
X017977Y025680D02*
X017383Y025680D01*
X017383Y026680D02*
X017977Y026680D01*
X023383Y026680D02*
X023977Y026680D01*
X023977Y025680D02*
X023383Y025680D01*
X023383Y024680D02*
X023977Y024680D01*
X023977Y023680D02*
X023383Y023680D01*
X023383Y022680D02*
X023977Y022680D01*
X023977Y021680D02*
X023383Y021680D01*
X023383Y020680D02*
X023977Y020680D01*
X023977Y019680D02*
X023383Y019680D01*
X023383Y018680D02*
X023977Y018680D01*
X023977Y017680D02*
X023383Y017680D01*
X023383Y016680D02*
X023977Y016680D01*
X023977Y015680D02*
X023383Y015680D01*
X023383Y014680D02*
X023977Y014680D01*
X023977Y013680D02*
X023383Y013680D01*
X023383Y012680D02*
X023977Y012680D01*
X023977Y011680D02*
X023383Y011680D01*
X023383Y010680D02*
X023977Y010680D01*
X023977Y009680D02*
X023383Y009680D01*
X023383Y008680D02*
X023977Y008680D01*
X023977Y007680D02*
X023383Y007680D01*
X023383Y006680D02*
X023977Y006680D01*
X023977Y005680D02*
X023383Y005680D01*
X023383Y004680D02*
X023977Y004680D01*
X023977Y003680D02*
X023383Y003680D01*
X017977Y003680D02*
X017383Y003680D01*
X017383Y004680D02*
X017977Y004680D01*
X017977Y005680D02*
X017383Y005680D01*
X017383Y006680D02*
X017977Y006680D01*
X017977Y007680D02*
X017383Y007680D01*
X017383Y008680D02*
X017977Y008680D01*
X017977Y009680D02*
X017383Y009680D01*
X017383Y010680D02*
X017977Y010680D01*
X017977Y011680D02*
X017383Y011680D01*
D13*
X010180Y008680D03*
X010180Y019680D03*
D14*
X011180Y021680D03*
X013180Y021680D03*
X013180Y024180D03*
X011180Y024180D03*
X011180Y026680D03*
X013180Y026680D03*
X013180Y029180D03*
X011180Y029180D03*
X011180Y010680D03*
X013180Y010680D03*
D15*
X012680Y010680D01*
X012180Y011180D01*
X010680Y011180D01*
X010180Y010680D01*
X009180Y010680D01*
X007180Y012680D01*
X006680Y013180D02*
X008180Y013180D01*
X009680Y011680D01*
X010180Y011680D01*
X010680Y012180D01*
X011680Y012180D01*
X011680Y012680D02*
X012180Y012680D01*
X012680Y012180D01*
X015180Y012180D01*
X017180Y014180D01*
X019680Y014180D01*
X019180Y014680D02*
X018680Y014680D01*
X019180Y014680D02*
X019680Y015180D01*
X020180Y015180D02*
X021680Y015180D01*
X023180Y013680D01*
X023680Y013680D01*
X024680Y013180D02*
X022680Y013180D01*
X021180Y014680D01*
X020180Y014680D01*
X020180Y013680D01*
X018680Y012180D01*
X016180Y012180D01*
X015680Y011680D01*
X012680Y011680D01*
X012180Y012180D01*
X012180Y011680D02*
X012680Y011180D01*
X015180Y011180D01*
X016180Y011180D02*
X015180Y010180D01*
X015680Y010180D02*
X015680Y009680D01*
X015680Y010180D02*
X016180Y010680D01*
X016680Y010680D01*
X016180Y010180D02*
X019180Y010180D01*
X022180Y013180D01*
X021180Y012680D02*
X020180Y012680D01*
X018180Y010680D01*
X017680Y010680D01*
X018180Y011180D02*
X020680Y013680D01*
X020680Y014180D01*
X021180Y014180D02*
X021180Y012680D01*
X020180Y015180D02*
X019180Y016180D01*
X019180Y017180D01*
X018680Y017180D02*
X019680Y018180D01*
X024180Y018180D01*
X025180Y019180D01*
X025180Y022180D01*
X024680Y022180D01*
X024180Y022680D01*
X023680Y022680D01*
X023680Y021680D02*
X023180Y021680D01*
X022680Y022180D01*
X015680Y022180D01*
X016180Y022680D02*
X016680Y023180D01*
X018680Y023180D01*
X018680Y024180D02*
X020180Y022680D01*
X020680Y022680D02*
X021680Y023680D01*
X023680Y023680D01*
X022680Y021680D02*
X021680Y020680D01*
X022680Y020180D02*
X023180Y019680D01*
X023680Y019680D01*
X024180Y019180D02*
X024680Y019680D01*
X024680Y020180D01*
X024180Y020680D01*
X023680Y020680D01*
X022680Y020180D02*
X016680Y020180D01*
X016180Y020680D01*
X012680Y020680D01*
X011680Y019680D01*
X010180Y019680D01*
X009680Y019180D02*
X011680Y019180D01*
X012680Y020180D01*
X012680Y019180D02*
X016680Y019180D01*
X017180Y019680D01*
X017680Y019680D01*
X017180Y019180D02*
X024180Y019180D01*
X023680Y016680D02*
X022180Y016680D01*
X021680Y016180D01*
X020180Y015680D02*
X023680Y015680D01*
X024680Y013180D02*
X025180Y012680D01*
X025180Y007180D01*
X024680Y007180D01*
X024180Y006680D01*
X023680Y006680D01*
X023680Y007680D02*
X023180Y007680D01*
X022680Y008180D01*
X015680Y008180D01*
X014680Y009180D01*
X003680Y009180D01*
X003180Y009680D02*
X006680Y013180D01*
X006180Y014680D02*
X002680Y014680D01*
X002180Y014180D01*
X001680Y015180D02*
X007680Y015180D01*
X009180Y013680D01*
X008680Y013180D02*
X008180Y013680D01*
X008680Y013180D02*
X012680Y013180D01*
X013180Y013680D01*
X014180Y013680D02*
X013180Y012680D01*
X012180Y011680D02*
X010680Y011680D01*
X010180Y011180D01*
X009680Y011180D01*
X009180Y011680D01*
X008180Y010180D02*
X007680Y010180D01*
X007180Y010680D01*
X006680Y010180D02*
X004180Y010180D01*
X004680Y010680D02*
X006180Y010680D01*
X006680Y011180D01*
X007180Y011680D02*
X009430Y009430D01*
X013930Y009430D01*
X016180Y011680D01*
X017680Y011680D01*
X018180Y011180D02*
X016180Y011180D01*
X015180Y009180D02*
X022680Y009180D01*
X023180Y009680D01*
X023680Y009680D01*
X024180Y009180D02*
X023180Y009180D01*
X022680Y008680D01*
X018680Y008680D01*
X020430Y007680D02*
X019430Y006680D01*
X017680Y006680D01*
X018180Y006180D02*
X018680Y005680D01*
X019180Y005680D01*
X020680Y007180D01*
X022180Y007180D01*
X021180Y005680D02*
X023180Y003680D01*
X023680Y003680D01*
X024680Y002680D02*
X024680Y005180D01*
X024180Y005680D01*
X023680Y005680D01*
X024680Y002680D02*
X023680Y001680D01*
X019680Y001680D01*
X019180Y001180D01*
X014180Y001180D01*
X013680Y000680D01*
X006680Y000680D01*
X006180Y001180D01*
X006680Y001180D02*
X006180Y001680D01*
X004680Y001680D01*
X003680Y002680D01*
X004680Y002180D02*
X010680Y002180D01*
X011180Y002680D01*
X013180Y002680D01*
X012680Y002180D02*
X017680Y002180D01*
X019680Y004180D01*
X020180Y004180D01*
X019680Y003680D02*
X018180Y002180D01*
X018180Y003180D02*
X019680Y004680D01*
X018680Y005180D02*
X020680Y005180D01*
X020680Y002680D01*
X019680Y002180D02*
X023680Y002180D01*
X023180Y001180D02*
X019680Y001180D01*
X019180Y001680D02*
X019680Y002180D01*
X019180Y001680D02*
X014180Y001680D01*
X013680Y001180D01*
X012180Y001180D01*
X011680Y001180D02*
X012680Y002180D01*
X012680Y003180D02*
X013180Y003680D01*
X014180Y004680D01*
X016180Y004680D01*
X016180Y006180D01*
X015680Y006680D01*
X015680Y007680D01*
X015680Y006180D02*
X011680Y006180D01*
X011180Y005680D01*
X011180Y006680D02*
X012180Y006680D01*
X012180Y007180D02*
X010680Y007180D01*
X010180Y006680D01*
X009680Y007180D02*
X005180Y007180D01*
X002680Y009680D01*
X002680Y010180D01*
X001180Y011680D01*
X001180Y010680D02*
X006180Y005680D01*
X006180Y005180D02*
X015680Y005180D01*
X015180Y004180D02*
X016680Y004180D01*
X017180Y004680D01*
X017680Y004680D01*
X017680Y005680D02*
X018180Y005680D01*
X018680Y005180D01*
X018180Y006180D02*
X016680Y006180D01*
X014680Y004180D02*
X015680Y003180D01*
X018180Y003180D01*
X014180Y006680D02*
X013680Y007180D01*
X012680Y007180D01*
X011680Y008180D01*
X006180Y008180D01*
X005680Y008680D01*
X004180Y007180D02*
X006180Y005180D01*
X006180Y004680D02*
X002680Y008180D01*
X002680Y007680D02*
X002180Y007680D01*
X001180Y006680D01*
X001180Y007680D02*
X002180Y008680D01*
X002680Y008680D01*
X003680Y007680D01*
X004680Y005680D02*
X004180Y005180D01*
X001680Y005180D01*
X001180Y004680D01*
X001680Y004180D02*
X004180Y004180D01*
X006680Y006180D02*
X009680Y006180D01*
X010180Y005680D01*
X010180Y004680D02*
X010680Y004180D01*
X012680Y004180D01*
X012680Y003180D02*
X001680Y003180D01*
X001180Y003680D01*
X006680Y001180D02*
X011680Y001180D01*
X009180Y003680D02*
X009180Y004180D01*
X008680Y004680D01*
X008180Y003680D02*
X009180Y003680D01*
X012180Y008180D02*
X013680Y008180D01*
X014180Y008680D01*
X013680Y010180D02*
X011680Y010180D01*
X009180Y008680D02*
X008180Y008680D01*
X004680Y011680D02*
X004180Y011680D01*
X001180Y014680D01*
X001180Y013680D02*
X003680Y011180D01*
X001180Y015680D02*
X001680Y016180D01*
X010680Y016180D01*
X012180Y014680D01*
X012180Y015180D02*
X014180Y015180D01*
X016180Y017180D01*
X016680Y017180D01*
X017180Y017180D02*
X016680Y016680D01*
X016180Y016680D01*
X015180Y015680D01*
X015680Y015680D02*
X016180Y016180D01*
X019180Y016180D01*
X018680Y017180D02*
X017180Y017180D01*
X016680Y018180D02*
X019180Y018180D01*
X019680Y018680D01*
X018680Y021180D02*
X017180Y021180D01*
X016680Y021680D01*
X014180Y021680D01*
X013180Y022680D02*
X016180Y022680D01*
X015180Y023180D02*
X011680Y023180D01*
X010680Y022180D01*
X010180Y021180D02*
X010180Y025180D01*
X015680Y025180D01*
X017180Y023680D01*
X017680Y023680D01*
X016680Y021180D02*
X017180Y020680D01*
X017680Y020680D01*
X016680Y021180D02*
X012680Y021180D01*
X012680Y022180D02*
X013180Y022680D01*
X011180Y020680D02*
X010180Y020680D01*
X009180Y019680D01*
X008680Y019680D01*
X008180Y019180D01*
X003180Y019180D01*
X002680Y018680D01*
X002680Y018180D02*
X007680Y018180D01*
X008680Y019180D01*
X009180Y020180D02*
X010180Y021180D01*
X009180Y020180D02*
X006180Y020180D01*
X005680Y019680D01*
X003180Y016680D02*
X002180Y016680D01*
X001180Y017680D01*
X001180Y018680D02*
X002680Y017180D01*
X008680Y017180D01*
X009180Y017180D02*
X008680Y016680D01*
X009180Y017180D02*
X010680Y017180D01*
X011680Y016180D01*
X014680Y016180D01*
X016680Y018180D01*
X016680Y018680D02*
X017180Y019180D01*
X016680Y018680D02*
X013180Y018680D01*
X012680Y018180D02*
X016180Y018180D01*
X015680Y019680D02*
X015180Y020180D01*
X014180Y017680D02*
X013180Y016680D01*
X012680Y017180D02*
X012180Y017180D01*
X011680Y016680D01*
X011680Y017180D02*
X012680Y018180D01*
X012180Y018680D02*
X012680Y019180D01*
X012180Y018680D02*
X010180Y018680D01*
X009680Y019180D02*
X008680Y018180D01*
X009180Y015680D02*
X009680Y015180D01*
X011180Y015180D01*
X011680Y014680D01*
X012180Y015180D02*
X011180Y016180D01*
X010680Y014180D02*
X015680Y014180D01*
X017180Y015680D01*
X017680Y015680D01*
X017680Y014680D02*
X017180Y014680D01*
X016180Y013680D01*
X014180Y013680D01*
X010680Y014180D02*
X010180Y013680D01*
X002680Y018180D02*
X001180Y019680D01*
X011180Y029180D02*
X012680Y027680D01*
X018180Y027680D01*
X019180Y026680D01*
X023680Y010680D02*
X024180Y010680D01*
X024680Y010180D01*
X024680Y009680D01*
X024180Y009180D01*
D16*
X022180Y007180D03*
X021180Y005680D03*
X020180Y004180D03*
X019680Y003680D03*
X020680Y002680D03*
X019680Y001180D03*
X018180Y002180D03*
X019680Y004680D03*
X020430Y007680D03*
X018680Y008680D03*
X016680Y010680D03*
X016180Y010180D03*
X015680Y009680D03*
X015180Y009180D03*
X015180Y010180D03*
X015180Y011180D03*
X013680Y010180D03*
X014180Y008680D03*
X015680Y007680D03*
X015680Y006180D03*
X015680Y005180D03*
X015180Y004180D03*
X014680Y004180D03*
X012680Y004180D03*
X011180Y005680D03*
X011180Y006680D03*
X012180Y006680D03*
X012180Y007180D03*
X012180Y008180D03*
X011680Y010180D03*
X011680Y012180D03*
X011680Y012680D03*
X012180Y012180D03*
X012180Y014680D03*
X011680Y014680D03*
X011180Y016180D03*
X011680Y016680D03*
X011680Y017180D03*
X012680Y017180D03*
X014180Y017680D03*
X015680Y019680D03*
X015180Y020180D03*
X014180Y021680D03*
X012680Y021180D03*
X012680Y020180D03*
X011180Y020680D03*
X010680Y022180D03*
X012680Y022180D03*
X015180Y023180D03*
X015680Y022180D03*
X018680Y021180D03*
X020180Y022680D03*
X020680Y022680D03*
X021680Y020680D03*
X022680Y021680D03*
X019680Y018680D03*
X019180Y017180D03*
X020180Y015680D03*
X019680Y015180D03*
X019680Y014180D03*
X020680Y014180D03*
X021180Y014180D03*
X022180Y013180D03*
X021680Y016180D03*
X018680Y014680D03*
X016680Y017180D03*
X016180Y018180D03*
X015680Y015680D03*
X015180Y015680D03*
X009180Y015680D03*
X008680Y016680D03*
X008680Y017180D03*
X008680Y018180D03*
X008680Y019180D03*
X005680Y019680D03*
X003180Y016680D03*
X002680Y018680D03*
X001680Y015180D03*
X002180Y014180D03*
X003680Y011180D03*
X004180Y010180D03*
X004680Y010680D03*
X004680Y011680D03*
X003180Y009680D03*
X003680Y009180D03*
X002680Y008180D03*
X002680Y007680D03*
X003680Y007680D03*
X004180Y007180D03*
X004680Y005680D03*
X006180Y005680D03*
X006680Y006180D03*
X006180Y004680D03*
X008180Y003680D03*
X008680Y004680D03*
X009680Y007180D03*
X009180Y008680D03*
X008180Y008680D03*
X008180Y010180D03*
X009180Y011680D03*
X009180Y013680D03*
X008180Y013680D03*
X006180Y014680D03*
X006680Y011180D03*
X006680Y010180D03*
X005680Y008680D03*
X003680Y002680D03*
X004680Y002180D03*
X006180Y001180D03*
X012180Y001180D03*
X016680Y006180D03*
X014180Y006680D03*
X023180Y001180D03*
X023680Y002180D03*
X018680Y023180D03*
X018680Y024180D03*
X019180Y026680D03*
D17*
X021430Y026930D03*
X024180Y029180D03*
X015180Y029180D03*
X015180Y026180D03*
X015180Y024180D03*
X019430Y013430D03*
X019930Y009930D03*
X016430Y012680D03*
X015430Y013180D03*
X014180Y012680D03*
X014180Y010680D03*
X008680Y010680D03*
X005680Y011680D03*
X005680Y013180D03*
X004680Y013430D03*
X003680Y013680D03*
X003930Y017680D03*
X002180Y019930D03*
X002430Y006180D03*
X003430Y004680D03*
X004180Y004180D03*
X005930Y003680D03*
X008430Y001680D03*
X011180Y001680D03*
X014430Y002930D03*
X022180Y003180D03*
X022430Y005430D03*
X024180Y001180D03*
X024680Y011180D03*
X002680Y002680D03*
X002680Y001680D03*
X001680Y004180D03*
D18*
X001823Y004509D02*
X004037Y004509D01*
X003977Y004484D02*
X003884Y004390D01*
X001976Y004390D01*
X001883Y004484D01*
X001751Y004538D01*
X001609Y004538D01*
X001591Y004531D01*
X001617Y004593D01*
X001617Y004767D01*
X001602Y004805D01*
X001767Y004970D01*
X004267Y004970D01*
X004390Y005093D01*
X004617Y005320D01*
X004752Y005320D01*
X004884Y005375D01*
X004985Y005476D01*
X005015Y005548D01*
X005820Y004743D01*
X005820Y004608D01*
X005875Y004476D01*
X005976Y004375D01*
X006108Y004320D01*
X006252Y004320D01*
X006384Y004375D01*
X006485Y004476D01*
X006540Y004608D01*
X006540Y004752D01*
X006485Y004884D01*
X006399Y004970D01*
X006852Y004970D01*
X006809Y004928D01*
X006743Y004767D01*
X006743Y004593D01*
X006809Y004432D01*
X006932Y004309D01*
X007093Y004243D01*
X007267Y004243D01*
X007428Y004309D01*
X007551Y004432D01*
X007617Y004593D01*
X007617Y004767D01*
X007551Y004928D01*
X007508Y004970D01*
X008461Y004970D01*
X008375Y004884D01*
X008320Y004752D01*
X008320Y004608D01*
X008375Y004476D01*
X008476Y004375D01*
X008608Y004320D01*
X008743Y004320D01*
X008970Y004093D01*
X008970Y003890D01*
X008479Y003890D01*
X008384Y003985D01*
X008252Y004040D01*
X008108Y004040D01*
X007976Y003985D01*
X007875Y003884D01*
X007820Y003752D01*
X007820Y003608D01*
X007875Y003476D01*
X007961Y003390D01*
X007508Y003390D01*
X007551Y003432D01*
X007617Y003593D01*
X007617Y003767D01*
X007551Y003928D01*
X007428Y004051D01*
X007267Y004117D01*
X007093Y004117D01*
X006932Y004051D01*
X006809Y003928D01*
X006743Y003767D01*
X006743Y003593D01*
X006809Y003432D01*
X006852Y003390D01*
X001767Y003390D01*
X001602Y003555D01*
X001617Y003593D01*
X001617Y003767D01*
X001591Y003829D01*
X001609Y003822D01*
X001751Y003822D01*
X001883Y003876D01*
X001976Y003970D01*
X003884Y003970D01*
X003977Y003876D01*
X004109Y003822D01*
X004251Y003822D01*
X004383Y003876D01*
X004484Y003977D01*
X004538Y004109D01*
X004538Y004251D01*
X004484Y004383D01*
X004383Y004484D01*
X004251Y004538D01*
X004109Y004538D01*
X003977Y004484D01*
X004323Y004509D02*
X005861Y004509D01*
X005820Y004667D02*
X001617Y004667D01*
X001622Y004826D02*
X005738Y004826D01*
X005579Y004984D02*
X004281Y004984D01*
X004439Y005143D02*
X005421Y005143D01*
X005262Y005301D02*
X004598Y005301D01*
X004320Y005617D02*
X004093Y005390D01*
X001593Y005390D01*
X001305Y005102D01*
X001267Y005117D01*
X001093Y005117D01*
X000932Y005051D01*
X000809Y004928D01*
X000743Y004767D01*
X000743Y004593D01*
X000809Y004432D01*
X000932Y004309D01*
X001093Y004243D01*
X001267Y004243D01*
X001329Y004269D01*
X001322Y004251D01*
X001322Y004109D01*
X001329Y004091D01*
X001267Y004117D01*
X001093Y004117D01*
X000932Y004051D01*
X000809Y003928D01*
X000743Y003767D01*
X000743Y003593D01*
X000809Y003432D01*
X000932Y003309D01*
X001093Y003243D01*
X001267Y003243D01*
X001305Y003258D01*
X001470Y003093D01*
X001593Y002970D01*
X003461Y002970D01*
X003375Y002884D01*
X003320Y002752D01*
X003320Y002608D01*
X003375Y002476D01*
X003476Y002375D01*
X003608Y002320D01*
X003743Y002320D01*
X004470Y001593D01*
X004593Y001470D01*
X005961Y001470D01*
X005875Y001384D01*
X005820Y001252D01*
X005820Y001108D01*
X005875Y000976D01*
X005976Y000875D01*
X006108Y000820D01*
X006243Y000820D01*
X006403Y000660D01*
X000660Y000660D01*
X000660Y020700D01*
X000743Y020700D01*
X000743Y020593D01*
X000809Y020432D01*
X000932Y020309D01*
X001093Y020243D01*
X001267Y020243D01*
X001428Y020309D01*
X001551Y020432D01*
X001617Y020593D01*
X001617Y020700D01*
X006743Y020700D01*
X006743Y020593D01*
X006809Y020432D01*
X006852Y020390D01*
X006093Y020390D01*
X005970Y020267D01*
X005743Y020040D01*
X005608Y020040D01*
X005476Y019985D01*
X005375Y019884D01*
X005320Y019752D01*
X005320Y019608D01*
X005375Y019476D01*
X005461Y019390D01*
X003093Y019390D01*
X002970Y019267D01*
X002743Y019040D01*
X002608Y019040D01*
X002476Y018985D01*
X002375Y018884D01*
X002345Y018812D01*
X001602Y019555D01*
X001617Y019593D01*
X001617Y019767D01*
X001551Y019928D01*
X001428Y020051D01*
X001267Y020117D01*
X001093Y020117D01*
X000932Y020051D01*
X000809Y019928D01*
X000743Y019767D01*
X000743Y019593D01*
X000809Y019432D01*
X000932Y019309D01*
X001093Y019243D01*
X001267Y019243D01*
X001305Y019258D01*
X002470Y018093D01*
X002593Y017970D01*
X006852Y017970D01*
X006809Y017928D01*
X006743Y017767D01*
X006743Y017593D01*
X006809Y017432D01*
X006852Y017390D01*
X002767Y017390D01*
X001602Y018555D01*
X001617Y018593D01*
X001617Y018767D01*
X001551Y018928D01*
X001428Y019051D01*
X001267Y019117D01*
X001093Y019117D01*
X000932Y019051D01*
X000809Y018928D01*
X000743Y018767D01*
X000743Y018593D01*
X000809Y018432D01*
X000932Y018309D01*
X001093Y018243D01*
X001267Y018243D01*
X001305Y018258D01*
X002470Y017093D01*
X002593Y016970D01*
X002961Y016970D01*
X002881Y016890D01*
X002267Y016890D01*
X001602Y017555D01*
X001617Y017593D01*
X001617Y017767D01*
X001551Y017928D01*
X001428Y018051D01*
X001267Y018117D01*
X001093Y018117D01*
X000932Y018051D01*
X000809Y017928D01*
X000743Y017767D01*
X000743Y017593D01*
X000809Y017432D01*
X000932Y017309D01*
X001093Y017243D01*
X001267Y017243D01*
X001305Y017258D01*
X001970Y016593D01*
X002093Y016470D01*
X002881Y016470D01*
X002961Y016390D01*
X001593Y016390D01*
X001470Y016267D01*
X001305Y016102D01*
X001267Y016117D01*
X001093Y016117D01*
X000932Y016051D01*
X000809Y015928D01*
X000743Y015767D01*
X000743Y015593D01*
X000809Y015432D01*
X000932Y015309D01*
X001093Y015243D01*
X001267Y015243D01*
X001327Y015268D01*
X001320Y015252D01*
X001320Y015108D01*
X001327Y015092D01*
X001267Y015117D01*
X001093Y015117D01*
X000932Y015051D01*
X000809Y014928D01*
X000743Y014767D01*
X000743Y014593D01*
X000809Y014432D01*
X000932Y014309D01*
X001093Y014243D01*
X001267Y014243D01*
X001305Y014258D01*
X004093Y011470D01*
X004381Y011470D01*
X004476Y011375D01*
X004548Y011345D01*
X003243Y010040D01*
X003108Y010040D01*
X002976Y009985D01*
X002890Y009899D01*
X002890Y010267D01*
X001602Y011555D01*
X001617Y011593D01*
X001617Y011767D01*
X001551Y011928D01*
X001428Y012051D01*
X001267Y012117D01*
X001093Y012117D01*
X000932Y012051D01*
X000809Y011928D01*
X000743Y011767D01*
X000743Y011593D01*
X000809Y011432D01*
X000932Y011309D01*
X001093Y011243D01*
X001267Y011243D01*
X001305Y011258D01*
X002470Y010093D01*
X002470Y009687D01*
X001602Y010555D01*
X001617Y010593D01*
X001617Y010767D01*
X001551Y010928D01*
X001428Y011051D01*
X001267Y011117D01*
X001093Y011117D01*
X000932Y011051D01*
X000809Y010928D01*
X000743Y010767D01*
X000743Y010593D01*
X000809Y010432D01*
X000932Y010309D01*
X001093Y010243D01*
X001267Y010243D01*
X001305Y010258D01*
X002673Y008890D01*
X002093Y008890D01*
X001970Y008767D01*
X001305Y008102D01*
X001267Y008117D01*
X001093Y008117D01*
X000932Y008051D01*
X000809Y007928D01*
X000743Y007767D01*
X000743Y007593D01*
X000809Y007432D01*
X000932Y007309D01*
X001093Y007243D01*
X001267Y007243D01*
X001428Y007309D01*
X001551Y007432D01*
X001617Y007593D01*
X001617Y007767D01*
X001602Y007805D01*
X002267Y008470D01*
X002461Y008470D01*
X002375Y008384D01*
X002320Y008252D01*
X002320Y008108D01*
X002375Y007976D01*
X002421Y007930D01*
X002381Y007890D01*
X002093Y007890D01*
X001970Y007767D01*
X001305Y007102D01*
X001267Y007117D01*
X001093Y007117D01*
X000932Y007051D01*
X000809Y006928D01*
X000743Y006767D01*
X000743Y006593D01*
X000809Y006432D01*
X000932Y006309D01*
X001093Y006243D01*
X001267Y006243D01*
X001428Y006309D01*
X001551Y006432D01*
X001617Y006593D01*
X001617Y006767D01*
X001602Y006805D01*
X002267Y007470D01*
X002381Y007470D01*
X002476Y007375D01*
X002608Y007320D01*
X002752Y007320D01*
X002884Y007375D01*
X002985Y007476D01*
X003015Y007548D01*
X004548Y006015D01*
X004476Y005985D01*
X004375Y005884D01*
X004320Y005752D01*
X004320Y005617D01*
X004320Y005618D02*
X001617Y005618D01*
X001617Y005593D02*
X001551Y005432D01*
X001428Y005309D01*
X001267Y005243D01*
X001093Y005243D01*
X000932Y005309D01*
X000809Y005432D01*
X000743Y005593D01*
X000743Y005767D01*
X000809Y005928D01*
X000932Y006051D01*
X001093Y006117D01*
X001267Y006117D01*
X001428Y006051D01*
X001551Y005928D01*
X001617Y005767D01*
X001617Y005593D01*
X001562Y005460D02*
X004163Y005460D01*
X004330Y005777D02*
X001613Y005777D01*
X001543Y005935D02*
X004426Y005935D01*
X004470Y006094D02*
X001324Y006094D01*
X001289Y006252D02*
X004311Y006252D01*
X004153Y006411D02*
X001529Y006411D01*
X001607Y006569D02*
X003994Y006569D01*
X003836Y006728D02*
X001617Y006728D01*
X001683Y006886D02*
X003677Y006886D01*
X003519Y007045D02*
X001841Y007045D01*
X002000Y007203D02*
X003360Y007203D01*
X003202Y007362D02*
X002852Y007362D01*
X003003Y007520D02*
X003043Y007520D01*
X002508Y007362D02*
X002158Y007362D01*
X001882Y007679D02*
X001617Y007679D01*
X001634Y007837D02*
X002040Y007837D01*
X001792Y007996D02*
X002367Y007996D01*
X002320Y008154D02*
X001951Y008154D01*
X002109Y008313D02*
X002345Y008313D01*
X001991Y008788D02*
X001608Y008788D01*
X001617Y008767D02*
X001551Y008928D01*
X001428Y009051D01*
X001267Y009117D01*
X001093Y009117D01*
X000932Y009051D01*
X000809Y008928D01*
X000743Y008767D01*
X000743Y008593D01*
X000809Y008432D01*
X000932Y008309D01*
X001093Y008243D01*
X001267Y008243D01*
X001428Y008309D01*
X001551Y008432D01*
X001617Y008593D01*
X001617Y008767D01*
X001617Y008630D02*
X001833Y008630D01*
X001674Y008471D02*
X001567Y008471D01*
X001516Y008313D02*
X001431Y008313D01*
X001357Y008154D02*
X000660Y008154D01*
X000660Y007996D02*
X000877Y007996D01*
X000772Y007837D02*
X000660Y007837D01*
X000660Y007679D02*
X000743Y007679D01*
X000773Y007520D02*
X000660Y007520D01*
X000660Y007362D02*
X000880Y007362D01*
X000660Y007203D02*
X001406Y007203D01*
X001480Y007362D02*
X001565Y007362D01*
X001587Y007520D02*
X001723Y007520D01*
X000926Y007045D02*
X000660Y007045D01*
X000660Y006886D02*
X000792Y006886D01*
X000743Y006728D02*
X000660Y006728D01*
X000660Y006569D02*
X000753Y006569D01*
X000831Y006411D02*
X000660Y006411D01*
X000660Y006252D02*
X001071Y006252D01*
X001036Y006094D02*
X000660Y006094D01*
X000660Y005935D02*
X000817Y005935D01*
X000747Y005777D02*
X000660Y005777D01*
X000660Y005618D02*
X000743Y005618D01*
X000798Y005460D02*
X000660Y005460D01*
X000660Y005301D02*
X000953Y005301D01*
X000866Y004984D02*
X000660Y004984D01*
X000660Y004826D02*
X000767Y004826D01*
X000743Y004667D02*
X000660Y004667D01*
X000660Y004509D02*
X000778Y004509D01*
X000892Y004350D02*
X000660Y004350D01*
X000660Y004192D02*
X001322Y004192D01*
X001617Y003716D02*
X006743Y003716D01*
X006758Y003558D02*
X001602Y003558D01*
X001758Y003399D02*
X006843Y003399D01*
X006787Y003875D02*
X004378Y003875D01*
X004507Y004033D02*
X006915Y004033D01*
X006892Y004350D02*
X006324Y004350D01*
X006499Y004509D02*
X006778Y004509D01*
X006743Y004667D02*
X006540Y004667D01*
X006509Y004826D02*
X006767Y004826D01*
X007468Y004350D02*
X008536Y004350D01*
X008361Y004509D02*
X007582Y004509D01*
X007617Y004667D02*
X008320Y004667D01*
X008351Y004826D02*
X007593Y004826D01*
X007445Y004033D02*
X008092Y004033D01*
X008268Y004033D02*
X008970Y004033D01*
X008872Y004192D02*
X004538Y004192D01*
X004497Y004350D02*
X006036Y004350D01*
X005104Y005460D02*
X004969Y005460D01*
X003982Y003875D02*
X001878Y003875D01*
X001323Y003241D02*
X000660Y003241D01*
X000660Y003399D02*
X000843Y003399D01*
X000758Y003558D02*
X000660Y003558D01*
X000660Y003716D02*
X000743Y003716D01*
X000787Y003875D02*
X000660Y003875D01*
X000660Y004033D02*
X000915Y004033D01*
X001093Y003117D02*
X000932Y003051D01*
X000809Y002928D01*
X000743Y002767D01*
X000743Y002593D01*
X000809Y002432D01*
X000932Y002309D01*
X001093Y002243D01*
X001267Y002243D01*
X001428Y002309D01*
X001551Y002432D01*
X001617Y002593D01*
X001617Y002767D01*
X001551Y002928D01*
X001428Y003051D01*
X001267Y003117D01*
X001093Y003117D01*
X001008Y003082D02*
X000660Y003082D01*
X000660Y002924D02*
X000808Y002924D01*
X000743Y002765D02*
X000660Y002765D01*
X000660Y002607D02*
X000743Y002607D01*
X000803Y002448D02*
X000660Y002448D01*
X000660Y002290D02*
X000980Y002290D01*
X001005Y002104D02*
X000940Y002071D01*
X000882Y002029D01*
X000831Y001978D01*
X000789Y001920D01*
X000756Y001855D01*
X000734Y001787D01*
X000723Y001716D01*
X000723Y001689D01*
X001171Y001689D01*
X001171Y002137D01*
X001144Y002137D01*
X001073Y002126D01*
X001005Y002104D01*
X001105Y002131D02*
X000660Y002131D01*
X000660Y001973D02*
X000827Y001973D01*
X000743Y001814D02*
X000660Y001814D01*
X000723Y001671D02*
X000723Y001644D01*
X000734Y001573D01*
X000756Y001505D01*
X000789Y001440D01*
X000831Y001382D01*
X000882Y001331D01*
X000940Y001289D01*
X001005Y001256D01*
X001073Y001234D01*
X001144Y001223D01*
X001171Y001223D01*
X001171Y001671D01*
X001189Y001671D01*
X001189Y001689D01*
X001637Y001689D01*
X001637Y001716D01*
X001626Y001787D01*
X001604Y001855D01*
X001571Y001920D01*
X001529Y001978D01*
X001478Y002029D01*
X001420Y002071D01*
X001355Y002104D01*
X001287Y002126D01*
X001216Y002137D01*
X001189Y002137D01*
X001189Y001689D01*
X001171Y001689D01*
X001171Y001671D01*
X000723Y001671D01*
X000723Y001656D02*
X000660Y001656D01*
X000660Y001497D02*
X000760Y001497D01*
X000660Y001339D02*
X000875Y001339D01*
X000660Y001180D02*
X005820Y001180D01*
X005856Y001021D02*
X000660Y001021D01*
X000660Y000863D02*
X006005Y000863D01*
X006359Y000704D02*
X000660Y000704D01*
X001189Y001223D02*
X001216Y001223D01*
X001287Y001234D01*
X001355Y001256D01*
X001420Y001289D01*
X001478Y001331D01*
X001529Y001382D01*
X001571Y001440D01*
X001604Y001505D01*
X001626Y001573D01*
X001637Y001644D01*
X001637Y001671D01*
X001189Y001671D01*
X001189Y001223D01*
X001189Y001339D02*
X001171Y001339D01*
X001171Y001497D02*
X001189Y001497D01*
X001189Y001656D02*
X001171Y001656D01*
X001171Y001814D02*
X001189Y001814D01*
X001189Y001973D02*
X001171Y001973D01*
X001171Y002131D02*
X001189Y002131D01*
X001255Y002131D02*
X003932Y002131D01*
X003774Y002290D02*
X001380Y002290D01*
X001557Y002448D02*
X003403Y002448D01*
X003321Y002607D02*
X001617Y002607D01*
X001617Y002765D02*
X003326Y002765D01*
X003414Y002924D02*
X001552Y002924D01*
X001481Y003082D02*
X001352Y003082D01*
X001533Y001973D02*
X004091Y001973D01*
X004249Y001814D02*
X001617Y001814D01*
X001637Y001656D02*
X004408Y001656D01*
X004566Y001497D02*
X001600Y001497D01*
X001485Y001339D02*
X005856Y001339D01*
X007508Y001390D02*
X007551Y001432D01*
X007617Y001593D01*
X007617Y001767D01*
X007551Y001928D01*
X007508Y001970D01*
X009826Y001970D01*
X009789Y001920D01*
X009756Y001855D01*
X009734Y001787D01*
X009723Y001716D01*
X009723Y001689D01*
X010171Y001689D01*
X010171Y001671D01*
X009723Y001671D01*
X009723Y001644D01*
X009734Y001573D01*
X009756Y001505D01*
X009789Y001440D01*
X009826Y001390D01*
X007508Y001390D01*
X007577Y001497D02*
X009760Y001497D01*
X009723Y001656D02*
X007617Y001656D01*
X007598Y001814D02*
X009743Y001814D01*
X010189Y001689D02*
X010637Y001689D01*
X010637Y001716D01*
X010626Y001787D01*
X010604Y001855D01*
X010571Y001920D01*
X010534Y001970D01*
X010767Y001970D01*
X010890Y002093D01*
X011267Y002470D01*
X012794Y002470D01*
X012809Y002432D01*
X012852Y002390D01*
X012593Y002390D01*
X012470Y002267D01*
X011593Y001390D01*
X011396Y001390D01*
X011484Y001477D01*
X011538Y001609D01*
X011538Y001751D01*
X011484Y001883D01*
X011383Y001984D01*
X011251Y002038D01*
X011109Y002038D01*
X010977Y001984D01*
X010876Y001883D01*
X010822Y001751D01*
X010822Y001609D01*
X010876Y001477D01*
X010964Y001390D01*
X010534Y001390D01*
X010571Y001440D01*
X010604Y001505D01*
X010626Y001573D01*
X010637Y001644D01*
X010637Y001671D01*
X010189Y001671D01*
X010189Y001689D01*
X010600Y001497D02*
X010868Y001497D01*
X010822Y001656D02*
X010637Y001656D01*
X010617Y001814D02*
X010848Y001814D01*
X010769Y001973D02*
X010966Y001973D01*
X010928Y002131D02*
X012334Y002131D01*
X012176Y001973D02*
X011394Y001973D01*
X011512Y001814D02*
X012017Y001814D01*
X011859Y001656D02*
X011538Y001656D01*
X011492Y001497D02*
X011700Y001497D01*
X011086Y002290D02*
X012493Y002290D01*
X012803Y002448D02*
X011245Y002448D01*
X010968Y002765D02*
X010617Y002765D01*
X010617Y002767D02*
X010551Y002928D01*
X010508Y002970D01*
X012767Y002970D01*
X013055Y003258D01*
X013093Y003243D01*
X013267Y003243D01*
X013428Y003309D01*
X013551Y003432D01*
X013617Y003593D01*
X013617Y003767D01*
X013602Y003805D01*
X014267Y004470D01*
X014461Y004470D01*
X014375Y004384D01*
X014320Y004252D01*
X014320Y004108D01*
X014375Y003976D01*
X014476Y003875D01*
X014608Y003820D01*
X014743Y003820D01*
X015470Y003093D01*
X015593Y002970D01*
X018173Y002970D01*
X017593Y002390D01*
X013508Y002390D01*
X013551Y002432D01*
X013617Y002593D01*
X013617Y002767D01*
X013551Y002928D01*
X013428Y003051D01*
X013267Y003117D01*
X013093Y003117D01*
X012932Y003051D01*
X012809Y002928D01*
X012794Y002890D01*
X011093Y002890D01*
X010593Y002390D01*
X010508Y002390D01*
X010551Y002432D01*
X010617Y002593D01*
X010617Y002767D01*
X010617Y002607D02*
X010810Y002607D01*
X010651Y002448D02*
X010557Y002448D01*
X010552Y002924D02*
X012808Y002924D01*
X012879Y003082D02*
X013008Y003082D01*
X013037Y003241D02*
X015323Y003241D01*
X015164Y003399D02*
X013517Y003399D01*
X013602Y003558D02*
X015006Y003558D01*
X014847Y003716D02*
X013617Y003716D01*
X013671Y003875D02*
X014477Y003875D01*
X014351Y004033D02*
X013830Y004033D01*
X013988Y004192D02*
X014320Y004192D01*
X014361Y004350D02*
X014147Y004350D01*
X013352Y003082D02*
X015481Y003082D01*
X014267Y000970D02*
X019267Y000970D01*
X019345Y001048D01*
X019375Y000976D01*
X019476Y000875D01*
X019608Y000820D01*
X019752Y000820D01*
X019884Y000875D01*
X019979Y000970D01*
X022881Y000970D01*
X022976Y000875D01*
X023108Y000820D01*
X023252Y000820D01*
X023384Y000875D01*
X023485Y000976D01*
X023540Y001108D01*
X023540Y001252D01*
X023485Y001384D01*
X023399Y001470D01*
X023767Y001470D01*
X024767Y002470D01*
X024890Y002593D01*
X024890Y005267D01*
X024767Y005390D01*
X024767Y005390D01*
X024434Y005723D01*
X024434Y005771D01*
X024364Y005939D01*
X024236Y006067D01*
X024068Y006137D01*
X023292Y006137D01*
X023124Y006067D01*
X022996Y005939D01*
X022926Y005771D01*
X022926Y005589D01*
X022996Y005421D01*
X023124Y005293D01*
X023292Y005223D01*
X024068Y005223D01*
X024236Y005293D01*
X024253Y005310D01*
X024470Y005093D01*
X024470Y002767D01*
X024015Y002312D01*
X023985Y002384D01*
X023884Y002485D01*
X023752Y002540D01*
X023608Y002540D01*
X023476Y002485D01*
X023381Y002390D01*
X020899Y002390D01*
X020985Y002476D01*
X021040Y002608D01*
X021040Y002752D01*
X020985Y002884D01*
X020890Y002979D01*
X020890Y005267D01*
X020767Y005390D01*
X018767Y005390D01*
X018687Y005470D01*
X019267Y005470D01*
X020767Y006970D01*
X021881Y006970D01*
X021976Y006875D01*
X022108Y006820D01*
X022252Y006820D01*
X022384Y006875D01*
X022485Y006976D01*
X022540Y007108D01*
X022540Y007252D01*
X022485Y007384D01*
X022384Y007485D01*
X022252Y007540D01*
X022108Y007540D01*
X021976Y007485D01*
X021881Y007390D01*
X020649Y007390D01*
X020735Y007476D01*
X020790Y007608D01*
X020790Y007752D01*
X020735Y007884D01*
X020649Y007970D01*
X022593Y007970D01*
X022926Y007637D01*
X022926Y007589D01*
X022996Y007421D01*
X023124Y007293D01*
X023292Y007223D01*
X024068Y007223D01*
X024236Y007293D01*
X024364Y007421D01*
X024434Y007589D01*
X024434Y007771D01*
X024364Y007939D01*
X024236Y008067D01*
X024068Y008137D01*
X023292Y008137D01*
X023124Y008067D01*
X023107Y008050D01*
X022767Y008390D01*
X018899Y008390D01*
X018979Y008470D01*
X022767Y008470D01*
X022926Y008629D01*
X022926Y008589D01*
X022996Y008421D01*
X023124Y008293D01*
X023292Y008223D01*
X024068Y008223D01*
X024236Y008293D01*
X024364Y008421D01*
X024434Y008589D01*
X024434Y008771D01*
X024364Y008939D01*
X024300Y009003D01*
X024767Y009470D01*
X024890Y009593D01*
X024890Y010267D01*
X024434Y010723D01*
X024434Y010771D01*
X024364Y010939D01*
X024236Y011067D01*
X024068Y011137D01*
X023292Y011137D01*
X023124Y011067D01*
X022996Y010939D01*
X022926Y010771D01*
X022926Y010589D01*
X022996Y010421D01*
X023124Y010293D01*
X023292Y010223D01*
X024068Y010223D01*
X024236Y010293D01*
X024253Y010310D01*
X024470Y010093D01*
X024470Y009767D01*
X024434Y009731D01*
X024434Y009771D01*
X024364Y009939D01*
X024236Y010067D01*
X024068Y010137D01*
X023292Y010137D01*
X023124Y010067D01*
X022996Y009939D01*
X022926Y009771D01*
X022926Y009723D01*
X022593Y009390D01*
X018333Y009390D01*
X018364Y009421D01*
X018434Y009589D01*
X018434Y009771D01*
X018364Y009939D01*
X018333Y009970D01*
X019267Y009970D01*
X022117Y012820D01*
X022252Y012820D01*
X022384Y012875D01*
X022485Y012976D01*
X022515Y013048D01*
X022593Y012970D01*
X023004Y012970D01*
X022975Y012930D01*
X022941Y012863D01*
X022918Y012792D01*
X022906Y012718D01*
X022906Y012698D01*
X023662Y012698D01*
X023662Y012662D01*
X023698Y012662D01*
X023698Y012698D01*
X024454Y012698D01*
X024454Y012718D01*
X024442Y012792D01*
X024419Y012863D01*
X024385Y012930D01*
X024356Y012970D01*
X024593Y012970D01*
X024970Y012593D01*
X024970Y007390D01*
X024593Y007390D01*
X024253Y007050D01*
X024236Y007067D01*
X024068Y007137D01*
X023292Y007137D01*
X023124Y007067D01*
X022996Y006939D01*
X022926Y006771D01*
X022926Y006589D01*
X022996Y006421D01*
X023124Y006293D01*
X023292Y006223D01*
X024068Y006223D01*
X024236Y006293D01*
X024364Y006421D01*
X024434Y006589D01*
X024434Y006637D01*
X024767Y006970D01*
X025192Y006970D01*
X025192Y000660D01*
X013957Y000660D01*
X014267Y000970D01*
X014160Y000863D02*
X019505Y000863D01*
X019356Y001021D02*
X019318Y001021D01*
X019855Y000863D02*
X023005Y000863D01*
X023355Y000863D02*
X025192Y000863D01*
X025192Y000704D02*
X014001Y000704D01*
X013557Y002448D02*
X017651Y002448D01*
X017810Y002607D02*
X013617Y002607D01*
X013617Y002765D02*
X017968Y002765D01*
X018127Y002924D02*
X013552Y002924D01*
X018697Y005460D02*
X020891Y005460D01*
X020875Y005476D02*
X020976Y005375D01*
X021108Y005320D01*
X021243Y005320D01*
X022926Y003637D01*
X022926Y003589D01*
X022996Y003421D01*
X023124Y003293D01*
X023292Y003223D01*
X024068Y003223D01*
X024236Y003293D01*
X024364Y003421D01*
X024434Y003589D01*
X024434Y003771D01*
X024364Y003939D01*
X024236Y004067D01*
X024068Y004137D01*
X023292Y004137D01*
X023124Y004067D01*
X023107Y004050D01*
X021540Y005617D01*
X021540Y005752D01*
X021485Y005884D01*
X021384Y005985D01*
X021252Y006040D01*
X021108Y006040D01*
X020976Y005985D01*
X020875Y005884D01*
X020820Y005752D01*
X020820Y005608D01*
X020875Y005476D01*
X020820Y005618D02*
X019415Y005618D01*
X019573Y005777D02*
X020830Y005777D01*
X020926Y005935D02*
X019732Y005935D01*
X019890Y006094D02*
X023188Y006094D01*
X023223Y006252D02*
X020049Y006252D01*
X020207Y006411D02*
X023007Y006411D01*
X022935Y006569D02*
X020366Y006569D01*
X020524Y006728D02*
X022926Y006728D01*
X022974Y006886D02*
X022395Y006886D01*
X022514Y007045D02*
X023102Y007045D01*
X023056Y007362D02*
X022494Y007362D01*
X022540Y007203D02*
X024406Y007203D01*
X024304Y007362D02*
X024565Y007362D01*
X024405Y007520D02*
X024970Y007520D01*
X024970Y007679D02*
X024434Y007679D01*
X024406Y007837D02*
X024970Y007837D01*
X024970Y007996D02*
X024307Y007996D01*
X024255Y008313D02*
X024970Y008313D01*
X024970Y008471D02*
X024385Y008471D01*
X024434Y008630D02*
X024970Y008630D01*
X024970Y008788D02*
X024427Y008788D01*
X024356Y008947D02*
X024970Y008947D01*
X024970Y009105D02*
X024402Y009105D01*
X024560Y009264D02*
X024970Y009264D01*
X024970Y009422D02*
X024719Y009422D01*
X024877Y009581D02*
X024970Y009581D01*
X024970Y009739D02*
X024890Y009739D01*
X024890Y009898D02*
X024970Y009898D01*
X024970Y010056D02*
X024890Y010056D01*
X024890Y010215D02*
X024970Y010215D01*
X024970Y010373D02*
X024784Y010373D01*
X024625Y010532D02*
X024970Y010532D01*
X024970Y010690D02*
X024467Y010690D01*
X024402Y010849D02*
X024970Y010849D01*
X024970Y011007D02*
X024296Y011007D01*
X024236Y011293D02*
X024364Y011421D01*
X024434Y011589D01*
X024434Y011771D01*
X024364Y011939D01*
X024236Y012067D01*
X024068Y012137D01*
X023292Y012137D01*
X023124Y012067D01*
X022996Y011939D01*
X022926Y011771D01*
X022926Y011589D01*
X022996Y011421D01*
X023124Y011293D01*
X023292Y011223D01*
X024068Y011223D01*
X024236Y011293D01*
X024267Y011324D02*
X024970Y011324D01*
X024970Y011166D02*
X020463Y011166D01*
X020621Y011324D02*
X023093Y011324D01*
X022970Y011483D02*
X020780Y011483D01*
X020938Y011641D02*
X022926Y011641D01*
X022938Y011800D02*
X021097Y011800D01*
X021255Y011958D02*
X023015Y011958D01*
X023243Y012117D02*
X021414Y012117D01*
X021572Y012275D02*
X023129Y012275D01*
X023133Y012272D02*
X023200Y012238D01*
X023271Y012215D01*
X023346Y012203D01*
X023662Y012203D01*
X023662Y012662D01*
X022906Y012662D01*
X022906Y012642D01*
X022918Y012568D01*
X022941Y012497D01*
X022975Y012430D01*
X023019Y012369D01*
X023073Y012316D01*
X023133Y012272D01*
X022974Y012434D02*
X021731Y012434D01*
X021889Y012592D02*
X022914Y012592D01*
X022912Y012751D02*
X022048Y012751D01*
X022418Y012909D02*
X022965Y012909D01*
X023662Y012592D02*
X023698Y012592D01*
X023698Y012662D02*
X023698Y012203D01*
X024014Y012203D01*
X024089Y012215D01*
X024160Y012238D01*
X024227Y012272D01*
X024287Y012316D01*
X024341Y012369D01*
X024385Y012430D01*
X024419Y012497D01*
X024442Y012568D01*
X024454Y012642D01*
X024454Y012662D01*
X023698Y012662D01*
X023698Y012434D02*
X023662Y012434D01*
X023662Y012275D02*
X023698Y012275D01*
X024117Y012117D02*
X024970Y012117D01*
X024970Y012275D02*
X024231Y012275D01*
X024386Y012434D02*
X024970Y012434D01*
X024970Y012592D02*
X024446Y012592D01*
X024448Y012751D02*
X024812Y012751D01*
X024654Y012909D02*
X024395Y012909D01*
X024345Y011958D02*
X024970Y011958D01*
X024970Y011800D02*
X024422Y011800D01*
X024434Y011641D02*
X024970Y011641D01*
X024970Y011483D02*
X024390Y011483D01*
X024349Y010215D02*
X019511Y010215D01*
X019353Y010056D02*
X023113Y010056D01*
X022979Y009898D02*
X018381Y009898D01*
X018434Y009739D02*
X022926Y009739D01*
X022784Y009581D02*
X018430Y009581D01*
X018364Y009422D02*
X022625Y009422D01*
X022768Y008471D02*
X022975Y008471D01*
X023105Y008313D02*
X022844Y008313D01*
X023003Y008154D02*
X024970Y008154D01*
X025192Y006886D02*
X024683Y006886D01*
X024524Y006728D02*
X025192Y006728D01*
X025192Y006569D02*
X024425Y006569D01*
X024353Y006411D02*
X025192Y006411D01*
X025192Y006252D02*
X024137Y006252D01*
X024172Y006094D02*
X025192Y006094D01*
X025192Y005935D02*
X024366Y005935D01*
X024431Y005777D02*
X025192Y005777D01*
X025192Y005618D02*
X024539Y005618D01*
X024697Y005460D02*
X025192Y005460D01*
X025192Y005301D02*
X024856Y005301D01*
X024890Y005143D02*
X025192Y005143D01*
X025192Y004984D02*
X024890Y004984D01*
X024890Y004826D02*
X025192Y004826D01*
X025192Y004667D02*
X024890Y004667D01*
X024890Y004509D02*
X025192Y004509D01*
X025192Y004350D02*
X024890Y004350D01*
X024890Y004192D02*
X025192Y004192D01*
X025192Y004033D02*
X024890Y004033D01*
X024890Y003875D02*
X025192Y003875D01*
X025192Y003716D02*
X024890Y003716D01*
X024890Y003558D02*
X025192Y003558D01*
X025192Y003399D02*
X024890Y003399D01*
X024890Y003241D02*
X025192Y003241D01*
X025192Y003082D02*
X024890Y003082D01*
X024890Y002924D02*
X025192Y002924D01*
X025192Y002765D02*
X024890Y002765D01*
X024890Y002607D02*
X025192Y002607D01*
X025192Y002448D02*
X024745Y002448D01*
X024586Y002290D02*
X025192Y002290D01*
X025192Y002131D02*
X024428Y002131D01*
X024269Y001973D02*
X025192Y001973D01*
X025192Y001814D02*
X024111Y001814D01*
X023952Y001656D02*
X025192Y001656D01*
X025192Y001497D02*
X023794Y001497D01*
X023540Y001180D02*
X025192Y001180D01*
X025192Y001021D02*
X023504Y001021D01*
X023504Y001339D02*
X025192Y001339D01*
X024151Y002448D02*
X023921Y002448D01*
X024310Y002607D02*
X021039Y002607D01*
X021034Y002765D02*
X024468Y002765D01*
X024470Y002924D02*
X020946Y002924D01*
X020890Y003082D02*
X024470Y003082D01*
X024470Y003241D02*
X024110Y003241D01*
X024342Y003399D02*
X024470Y003399D01*
X024470Y003558D02*
X024421Y003558D01*
X024434Y003716D02*
X024470Y003716D01*
X024470Y003875D02*
X024391Y003875D01*
X024470Y004033D02*
X024270Y004033D01*
X024470Y004192D02*
X022965Y004192D01*
X023067Y004350D02*
X022807Y004350D01*
X022996Y004421D02*
X023124Y004293D01*
X023292Y004223D01*
X024068Y004223D01*
X024236Y004293D01*
X024364Y004421D01*
X024434Y004589D01*
X024434Y004771D01*
X024364Y004939D01*
X024236Y005067D01*
X024068Y005137D01*
X023292Y005137D01*
X023124Y005067D01*
X022996Y004939D01*
X022926Y004771D01*
X022926Y004589D01*
X022996Y004421D01*
X022960Y004509D02*
X022648Y004509D01*
X022490Y004667D02*
X022926Y004667D01*
X022949Y004826D02*
X022331Y004826D01*
X022173Y004984D02*
X023041Y004984D01*
X023116Y005301D02*
X021856Y005301D01*
X022014Y005143D02*
X024421Y005143D01*
X024470Y004984D02*
X024319Y004984D01*
X024411Y004826D02*
X024470Y004826D01*
X024470Y004667D02*
X024434Y004667D01*
X024400Y004509D02*
X024470Y004509D01*
X024470Y004350D02*
X024293Y004350D01*
X024262Y005301D02*
X024244Y005301D01*
X022980Y005460D02*
X021697Y005460D01*
X021540Y005618D02*
X022926Y005618D01*
X022929Y005777D02*
X021530Y005777D01*
X021434Y005935D02*
X022994Y005935D01*
X021965Y006886D02*
X020683Y006886D01*
X020753Y007520D02*
X022060Y007520D01*
X022300Y007520D02*
X022955Y007520D01*
X022885Y007679D02*
X020790Y007679D01*
X020755Y007837D02*
X022726Y007837D01*
X024434Y009739D02*
X024442Y009739D01*
X024470Y009898D02*
X024381Y009898D01*
X024470Y010056D02*
X024247Y010056D01*
X023044Y010373D02*
X019670Y010373D01*
X019828Y010532D02*
X022950Y010532D01*
X022926Y010690D02*
X019987Y010690D01*
X020145Y010849D02*
X022958Y010849D01*
X023064Y011007D02*
X020304Y011007D01*
X018795Y012592D02*
X018446Y012592D01*
X018442Y012568D02*
X018454Y012642D01*
X018454Y012662D01*
X017698Y012662D01*
X017698Y012698D01*
X017662Y012698D01*
X017662Y012662D01*
X016906Y012662D01*
X016906Y012642D01*
X016918Y012568D01*
X016941Y012497D01*
X016975Y012430D01*
X017004Y012390D01*
X016093Y012390D01*
X015970Y012267D01*
X015593Y011890D01*
X012767Y011890D01*
X012687Y011970D01*
X015267Y011970D01*
X016926Y013629D01*
X016926Y013589D01*
X016996Y013421D01*
X017124Y013293D01*
X017292Y013223D01*
X018068Y013223D01*
X018236Y013293D01*
X018364Y013421D01*
X018434Y013589D01*
X018434Y013771D01*
X018364Y013939D01*
X018333Y013970D01*
X019381Y013970D01*
X019476Y013875D01*
X019608Y013820D01*
X019752Y013820D01*
X019884Y013875D01*
X019970Y013961D01*
X019970Y013767D01*
X018593Y012390D01*
X018356Y012390D01*
X018385Y012430D01*
X018419Y012497D01*
X018442Y012568D01*
X018454Y012698D02*
X018454Y012718D01*
X018442Y012792D01*
X018419Y012863D01*
X018385Y012930D01*
X018341Y012991D01*
X018287Y013044D01*
X018227Y013088D01*
X018160Y013122D01*
X018089Y013145D01*
X018014Y013157D01*
X017698Y013157D01*
X017698Y012698D01*
X018454Y012698D01*
X018448Y012751D02*
X018954Y012751D01*
X019112Y012909D02*
X018395Y012909D01*
X018255Y013068D02*
X019271Y013068D01*
X019429Y013226D02*
X018075Y013226D01*
X018327Y013385D02*
X019588Y013385D01*
X019746Y013543D02*
X018415Y013543D01*
X018434Y013702D02*
X019905Y013702D01*
X019848Y013860D02*
X019970Y013860D01*
X019512Y013860D02*
X018397Y013860D01*
X017662Y013157D02*
X017662Y012698D01*
X016906Y012698D01*
X016906Y012718D01*
X016918Y012792D01*
X016941Y012863D01*
X016975Y012930D01*
X017019Y012991D01*
X017073Y013044D01*
X017133Y013088D01*
X017200Y013122D01*
X017271Y013145D01*
X017346Y013157D01*
X017662Y013157D01*
X017662Y013068D02*
X017698Y013068D01*
X017698Y012909D02*
X017662Y012909D01*
X017662Y012751D02*
X017698Y012751D01*
X017285Y013226D02*
X016523Y013226D01*
X016365Y013068D02*
X017105Y013068D01*
X016965Y012909D02*
X016206Y012909D01*
X016048Y012751D02*
X016912Y012751D01*
X016914Y012592D02*
X015889Y012592D01*
X015731Y012434D02*
X016974Y012434D01*
X017033Y013385D02*
X016682Y013385D01*
X016840Y013543D02*
X016945Y013543D01*
X016173Y013470D02*
X015093Y012390D01*
X013508Y012390D01*
X013551Y012432D01*
X013617Y012593D01*
X013617Y012767D01*
X013602Y012805D01*
X014267Y013470D01*
X016173Y013470D01*
X016088Y013385D02*
X014182Y013385D01*
X014023Y013226D02*
X015929Y013226D01*
X015771Y013068D02*
X013865Y013068D01*
X013706Y012909D02*
X015612Y012909D01*
X015454Y012751D02*
X013617Y012751D01*
X013617Y012592D02*
X015295Y012592D01*
X015137Y012434D02*
X013551Y012434D01*
X012699Y011958D02*
X015661Y011958D01*
X015820Y012117D02*
X015414Y012117D01*
X015572Y012275D02*
X015978Y012275D01*
X014881Y010970D02*
X014976Y010875D01*
X015048Y010845D01*
X013843Y009640D01*
X009517Y009640D01*
X007602Y011555D01*
X007617Y011593D01*
X007617Y011767D01*
X007551Y011928D01*
X007428Y012051D01*
X007267Y012117D01*
X007093Y012117D01*
X006932Y012051D01*
X006809Y011928D01*
X006743Y011767D01*
X006743Y011593D01*
X006768Y011533D01*
X006752Y011540D01*
X006608Y011540D01*
X006476Y011485D01*
X006375Y011384D01*
X006320Y011252D01*
X006320Y011117D01*
X006093Y010890D01*
X004979Y010890D01*
X004884Y010985D01*
X004812Y011015D01*
X006767Y012970D01*
X006852Y012970D01*
X006809Y012928D01*
X006743Y012767D01*
X006743Y012593D01*
X006809Y012432D01*
X006932Y012309D01*
X007093Y012243D01*
X007267Y012243D01*
X007305Y012258D01*
X008970Y010593D01*
X009093Y010470D01*
X010267Y010470D01*
X010767Y010970D01*
X010823Y010970D01*
X010723Y010869D01*
X010723Y010689D01*
X011171Y010689D01*
X011171Y010671D01*
X011189Y010671D01*
X011189Y010689D01*
X011637Y010689D01*
X011637Y010869D01*
X011537Y010970D01*
X012093Y010970D01*
X012470Y010593D01*
X012593Y010470D01*
X012772Y010470D01*
X012852Y010390D01*
X011979Y010390D01*
X011884Y010485D01*
X011752Y010540D01*
X011637Y010540D01*
X011637Y010671D01*
X011189Y010671D01*
X011189Y010223D01*
X011320Y010223D01*
X011320Y010108D01*
X011375Y009976D01*
X011476Y009875D01*
X011608Y009820D01*
X011752Y009820D01*
X011884Y009875D01*
X011979Y009970D01*
X013381Y009970D01*
X013476Y009875D01*
X013608Y009820D01*
X013752Y009820D01*
X013884Y009875D01*
X013985Y009976D01*
X014040Y010108D01*
X014040Y010252D01*
X013985Y010384D01*
X013884Y010485D01*
X013752Y010540D01*
X013617Y010540D01*
X013617Y010861D01*
X013508Y010970D01*
X014881Y010970D01*
X015040Y010849D02*
X013617Y010849D01*
X013617Y010690D02*
X014893Y010690D01*
X014735Y010532D02*
X013772Y010532D01*
X013990Y010373D02*
X014576Y010373D01*
X014418Y010215D02*
X014040Y010215D01*
X014018Y010056D02*
X014259Y010056D01*
X014101Y009898D02*
X013907Y009898D01*
X013942Y009739D02*
X009418Y009739D01*
X009259Y009898D02*
X011453Y009898D01*
X011342Y010056D02*
X009101Y010056D01*
X008942Y010215D02*
X011320Y010215D01*
X011171Y010223D02*
X011171Y010671D01*
X010723Y010671D01*
X010723Y010491D01*
X010991Y010223D01*
X011171Y010223D01*
X011171Y010373D02*
X011189Y010373D01*
X011189Y010532D02*
X011171Y010532D01*
X010840Y010373D02*
X008784Y010373D01*
X008625Y010532D02*
X009031Y010532D01*
X008873Y010690D02*
X008467Y010690D01*
X008308Y010849D02*
X008714Y010849D01*
X008556Y011007D02*
X008150Y011007D01*
X007991Y011166D02*
X008397Y011166D01*
X008239Y011324D02*
X007833Y011324D01*
X007674Y011483D02*
X008080Y011483D01*
X007922Y011641D02*
X007617Y011641D01*
X007604Y011800D02*
X007763Y011800D01*
X007605Y011958D02*
X007520Y011958D01*
X007446Y012117D02*
X007269Y012117D01*
X007091Y012117D02*
X005914Y012117D01*
X006072Y012275D02*
X007015Y012275D01*
X006809Y012434D02*
X006231Y012434D01*
X006389Y012592D02*
X006743Y012592D01*
X006743Y012751D02*
X006548Y012751D01*
X006706Y012909D02*
X006802Y012909D01*
X006470Y013267D02*
X005015Y011812D01*
X004985Y011884D01*
X004884Y011985D01*
X004752Y012040D01*
X004608Y012040D01*
X004476Y011985D01*
X004381Y011890D01*
X004267Y011890D01*
X002312Y013845D01*
X002384Y013875D01*
X002485Y013976D01*
X002540Y014108D01*
X002540Y014243D01*
X002767Y014470D01*
X005881Y014470D01*
X005976Y014375D01*
X006108Y014320D01*
X006252Y014320D01*
X006384Y014375D01*
X006485Y014476D01*
X006540Y014608D01*
X006540Y014752D01*
X006485Y014884D01*
X006399Y014970D01*
X006852Y014970D01*
X006809Y014928D01*
X006743Y014767D01*
X006743Y014593D01*
X006809Y014432D01*
X006932Y014309D01*
X007093Y014243D01*
X007267Y014243D01*
X007428Y014309D01*
X007551Y014432D01*
X007617Y014593D01*
X007617Y014767D01*
X007551Y014928D01*
X007508Y014970D01*
X007593Y014970D01*
X008820Y013743D01*
X008820Y013608D01*
X008875Y013476D01*
X008961Y013390D01*
X008767Y013390D01*
X008540Y013617D01*
X008540Y013752D01*
X008485Y013884D01*
X008384Y013985D01*
X008252Y014040D01*
X008108Y014040D01*
X007976Y013985D01*
X007875Y013884D01*
X007820Y013752D01*
X007820Y013608D01*
X007875Y013476D01*
X007961Y013390D01*
X007508Y013390D01*
X007551Y013432D01*
X007617Y013593D01*
X007617Y013767D01*
X007551Y013928D01*
X007428Y014051D01*
X007267Y014117D01*
X007093Y014117D01*
X006932Y014051D01*
X006809Y013928D01*
X006743Y013767D01*
X006743Y013593D01*
X006809Y013432D01*
X006852Y013390D01*
X006593Y013390D01*
X006470Y013267D01*
X006429Y013226D02*
X002931Y013226D01*
X003089Y013068D02*
X006271Y013068D01*
X006112Y012909D02*
X003248Y012909D01*
X003406Y012751D02*
X005954Y012751D01*
X005795Y012592D02*
X003565Y012592D01*
X003723Y012434D02*
X005637Y012434D01*
X005478Y012275D02*
X003882Y012275D01*
X004040Y012117D02*
X005320Y012117D01*
X005161Y011958D02*
X004911Y011958D01*
X004449Y011958D02*
X004199Y011958D01*
X003922Y011641D02*
X003516Y011641D01*
X003617Y011540D02*
X001602Y013555D01*
X001617Y013593D01*
X001617Y013767D01*
X001551Y013928D01*
X001428Y014051D01*
X001267Y014117D01*
X001093Y014117D01*
X000932Y014051D01*
X000809Y013928D01*
X000743Y013767D01*
X000743Y013593D01*
X000809Y013432D01*
X000932Y013309D01*
X001093Y013243D01*
X001267Y013243D01*
X001305Y013258D01*
X003320Y011243D01*
X003320Y011108D01*
X003375Y010976D01*
X003476Y010875D01*
X003608Y010820D01*
X003752Y010820D01*
X003884Y010875D01*
X003985Y010976D01*
X004040Y011108D01*
X004040Y011252D01*
X003985Y011384D01*
X003884Y011485D01*
X003752Y011540D01*
X003617Y011540D01*
X003763Y011800D02*
X003357Y011800D01*
X003199Y011958D02*
X003605Y011958D01*
X003446Y012117D02*
X003040Y012117D01*
X002882Y012275D02*
X003288Y012275D01*
X003129Y012434D02*
X002723Y012434D01*
X002565Y012592D02*
X002971Y012592D01*
X002812Y012751D02*
X002406Y012751D01*
X002248Y012909D02*
X002654Y012909D01*
X002495Y013068D02*
X002089Y013068D01*
X001931Y013226D02*
X002337Y013226D01*
X002178Y013385D02*
X001772Y013385D01*
X001614Y013543D02*
X002020Y013543D01*
X001861Y013702D02*
X001617Y013702D01*
X001579Y013860D02*
X001703Y013860D01*
X001544Y014019D02*
X001460Y014019D01*
X001386Y014177D02*
X000660Y014177D01*
X000660Y014019D02*
X000900Y014019D01*
X000781Y013860D02*
X000660Y013860D01*
X000660Y013702D02*
X000743Y013702D01*
X000764Y013543D02*
X000660Y013543D01*
X000660Y013385D02*
X000857Y013385D01*
X000660Y013226D02*
X001337Y013226D01*
X001267Y013117D02*
X001428Y013051D01*
X001551Y012928D01*
X001617Y012767D01*
X001617Y012593D01*
X001551Y012432D01*
X001428Y012309D01*
X001267Y012243D01*
X001093Y012243D01*
X000932Y012309D01*
X000809Y012432D01*
X000743Y012593D01*
X000743Y012767D01*
X000809Y012928D01*
X000932Y013051D01*
X001093Y013117D01*
X001267Y013117D01*
X001387Y013068D02*
X001495Y013068D01*
X001558Y012909D02*
X001654Y012909D01*
X001617Y012751D02*
X001812Y012751D01*
X001971Y012592D02*
X001617Y012592D01*
X001551Y012434D02*
X002129Y012434D01*
X002288Y012275D02*
X001345Y012275D01*
X001269Y012117D02*
X002446Y012117D01*
X002605Y011958D02*
X001520Y011958D01*
X001604Y011800D02*
X002763Y011800D01*
X002922Y011641D02*
X001617Y011641D01*
X001674Y011483D02*
X003080Y011483D01*
X003239Y011324D02*
X001833Y011324D01*
X001991Y011166D02*
X003320Y011166D01*
X003362Y011007D02*
X002150Y011007D01*
X002308Y010849D02*
X003540Y010849D01*
X003820Y010849D02*
X004052Y010849D01*
X003998Y011007D02*
X004210Y011007D01*
X004369Y011166D02*
X004040Y011166D01*
X004010Y011324D02*
X004527Y011324D01*
X004831Y011007D02*
X006210Y011007D01*
X006320Y011166D02*
X004962Y011166D01*
X005121Y011324D02*
X006350Y011324D01*
X006473Y011483D02*
X005279Y011483D01*
X005438Y011641D02*
X006743Y011641D01*
X006756Y011800D02*
X005596Y011800D01*
X005755Y011958D02*
X006840Y011958D01*
X006588Y013385D02*
X002772Y013385D01*
X002614Y013543D02*
X006764Y013543D01*
X006743Y013702D02*
X002455Y013702D01*
X002348Y013860D02*
X006781Y013860D01*
X006900Y014019D02*
X002503Y014019D01*
X002540Y014177D02*
X008386Y014177D01*
X008303Y014019D02*
X008544Y014019D01*
X008495Y013860D02*
X008703Y013860D01*
X008820Y013702D02*
X008540Y013702D01*
X008614Y013543D02*
X008847Y013543D01*
X008687Y012970D02*
X009826Y012970D01*
X009789Y012920D01*
X009756Y012855D01*
X009734Y012787D01*
X009723Y012716D01*
X009723Y012689D01*
X010171Y012689D01*
X010171Y012671D01*
X010189Y012671D01*
X010189Y012689D01*
X010637Y012689D01*
X010637Y012716D01*
X010626Y012787D01*
X010604Y012855D01*
X010571Y012920D01*
X010534Y012970D01*
X011461Y012970D01*
X011375Y012884D01*
X011320Y012752D01*
X011320Y012608D01*
X011375Y012476D01*
X011421Y012430D01*
X011381Y012390D01*
X010593Y012390D01*
X010470Y012267D01*
X010093Y011890D01*
X009767Y011890D01*
X008687Y012970D01*
X008748Y012909D02*
X009784Y012909D01*
X009728Y012751D02*
X008906Y012751D01*
X009065Y012592D02*
X009731Y012592D01*
X009734Y012573D02*
X009756Y012505D01*
X009789Y012440D01*
X009831Y012382D01*
X009882Y012331D01*
X009940Y012289D01*
X010005Y012256D01*
X010073Y012234D01*
X010144Y012223D01*
X010171Y012223D01*
X010171Y012671D01*
X009723Y012671D01*
X009723Y012644D01*
X009734Y012573D01*
X009794Y012434D02*
X009223Y012434D01*
X009382Y012275D02*
X009968Y012275D01*
X010171Y012275D02*
X010189Y012275D01*
X010189Y012223D02*
X010216Y012223D01*
X010287Y012234D01*
X010355Y012256D01*
X010420Y012289D01*
X010478Y012331D01*
X010529Y012382D01*
X010571Y012440D01*
X010604Y012505D01*
X010626Y012573D01*
X010637Y012644D01*
X010637Y012671D01*
X010189Y012671D01*
X010189Y012223D01*
X010320Y012117D02*
X009540Y012117D01*
X009699Y011958D02*
X010161Y011958D01*
X010392Y012275D02*
X010478Y012275D01*
X010566Y012434D02*
X011417Y012434D01*
X011327Y012592D02*
X010629Y012592D01*
X010632Y012751D02*
X011320Y012751D01*
X011400Y012909D02*
X010576Y012909D01*
X010189Y012592D02*
X010171Y012592D01*
X010171Y012434D02*
X010189Y012434D01*
X010645Y010849D02*
X010723Y010849D01*
X010723Y010690D02*
X010487Y010690D01*
X010328Y010532D02*
X010723Y010532D01*
X011637Y010690D02*
X012373Y010690D01*
X012531Y010532D02*
X011772Y010532D01*
X011637Y010849D02*
X012214Y010849D01*
X011907Y009898D02*
X013453Y009898D01*
X018386Y012434D02*
X018637Y012434D01*
X024364Y018939D02*
X024300Y019003D01*
X024767Y019470D01*
X024890Y019593D01*
X024890Y020267D01*
X024434Y020723D01*
X024434Y020771D01*
X024364Y020939D01*
X024236Y021067D01*
X024068Y021137D01*
X023292Y021137D01*
X023124Y021067D01*
X022996Y020939D01*
X022926Y020771D01*
X022926Y020589D01*
X022996Y020421D01*
X023124Y020293D01*
X023292Y020223D01*
X024068Y020223D01*
X024236Y020293D01*
X024253Y020310D01*
X024470Y020093D01*
X024470Y019767D01*
X024434Y019731D01*
X024434Y019771D01*
X024364Y019939D01*
X024236Y020067D01*
X024068Y020137D01*
X023292Y020137D01*
X023124Y020067D01*
X023107Y020050D01*
X022767Y020390D01*
X021899Y020390D01*
X021985Y020476D01*
X022040Y020608D01*
X022040Y020743D01*
X022617Y021320D01*
X022752Y021320D01*
X022884Y021375D01*
X022977Y021468D01*
X022996Y021421D01*
X023124Y021293D01*
X023292Y021223D01*
X024068Y021223D01*
X024236Y021293D01*
X024364Y021421D01*
X024434Y021589D01*
X024434Y021771D01*
X024364Y021939D01*
X024236Y022067D01*
X024068Y022137D01*
X023292Y022137D01*
X023124Y022067D01*
X023107Y022050D01*
X022767Y022390D01*
X020899Y022390D01*
X020985Y022476D01*
X021040Y022608D01*
X021040Y022743D01*
X021767Y023470D01*
X022976Y023470D01*
X022996Y023421D01*
X023124Y023293D01*
X023292Y023223D01*
X024068Y023223D01*
X024236Y023293D01*
X024364Y023421D01*
X024434Y023589D01*
X024434Y023771D01*
X024364Y023939D01*
X024236Y024067D01*
X024068Y024137D01*
X023292Y024137D01*
X023124Y024067D01*
X022996Y023939D01*
X022976Y023890D01*
X021593Y023890D01*
X021470Y023767D01*
X020743Y023040D01*
X020608Y023040D01*
X020476Y022985D01*
X020430Y022939D01*
X020384Y022985D01*
X020252Y023040D01*
X020117Y023040D01*
X019040Y024117D01*
X019040Y024252D01*
X018985Y024384D01*
X018884Y024485D01*
X018752Y024540D01*
X018608Y024540D01*
X018476Y024485D01*
X018375Y024384D01*
X018320Y024252D01*
X018320Y024108D01*
X018375Y023976D01*
X018476Y023875D01*
X018608Y023820D01*
X018743Y023820D01*
X019820Y022743D01*
X019820Y022608D01*
X019875Y022476D01*
X019961Y022390D01*
X018333Y022390D01*
X018364Y022421D01*
X018434Y022589D01*
X018434Y022771D01*
X018364Y022939D01*
X018333Y022970D01*
X018381Y022970D01*
X018476Y022875D01*
X018608Y022820D01*
X018752Y022820D01*
X018884Y022875D01*
X018985Y022976D01*
X019040Y023108D01*
X019040Y023252D01*
X018985Y023384D01*
X018884Y023485D01*
X018752Y023540D01*
X018608Y023540D01*
X018476Y023485D01*
X018381Y023390D01*
X018333Y023390D01*
X018364Y023421D01*
X018434Y023589D01*
X018434Y023771D01*
X018364Y023939D01*
X018236Y024067D01*
X018068Y024137D01*
X017292Y024137D01*
X017124Y024067D01*
X017107Y024050D01*
X015767Y025390D01*
X010093Y025390D01*
X009970Y025267D01*
X009970Y021267D01*
X009093Y020390D01*
X007508Y020390D01*
X007551Y020432D01*
X007617Y020593D01*
X007617Y020700D01*
X009275Y020700D01*
X009452Y020773D01*
X009587Y020908D01*
X009660Y021085D01*
X009660Y030070D01*
X025192Y030070D01*
X025192Y022390D01*
X024767Y022390D01*
X024434Y022723D01*
X024434Y022771D01*
X024364Y022939D01*
X024236Y023067D01*
X024068Y023137D01*
X023292Y023137D01*
X023124Y023067D01*
X022996Y022939D01*
X022926Y022771D01*
X022926Y022589D01*
X022996Y022421D01*
X023124Y022293D01*
X023292Y022223D01*
X024068Y022223D01*
X024236Y022293D01*
X024253Y022310D01*
X024593Y021970D01*
X024970Y021970D01*
X024970Y019267D01*
X024434Y018731D01*
X024434Y018771D01*
X024364Y018939D01*
X024367Y018932D02*
X024635Y018932D01*
X024477Y018774D02*
X024433Y018774D01*
X024388Y019091D02*
X024794Y019091D01*
X024952Y019249D02*
X024546Y019249D01*
X024705Y019408D02*
X024970Y019408D01*
X024970Y019566D02*
X024863Y019566D01*
X024890Y019725D02*
X024970Y019725D01*
X024970Y019883D02*
X024890Y019883D01*
X024890Y020042D02*
X024970Y020042D01*
X024970Y020200D02*
X024890Y020200D01*
X024970Y020359D02*
X024798Y020359D01*
X024640Y020517D02*
X024970Y020517D01*
X024970Y020676D02*
X024481Y020676D01*
X024408Y020834D02*
X024970Y020834D01*
X024970Y020993D02*
X024310Y020993D01*
X024252Y021310D02*
X024970Y021310D01*
X024970Y021468D02*
X024384Y021468D01*
X024434Y021627D02*
X024970Y021627D01*
X024970Y021785D02*
X024428Y021785D01*
X024359Y021944D02*
X024970Y021944D01*
X025192Y022419D02*
X024738Y022419D01*
X024579Y022578D02*
X025192Y022578D01*
X025192Y022736D02*
X024434Y022736D01*
X024382Y022895D02*
X025192Y022895D01*
X025192Y023053D02*
X024250Y023053D01*
X024313Y023370D02*
X025192Y023370D01*
X025192Y023212D02*
X021509Y023212D01*
X021667Y023370D02*
X023047Y023370D01*
X023110Y023053D02*
X021350Y023053D01*
X021192Y022895D02*
X022978Y022895D01*
X022926Y022736D02*
X021040Y022736D01*
X021027Y022578D02*
X022931Y022578D01*
X022998Y022419D02*
X020928Y022419D01*
X020756Y023053D02*
X020104Y023053D01*
X019945Y023212D02*
X020915Y023212D01*
X021073Y023370D02*
X019787Y023370D01*
X019628Y023529D02*
X021232Y023529D01*
X021390Y023687D02*
X019470Y023687D01*
X019311Y023846D02*
X021549Y023846D01*
X022996Y024421D02*
X023124Y024293D01*
X023292Y024223D01*
X024068Y024223D01*
X024236Y024293D01*
X024364Y024421D01*
X024434Y024589D01*
X024434Y024771D01*
X024364Y024939D01*
X024236Y025067D01*
X024068Y025137D01*
X023292Y025137D01*
X023124Y025067D01*
X022996Y024939D01*
X022926Y024771D01*
X022926Y024589D01*
X022996Y024421D01*
X022972Y024480D02*
X018890Y024480D01*
X019011Y024321D02*
X023096Y024321D01*
X023061Y024004D02*
X019153Y024004D01*
X019040Y024163D02*
X025192Y024163D01*
X025192Y024321D02*
X024264Y024321D01*
X024388Y024480D02*
X025192Y024480D01*
X025192Y024638D02*
X024434Y024638D01*
X024423Y024797D02*
X025192Y024797D01*
X025192Y024955D02*
X024348Y024955D01*
X024124Y025114D02*
X025192Y025114D01*
X025192Y025272D02*
X024186Y025272D01*
X024236Y025293D02*
X024364Y025421D01*
X024434Y025589D01*
X024434Y025771D01*
X024364Y025939D01*
X024236Y026067D01*
X024068Y026137D01*
X023292Y026137D01*
X023124Y026067D01*
X022996Y025939D01*
X022926Y025771D01*
X022926Y025589D01*
X022996Y025421D01*
X023124Y025293D01*
X023292Y025223D01*
X024068Y025223D01*
X024236Y025293D01*
X024368Y025431D02*
X025192Y025431D01*
X025192Y025589D02*
X024434Y025589D01*
X024434Y025748D02*
X025192Y025748D01*
X025192Y025906D02*
X024378Y025906D01*
X024238Y026065D02*
X025192Y026065D01*
X025192Y026223D02*
X013370Y026223D01*
X013369Y026223D02*
X013637Y026491D01*
X013637Y026671D01*
X013189Y026671D01*
X013189Y026689D01*
X013189Y027137D01*
X013369Y027137D01*
X013637Y026869D01*
X013637Y026689D01*
X013189Y026689D01*
X013171Y026689D01*
X013171Y027137D01*
X012991Y027137D01*
X012723Y026869D01*
X012723Y026689D01*
X013171Y026689D01*
X013171Y026671D01*
X013189Y026671D01*
X013189Y026223D01*
X013171Y026223D01*
X013171Y026671D01*
X012723Y026671D01*
X012723Y026491D01*
X012991Y026223D01*
X013171Y026223D01*
X013189Y026223D02*
X013369Y026223D01*
X013528Y026382D02*
X017036Y026382D01*
X016996Y026421D02*
X017124Y026293D01*
X017292Y026223D01*
X018068Y026223D01*
X018236Y026293D01*
X018364Y026421D01*
X018434Y026589D01*
X018434Y026771D01*
X018364Y026939D01*
X018236Y027067D01*
X018068Y027137D01*
X017292Y027137D01*
X017124Y027067D01*
X016996Y026939D01*
X016926Y026771D01*
X016926Y026589D01*
X016996Y026421D01*
X016947Y026540D02*
X013637Y026540D01*
X013637Y026699D02*
X016926Y026699D01*
X016962Y026857D02*
X013637Y026857D01*
X013491Y027016D02*
X017073Y027016D01*
X017292Y026137D02*
X017124Y026067D01*
X016996Y025939D01*
X016926Y025771D01*
X016926Y025589D01*
X016996Y025421D01*
X017124Y025293D01*
X017292Y025223D01*
X018068Y025223D01*
X018236Y025293D01*
X018364Y025421D01*
X018434Y025589D01*
X018434Y025771D01*
X018364Y025939D01*
X018236Y026067D01*
X018068Y026137D01*
X017292Y026137D01*
X017122Y026065D02*
X009660Y026065D01*
X009660Y026223D02*
X012990Y026223D01*
X012832Y026382D02*
X011500Y026382D01*
X011617Y026499D02*
X011361Y026243D01*
X010999Y026243D01*
X010743Y026499D01*
X010743Y026861D01*
X010999Y027117D01*
X011361Y027117D01*
X011617Y026861D01*
X011617Y026499D01*
X011617Y026540D02*
X012723Y026540D01*
X012723Y026699D02*
X011617Y026699D01*
X011617Y026857D02*
X012723Y026857D01*
X012869Y027016D02*
X011463Y027016D01*
X010897Y027016D02*
X009660Y027016D01*
X009660Y027174D02*
X018389Y027174D01*
X018287Y027016D02*
X018547Y027016D01*
X018398Y026857D02*
X018706Y026857D01*
X018820Y026743D02*
X018820Y026608D01*
X018875Y026476D01*
X018976Y026375D01*
X019108Y026320D01*
X019252Y026320D01*
X019384Y026375D01*
X019485Y026476D01*
X019540Y026608D01*
X019540Y026752D01*
X019485Y026884D01*
X019384Y026985D01*
X019252Y027040D01*
X019117Y027040D01*
X018267Y027890D01*
X012767Y027890D01*
X011617Y029040D01*
X011617Y029361D01*
X011361Y029617D01*
X010999Y029617D01*
X010743Y029361D01*
X010743Y028999D01*
X010999Y028743D01*
X011320Y028743D01*
X012470Y027593D01*
X012593Y027470D01*
X018093Y027470D01*
X018820Y026743D01*
X018820Y026699D02*
X018434Y026699D01*
X018413Y026540D02*
X018848Y026540D01*
X018969Y026382D02*
X018324Y026382D01*
X018238Y026065D02*
X023122Y026065D01*
X022982Y025906D02*
X018378Y025906D01*
X018434Y025748D02*
X022926Y025748D01*
X022926Y025589D02*
X018434Y025589D01*
X018368Y025431D02*
X022992Y025431D01*
X023174Y025272D02*
X018186Y025272D01*
X018124Y025114D02*
X023236Y025114D01*
X023012Y024955D02*
X018348Y024955D01*
X018364Y024939D02*
X018236Y025067D01*
X018068Y025137D01*
X017292Y025137D01*
X017124Y025067D01*
X016996Y024939D01*
X016926Y024771D01*
X016926Y024589D01*
X016996Y024421D01*
X017124Y024293D01*
X017292Y024223D01*
X018068Y024223D01*
X018236Y024293D01*
X018364Y024421D01*
X018434Y024589D01*
X018434Y024771D01*
X018364Y024939D01*
X018423Y024797D02*
X022937Y024797D01*
X022926Y024638D02*
X018434Y024638D01*
X018470Y024480D02*
X018388Y024480D01*
X018349Y024321D02*
X018264Y024321D01*
X018320Y024163D02*
X016994Y024163D01*
X017096Y024321D02*
X016836Y024321D01*
X016972Y024480D02*
X016677Y024480D01*
X016519Y024638D02*
X016926Y024638D01*
X016937Y024797D02*
X016360Y024797D01*
X016202Y024955D02*
X017012Y024955D01*
X017236Y025114D02*
X016043Y025114D01*
X015885Y025272D02*
X017174Y025272D01*
X016992Y025431D02*
X009660Y025431D01*
X009660Y025589D02*
X016926Y025589D01*
X016926Y025748D02*
X009660Y025748D01*
X009660Y025906D02*
X016982Y025906D01*
X015925Y024638D02*
X010390Y024638D01*
X010390Y024480D02*
X010861Y024480D01*
X010743Y024361D02*
X010743Y023999D01*
X010999Y023743D01*
X011361Y023743D01*
X011617Y023999D01*
X011617Y024361D01*
X011361Y024617D01*
X010999Y024617D01*
X010743Y024361D01*
X010743Y024321D02*
X010390Y024321D01*
X010390Y024163D02*
X010743Y024163D01*
X010743Y024004D02*
X010390Y024004D01*
X010390Y023846D02*
X010896Y023846D01*
X010390Y023687D02*
X016876Y023687D01*
X016926Y023637D02*
X016926Y023589D01*
X016996Y023421D01*
X017027Y023390D01*
X016593Y023390D01*
X016470Y023267D01*
X016093Y022890D01*
X015399Y022890D01*
X015485Y022976D01*
X015540Y023108D01*
X015540Y023252D01*
X015485Y023384D01*
X015384Y023485D01*
X015252Y023540D01*
X015108Y023540D01*
X014976Y023485D01*
X014881Y023390D01*
X011593Y023390D01*
X010743Y022540D01*
X010608Y022540D01*
X010476Y022485D01*
X010390Y022399D01*
X010390Y024970D01*
X015593Y024970D01*
X016926Y023637D01*
X016951Y023529D02*
X015279Y023529D01*
X015081Y023529D02*
X010390Y023529D01*
X010390Y023370D02*
X011573Y023370D01*
X011415Y023212D02*
X010390Y023212D01*
X010390Y023053D02*
X011256Y023053D01*
X011098Y022895D02*
X010390Y022895D01*
X010390Y022736D02*
X010939Y022736D01*
X010781Y022578D02*
X010390Y022578D01*
X010390Y022419D02*
X010410Y022419D01*
X010390Y021961D02*
X010476Y021875D01*
X010608Y021820D01*
X010723Y021820D01*
X010723Y021689D01*
X011171Y021689D01*
X011171Y022137D01*
X011040Y022137D01*
X011040Y022243D01*
X011767Y022970D01*
X014881Y022970D01*
X014961Y022890D01*
X013093Y022890D01*
X012970Y022767D01*
X012743Y022540D01*
X012608Y022540D01*
X012476Y022485D01*
X012375Y022384D01*
X012320Y022252D01*
X012320Y022108D01*
X012375Y021976D01*
X012476Y021875D01*
X012608Y021820D01*
X012743Y021820D01*
X012743Y021540D01*
X012608Y021540D01*
X012476Y021485D01*
X012375Y021384D01*
X012320Y021252D01*
X012320Y021108D01*
X012375Y020976D01*
X012476Y020875D01*
X012548Y020845D01*
X012470Y020767D01*
X011593Y019890D01*
X010617Y019890D01*
X010617Y020023D01*
X010523Y020117D01*
X009914Y020117D01*
X010267Y020470D01*
X010881Y020470D01*
X010976Y020375D01*
X011108Y020320D01*
X011252Y020320D01*
X011384Y020375D01*
X011485Y020476D01*
X011540Y020608D01*
X011540Y020752D01*
X011485Y020884D01*
X011384Y020985D01*
X011252Y021040D01*
X011108Y021040D01*
X010976Y020985D01*
X010881Y020890D01*
X010187Y020890D01*
X010267Y020970D01*
X010390Y021093D01*
X010390Y021961D01*
X010390Y021944D02*
X010407Y021944D01*
X010390Y021785D02*
X010723Y021785D01*
X010723Y021671D02*
X010723Y021491D01*
X010991Y021223D01*
X011171Y021223D01*
X011171Y021671D01*
X011189Y021671D01*
X011189Y021689D01*
X011171Y021689D01*
X011171Y021671D01*
X010723Y021671D01*
X010723Y021627D02*
X010390Y021627D01*
X010390Y021468D02*
X010745Y021468D01*
X010904Y021310D02*
X010390Y021310D01*
X010390Y021151D02*
X012320Y021151D01*
X012344Y021310D02*
X011456Y021310D01*
X011369Y021223D02*
X011637Y021491D01*
X011637Y021671D01*
X011189Y021671D01*
X011189Y021223D01*
X011369Y021223D01*
X011189Y021310D02*
X011171Y021310D01*
X011171Y021468D02*
X011189Y021468D01*
X011189Y021627D02*
X011171Y021627D01*
X011189Y021689D02*
X011637Y021689D01*
X011637Y021869D01*
X011369Y022137D01*
X011189Y022137D01*
X011189Y021689D01*
X011189Y021785D02*
X011171Y021785D01*
X011171Y021944D02*
X011189Y021944D01*
X011189Y022102D02*
X011171Y022102D01*
X011058Y022261D02*
X012324Y022261D01*
X012323Y022102D02*
X011404Y022102D01*
X011563Y021944D02*
X012407Y021944D01*
X012410Y022419D02*
X011216Y022419D01*
X011375Y022578D02*
X012781Y022578D01*
X012939Y022736D02*
X011533Y022736D01*
X011692Y022895D02*
X014956Y022895D01*
X015404Y022895D02*
X016098Y022895D01*
X016256Y023053D02*
X015517Y023053D01*
X015540Y023212D02*
X016415Y023212D01*
X016573Y023370D02*
X015491Y023370D01*
X016242Y024321D02*
X013637Y024321D01*
X013637Y024369D02*
X013369Y024637D01*
X013189Y024637D01*
X013189Y024189D01*
X013637Y024189D01*
X013637Y024369D01*
X013527Y024480D02*
X016083Y024480D01*
X016400Y024163D02*
X013637Y024163D01*
X013637Y024171D02*
X013189Y024171D01*
X013189Y024189D01*
X013171Y024189D01*
X013171Y024637D01*
X012991Y024637D01*
X012723Y024369D01*
X012723Y024189D01*
X013171Y024189D01*
X013171Y024171D01*
X013189Y024171D01*
X013189Y023723D01*
X013369Y023723D01*
X013637Y023991D01*
X013637Y024171D01*
X013637Y024004D02*
X016559Y024004D01*
X016717Y023846D02*
X013492Y023846D01*
X013189Y023846D02*
X013171Y023846D01*
X013171Y023723D02*
X013171Y024171D01*
X012723Y024171D01*
X012723Y023991D01*
X012991Y023723D01*
X013171Y023723D01*
X013171Y024004D02*
X013189Y024004D01*
X013189Y024163D02*
X013171Y024163D01*
X013171Y024321D02*
X013189Y024321D01*
X013189Y024480D02*
X013171Y024480D01*
X012833Y024480D02*
X011499Y024480D01*
X011617Y024321D02*
X012723Y024321D01*
X012723Y024163D02*
X011617Y024163D01*
X011617Y024004D02*
X012723Y024004D01*
X012868Y023846D02*
X011464Y023846D01*
X010390Y024797D02*
X015766Y024797D01*
X015608Y024955D02*
X010390Y024955D01*
X009970Y024955D02*
X009660Y024955D01*
X009660Y024797D02*
X009970Y024797D01*
X009970Y024638D02*
X009660Y024638D01*
X009660Y024480D02*
X009970Y024480D01*
X009970Y024321D02*
X009660Y024321D01*
X009660Y024163D02*
X009970Y024163D01*
X009970Y024004D02*
X009660Y024004D01*
X009660Y023846D02*
X009970Y023846D01*
X009970Y023687D02*
X009660Y023687D01*
X009660Y023529D02*
X009970Y023529D01*
X009970Y023370D02*
X009660Y023370D01*
X009660Y023212D02*
X009970Y023212D01*
X009970Y023053D02*
X009660Y023053D01*
X009660Y022895D02*
X009970Y022895D01*
X009970Y022736D02*
X009660Y022736D01*
X009660Y022578D02*
X009970Y022578D01*
X009970Y022419D02*
X009660Y022419D01*
X009660Y022261D02*
X009970Y022261D01*
X009970Y022102D02*
X009660Y022102D01*
X009660Y021944D02*
X009970Y021944D01*
X009970Y021785D02*
X009660Y021785D01*
X009660Y021627D02*
X009970Y021627D01*
X009970Y021468D02*
X009660Y021468D01*
X009660Y021310D02*
X009970Y021310D01*
X009854Y021151D02*
X009660Y021151D01*
X009622Y020993D02*
X009696Y020993D01*
X009537Y020834D02*
X009513Y020834D01*
X009379Y020676D02*
X007617Y020676D01*
X007586Y020517D02*
X009220Y020517D01*
X009997Y020200D02*
X011903Y020200D01*
X011745Y020042D02*
X010599Y020042D01*
X011015Y020359D02*
X010156Y020359D01*
X010290Y020993D02*
X010994Y020993D01*
X011366Y020993D02*
X012368Y020993D01*
X012537Y020834D02*
X011506Y020834D01*
X011540Y020676D02*
X012379Y020676D01*
X012220Y020517D02*
X011502Y020517D01*
X011345Y020359D02*
X012062Y020359D01*
X012459Y021468D02*
X011615Y021468D01*
X011637Y021627D02*
X012743Y021627D01*
X012743Y021785D02*
X011637Y021785D01*
X009970Y025114D02*
X009660Y025114D01*
X009660Y025272D02*
X009975Y025272D01*
X009660Y026382D02*
X010860Y026382D01*
X010743Y026540D02*
X009660Y026540D01*
X009660Y026699D02*
X010743Y026699D01*
X010743Y026857D02*
X009660Y026857D01*
X009660Y027333D02*
X018230Y027333D01*
X018507Y027650D02*
X025192Y027650D01*
X025192Y027808D02*
X018349Y027808D01*
X018666Y027491D02*
X025192Y027491D01*
X025192Y027333D02*
X018824Y027333D01*
X018983Y027174D02*
X025192Y027174D01*
X025192Y027016D02*
X024287Y027016D01*
X024236Y027067D02*
X024068Y027137D01*
X023292Y027137D01*
X023124Y027067D01*
X022996Y026939D01*
X022926Y026771D01*
X022926Y026589D01*
X022996Y026421D01*
X023124Y026293D01*
X023292Y026223D01*
X024068Y026223D01*
X024236Y026293D01*
X024364Y026421D01*
X024434Y026589D01*
X024434Y026771D01*
X024364Y026939D01*
X024236Y027067D01*
X024398Y026857D02*
X025192Y026857D01*
X025192Y026699D02*
X024434Y026699D01*
X024413Y026540D02*
X025192Y026540D01*
X025192Y026382D02*
X024324Y026382D01*
X023036Y026382D02*
X019391Y026382D01*
X019512Y026540D02*
X022947Y026540D01*
X022926Y026699D02*
X019540Y026699D01*
X019496Y026857D02*
X022962Y026857D01*
X023073Y027016D02*
X019311Y027016D01*
X018363Y024004D02*
X018299Y024004D01*
X018403Y023846D02*
X018547Y023846D01*
X018434Y023687D02*
X018876Y023687D01*
X018779Y023529D02*
X019034Y023529D01*
X018991Y023370D02*
X019193Y023370D01*
X019040Y023212D02*
X019351Y023212D01*
X019510Y023053D02*
X019017Y023053D01*
X018904Y022895D02*
X019668Y022895D01*
X019820Y022736D02*
X018434Y022736D01*
X018429Y022578D02*
X019833Y022578D01*
X019932Y022419D02*
X018362Y022419D01*
X018382Y022895D02*
X018456Y022895D01*
X018409Y023529D02*
X018581Y023529D01*
X022131Y020834D02*
X022952Y020834D01*
X022926Y020676D02*
X022040Y020676D01*
X022002Y020517D02*
X022956Y020517D01*
X023059Y020359D02*
X022798Y020359D01*
X022957Y020200D02*
X024363Y020200D01*
X024261Y020042D02*
X024470Y020042D01*
X024470Y019883D02*
X024387Y019883D01*
X024970Y021151D02*
X022448Y021151D01*
X022290Y020993D02*
X023050Y020993D01*
X023108Y021310D02*
X022607Y021310D01*
X023055Y022102D02*
X023208Y022102D01*
X023202Y022261D02*
X022896Y022261D01*
X024158Y022261D02*
X024302Y022261D01*
X024152Y022102D02*
X024461Y022102D01*
X024409Y023529D02*
X025192Y023529D01*
X025192Y023687D02*
X024434Y023687D01*
X024403Y023846D02*
X025192Y023846D01*
X025192Y024004D02*
X024299Y024004D01*
X025192Y027967D02*
X012690Y027967D01*
X012532Y028125D02*
X025192Y028125D01*
X025192Y028284D02*
X012373Y028284D01*
X012215Y028442D02*
X025192Y028442D01*
X025192Y028601D02*
X012056Y028601D01*
X011898Y028759D02*
X012954Y028759D01*
X012991Y028723D02*
X013171Y028723D01*
X013171Y029171D01*
X013189Y029171D01*
X013189Y029189D01*
X013637Y029189D01*
X013637Y029369D01*
X013369Y029637D01*
X013189Y029637D01*
X013189Y029189D01*
X013171Y029189D01*
X013171Y029637D01*
X012991Y029637D01*
X012723Y029369D01*
X012723Y029189D01*
X013171Y029189D01*
X013171Y029171D01*
X012723Y029171D01*
X012723Y028991D01*
X012991Y028723D01*
X013171Y028759D02*
X013189Y028759D01*
X013189Y028723D02*
X013369Y028723D01*
X013637Y028991D01*
X013637Y029171D01*
X013189Y029171D01*
X013189Y028723D01*
X013171Y028918D02*
X013189Y028918D01*
X013189Y029076D02*
X013171Y029076D01*
X013171Y029235D02*
X013189Y029235D01*
X013189Y029393D02*
X013171Y029393D01*
X013171Y029552D02*
X013189Y029552D01*
X013455Y029552D02*
X025192Y029552D01*
X025192Y029710D02*
X009660Y029710D01*
X009660Y029552D02*
X010933Y029552D01*
X010775Y029393D02*
X009660Y029393D01*
X009660Y029235D02*
X010743Y029235D01*
X010743Y029076D02*
X009660Y029076D01*
X009660Y028918D02*
X010824Y028918D01*
X010983Y028759D02*
X009660Y028759D01*
X009660Y028601D02*
X011462Y028601D01*
X011621Y028442D02*
X009660Y028442D01*
X009660Y028284D02*
X011779Y028284D01*
X011938Y028125D02*
X009660Y028125D01*
X009660Y027967D02*
X012096Y027967D01*
X012255Y027808D02*
X009660Y027808D01*
X009660Y027650D02*
X012413Y027650D01*
X012572Y027491D02*
X009660Y027491D01*
X009660Y029869D02*
X025192Y029869D01*
X025192Y030027D02*
X009660Y030027D01*
X011427Y029552D02*
X012905Y029552D01*
X012747Y029393D02*
X011585Y029393D01*
X011617Y029235D02*
X012723Y029235D01*
X012723Y029076D02*
X011617Y029076D01*
X011739Y028918D02*
X012796Y028918D01*
X013406Y028759D02*
X025192Y028759D01*
X025192Y028918D02*
X013564Y028918D01*
X013637Y029076D02*
X025192Y029076D01*
X025192Y029235D02*
X013637Y029235D01*
X013613Y029393D02*
X025192Y029393D01*
X013189Y027016D02*
X013171Y027016D01*
X013171Y026857D02*
X013189Y026857D01*
X013189Y026699D02*
X013171Y026699D01*
X013171Y026540D02*
X013189Y026540D01*
X013189Y026382D02*
X013171Y026382D01*
X006743Y020676D02*
X001617Y020676D01*
X001586Y020517D02*
X006774Y020517D01*
X006062Y020359D02*
X001477Y020359D01*
X001437Y020042D02*
X005745Y020042D01*
X005903Y020200D02*
X000660Y020200D01*
X000660Y020042D02*
X000923Y020042D01*
X000791Y019883D02*
X000660Y019883D01*
X000660Y019725D02*
X000743Y019725D01*
X000754Y019566D02*
X000660Y019566D01*
X000660Y019408D02*
X000834Y019408D01*
X000660Y019249D02*
X001078Y019249D01*
X001029Y019091D02*
X000660Y019091D01*
X000660Y018932D02*
X000814Y018932D01*
X000746Y018774D02*
X000660Y018774D01*
X000660Y018615D02*
X000743Y018615D01*
X000799Y018457D02*
X000660Y018457D01*
X000660Y018298D02*
X000960Y018298D01*
X000863Y017981D02*
X000660Y017981D01*
X000660Y017823D02*
X000766Y017823D01*
X000743Y017664D02*
X000660Y017664D01*
X000660Y017506D02*
X000779Y017506D01*
X000895Y017347D02*
X000660Y017347D01*
X000660Y017189D02*
X001374Y017189D01*
X001267Y017117D02*
X001428Y017051D01*
X001551Y016928D01*
X001617Y016767D01*
X001617Y016593D01*
X001551Y016432D01*
X001428Y016309D01*
X001267Y016243D01*
X001093Y016243D01*
X000932Y016309D01*
X000809Y016432D01*
X000743Y016593D01*
X000743Y016767D01*
X000809Y016928D01*
X000932Y017051D01*
X001093Y017117D01*
X001267Y017117D01*
X001448Y017030D02*
X001533Y017030D01*
X001574Y016872D02*
X001691Y016872D01*
X001617Y016713D02*
X001850Y016713D01*
X002008Y016555D02*
X001601Y016555D01*
X001514Y016396D02*
X002955Y016396D01*
X002533Y017030D02*
X002127Y017030D01*
X001968Y017189D02*
X002374Y017189D01*
X002216Y017347D02*
X001810Y017347D01*
X001651Y017506D02*
X002057Y017506D01*
X001899Y017664D02*
X001617Y017664D01*
X001594Y017823D02*
X001740Y017823D01*
X001582Y017981D02*
X001497Y017981D01*
X001423Y018140D02*
X000660Y018140D01*
X000660Y017030D02*
X000912Y017030D01*
X000786Y016872D02*
X000660Y016872D01*
X000660Y016713D02*
X000743Y016713D01*
X000759Y016555D02*
X000660Y016555D01*
X000660Y016396D02*
X000846Y016396D01*
X000660Y016238D02*
X001441Y016238D01*
X001001Y016079D02*
X000660Y016079D01*
X000660Y015921D02*
X000806Y015921D01*
X000743Y015762D02*
X000660Y015762D01*
X000660Y015604D02*
X000743Y015604D01*
X000804Y015445D02*
X000660Y015445D01*
X000660Y015287D02*
X000988Y015287D01*
X000851Y014970D02*
X000660Y014970D01*
X000660Y015128D02*
X001320Y015128D01*
X000761Y014811D02*
X000660Y014811D01*
X000660Y014653D02*
X000743Y014653D01*
X000784Y014494D02*
X000660Y014494D01*
X000660Y014336D02*
X000906Y014336D01*
X000973Y013068D02*
X000660Y013068D01*
X000660Y012909D02*
X000802Y012909D01*
X000743Y012751D02*
X000660Y012751D01*
X000660Y012592D02*
X000743Y012592D01*
X000809Y012434D02*
X000660Y012434D01*
X000660Y012275D02*
X001015Y012275D01*
X001091Y012117D02*
X000660Y012117D01*
X000660Y011958D02*
X000840Y011958D01*
X000756Y011800D02*
X000660Y011800D01*
X000660Y011641D02*
X000743Y011641D01*
X000789Y011483D02*
X000660Y011483D01*
X000660Y011324D02*
X000918Y011324D01*
X000660Y011166D02*
X001397Y011166D01*
X001471Y011007D02*
X001556Y011007D01*
X001583Y010849D02*
X001714Y010849D01*
X001617Y010690D02*
X001873Y010690D01*
X002031Y010532D02*
X001625Y010532D01*
X001784Y010373D02*
X002190Y010373D01*
X002349Y010215D02*
X001942Y010215D01*
X002101Y010056D02*
X002470Y010056D01*
X002470Y009898D02*
X002259Y009898D01*
X002418Y009739D02*
X002470Y009739D01*
X002141Y009422D02*
X001540Y009422D01*
X001551Y009432D02*
X001617Y009593D01*
X001617Y009767D01*
X001551Y009928D01*
X001428Y010051D01*
X001267Y010117D01*
X001093Y010117D01*
X000932Y010051D01*
X000809Y009928D01*
X000743Y009767D01*
X000743Y009593D01*
X000809Y009432D01*
X000932Y009309D01*
X001093Y009243D01*
X001267Y009243D01*
X001428Y009309D01*
X001551Y009432D01*
X001612Y009581D02*
X001983Y009581D01*
X001824Y009739D02*
X001617Y009739D01*
X001666Y009898D02*
X001563Y009898D01*
X001507Y010056D02*
X001415Y010056D01*
X001349Y010215D02*
X000660Y010215D01*
X000660Y010373D02*
X000869Y010373D01*
X000768Y010532D02*
X000660Y010532D01*
X000660Y010690D02*
X000743Y010690D01*
X000777Y010849D02*
X000660Y010849D01*
X000660Y011007D02*
X000889Y011007D01*
X000945Y010056D02*
X000660Y010056D01*
X000660Y009898D02*
X000797Y009898D01*
X000743Y009739D02*
X000660Y009739D01*
X000660Y009581D02*
X000748Y009581D01*
X000820Y009422D02*
X000660Y009422D01*
X000660Y009264D02*
X001043Y009264D01*
X001064Y009105D02*
X000660Y009105D01*
X000660Y008947D02*
X000828Y008947D01*
X000752Y008788D02*
X000660Y008788D01*
X000660Y008630D02*
X000743Y008630D01*
X000793Y008471D02*
X000660Y008471D01*
X000660Y008313D02*
X000929Y008313D01*
X001532Y008947D02*
X002617Y008947D01*
X002458Y009105D02*
X001296Y009105D01*
X001317Y009264D02*
X002300Y009264D01*
X002890Y010056D02*
X003259Y010056D01*
X003418Y010215D02*
X002890Y010215D01*
X002784Y010373D02*
X003576Y010373D01*
X003735Y010532D02*
X002625Y010532D01*
X002467Y010690D02*
X003893Y010690D01*
X003887Y011483D02*
X004080Y011483D01*
X002633Y014336D02*
X006071Y014336D01*
X006289Y014336D02*
X006906Y014336D01*
X006784Y014494D02*
X006493Y014494D01*
X006540Y014653D02*
X006743Y014653D01*
X006761Y014811D02*
X006515Y014811D01*
X006400Y014970D02*
X006851Y014970D01*
X007454Y014336D02*
X008227Y014336D01*
X008069Y014494D02*
X007576Y014494D01*
X007617Y014653D02*
X007910Y014653D01*
X007752Y014811D02*
X007599Y014811D01*
X007593Y014970D02*
X007509Y014970D01*
X007460Y014019D02*
X008057Y014019D01*
X007865Y013860D02*
X007579Y013860D01*
X007617Y013702D02*
X007820Y013702D01*
X007847Y013543D02*
X007596Y013543D01*
X006779Y017506D02*
X002651Y017506D01*
X002493Y017664D02*
X006743Y017664D01*
X006766Y017823D02*
X002334Y017823D01*
X002176Y017981D02*
X002582Y017981D01*
X002423Y018140D02*
X002017Y018140D01*
X001859Y018298D02*
X002265Y018298D01*
X002106Y018457D02*
X001700Y018457D01*
X001617Y018615D02*
X001948Y018615D01*
X001789Y018774D02*
X001614Y018774D01*
X001631Y018932D02*
X001546Y018932D01*
X001472Y019091D02*
X001331Y019091D01*
X001314Y019249D02*
X001282Y019249D01*
X001606Y019566D02*
X005338Y019566D01*
X005320Y019725D02*
X001617Y019725D01*
X001569Y019883D02*
X005374Y019883D01*
X005443Y019408D02*
X001749Y019408D01*
X001908Y019249D02*
X002952Y019249D01*
X002794Y019091D02*
X002066Y019091D01*
X002225Y018932D02*
X002423Y018932D01*
X000883Y020359D02*
X000660Y020359D01*
X000660Y020517D02*
X000774Y020517D01*
X000743Y020676D02*
X000660Y020676D01*
X001407Y005301D02*
X001504Y005301D01*
X001346Y005143D02*
X000660Y005143D01*
X007573Y003875D02*
X007871Y003875D01*
X007820Y003716D02*
X007617Y003716D01*
X007602Y003558D02*
X007841Y003558D01*
X007952Y003399D02*
X007517Y003399D01*
X020890Y003399D02*
X023018Y003399D01*
X022939Y003558D02*
X020890Y003558D01*
X020890Y003716D02*
X022847Y003716D01*
X022689Y003875D02*
X020890Y003875D01*
X020890Y004033D02*
X022530Y004033D01*
X022372Y004192D02*
X020890Y004192D01*
X020890Y004350D02*
X022213Y004350D01*
X022055Y004509D02*
X020890Y004509D01*
X020890Y004667D02*
X021896Y004667D01*
X021738Y004826D02*
X020890Y004826D01*
X020890Y004984D02*
X021579Y004984D01*
X021421Y005143D02*
X020890Y005143D01*
X020856Y005301D02*
X021262Y005301D01*
X020890Y003241D02*
X023250Y003241D01*
X023439Y002448D02*
X020957Y002448D01*
M02*
