%
M48
M72
T01C0.0236
T02C0.0240
T03C0.0354
T04C0.0394
%
T01
X2680Y1680
X2680Y2680
X1680Y4180
X3430Y4680
X4180Y4180
X5930Y3680
X8430Y1680
X11180Y1680
X14430Y2930
X19930Y9930
X19430Y13430
X16430Y12680
X15430Y13180
X14180Y12680
X14180Y10680
X8680Y10680
X5680Y11680
X5680Y13180
X4680Y13430
X3680Y13680
X3930Y17680
X2180Y19930
X2430Y6180
X15180Y24180
X15180Y26180
X15180Y29180
X21430Y26930
X24180Y29180
X24680Y11180
X22430Y5430
X22180Y3180
X24180Y1180
T02
X23180Y1180
X23680Y2180
X21180Y5680
X20180Y4180
X19680Y3680
X20680Y2680
X19680Y1180
X18180Y2180
X19680Y4680
X20430Y7680
X22180Y7180
X18680Y8680
X16680Y10680
X16180Y10180
X15680Y9680
X15180Y9180
X15180Y10180
X15180Y11180
X13680Y10180
X14180Y8680
X15680Y7680
X15680Y6180
X15680Y5180
X15180Y4180
X14680Y4180
X12680Y4180
X11180Y5680
X11180Y6680
X12180Y6680
X12180Y7180
X12180Y8180
X11680Y10180
X11680Y12180
X11680Y12680
X12180Y12180
X12180Y14680
X11680Y14680
X11180Y16180
X11680Y16680
X11680Y17180
X12680Y17180
X14180Y17680
X15680Y19680
X15180Y20180
X14180Y21680
X12680Y21180
X12680Y20180
X11180Y20680
X10680Y22180
X12680Y22180
X15180Y23180
X15680Y22180
X18680Y21180
X20180Y22680
X20680Y22680
X21680Y20680
X22680Y21680
X19680Y18680
X19180Y17180
X20180Y15680
X19680Y15180
X19680Y14180
X20680Y14180
X21180Y14180
X22180Y13180
X21680Y16180
X18680Y14680
X16680Y17180
X16180Y18180
X15680Y15680
X15180Y15680
X9180Y15680
X8680Y16680
X8680Y17180
X8680Y18180
X8680Y19180
X5680Y19680
X3180Y16680
X2680Y18680
X1680Y15180
X2180Y14180
X3680Y11180
X4180Y10180
X4680Y10680
X4680Y11680
X3180Y9680
X3680Y9180
X2680Y8180
X2680Y7680
X3680Y7680
X4180Y7180
X4680Y5680
X6180Y5680
X6680Y6180
X6180Y4680
X8180Y3680
X8680Y4680
X9680Y7180
X9180Y8680
X8180Y8680
X8180Y10180
X9180Y11680
X9180Y13680
X8180Y13680
X6180Y14680
X6680Y11180
X6680Y10180
X5680Y8680
X3680Y2680
X4680Y2180
X6180Y1180
X12180Y1180
X16680Y6180
X14180Y6680
X18680Y23180
X18680Y24180
X19180Y26680
T03
X1180Y1680
X1180Y2680
X1180Y3680
X1180Y4680
X1180Y5680
X1180Y6680
X1180Y7680
X1180Y8680
X1180Y9680
X1180Y10680
X1180Y11680
X1180Y12680
X1180Y13680
X1180Y14680
X1180Y15680
X1180Y16680
X1180Y17680
X1180Y18680
X1180Y19680
X1180Y20680
X7180Y20680
X7180Y19680
X7180Y18680
X7180Y17680
X7180Y16680
X7180Y15680
X7180Y14680
X7180Y13680
X7180Y12680
X7180Y11680
X7180Y10680
X7180Y9680
X7180Y8680
X7180Y7680
X7180Y6680
X7180Y5680
X7180Y4680
X7180Y3680
X7180Y2680
X7180Y1680
X10180Y1680
X10180Y2680
X10180Y3680
X10180Y4680
X10180Y5680
X10180Y6680
X10180Y7680
X10180Y8680
X11180Y10680
X13180Y10680
X13180Y8680
X13180Y7680
X13180Y6680
X13180Y5680
X13180Y4680
X13180Y3680
X13180Y2680
X13180Y1680
X13180Y12680
X13180Y13680
X13180Y14680
X13180Y15680
X13180Y16680
X13180Y17680
X13180Y18680
X13180Y19680
X13180Y21680
X11180Y21680
X10180Y19680
X10180Y18680
X10180Y17680
X10180Y16680
X10180Y15680
X10180Y14680
X10180Y13680
X10180Y12680
X11180Y24180
X13180Y24180
X13180Y26680
X11180Y26680
X11180Y29180
X13180Y29180
T04
X17680Y26680
X17680Y25680
X17680Y24680
X17680Y23680
X17680Y22680
X17680Y21680
X17680Y20680
X17680Y19680
X17680Y18680
X17680Y17680
X17680Y16680
X17680Y15680
X17680Y14680
X17680Y13680
X17680Y12680
X17680Y11680
X17680Y10680
X17680Y9680
X17680Y8680
X17680Y7680
X17680Y6680
X17680Y5680
X17680Y4680
X17680Y3680
X23680Y3680
X23680Y4680
X23680Y5680
X23680Y6680
X23680Y7680
X23680Y8680
X23680Y9680
X23680Y10680
X23680Y11680
X23680Y12680
X23680Y13680
X23680Y14680
X23680Y15680
X23680Y16680
X23680Y17680
X23680Y18680
X23680Y19680
X23680Y20680
X23680Y21680
X23680Y22680
X23680Y23680
X23680Y24680
X23680Y25680
X23680Y26680
M30
