G75*
%MOIN*%
%OFA0B0*%
%FSLAX24Y24*%
%IPPOS*%
%LPD*%
%AMOC8*
5,1,8,0,0,1.08239X$1,22.5*
%
%ADD10C,0.0000*%
%ADD11C,0.0554*%
%ADD12C,0.0594*%
%ADD13R,0.0554X0.0554*%
%ADD14OC8,0.0554*%
%ADD15C,0.0100*%
%ADD16C,0.0400*%
%ADD17C,0.0396*%
%ADD18C,0.0160*%
D10*
X000180Y000180D02*
X000180Y021180D01*
X009180Y021180D01*
X009180Y030550D01*
X025672Y030550D01*
X025672Y000180D01*
X000180Y000180D01*
D11*
X001180Y001680D03*
X001180Y002680D03*
X001180Y003680D03*
X001180Y004680D03*
X001180Y005680D03*
X001180Y006680D03*
X001180Y007680D03*
X001180Y008680D03*
X001180Y009680D03*
X001180Y010680D03*
X001180Y011680D03*
X001180Y012680D03*
X001180Y013680D03*
X001180Y014680D03*
X001180Y015680D03*
X001180Y016680D03*
X001180Y017680D03*
X001180Y018680D03*
X001180Y019680D03*
X001180Y020680D03*
X007180Y020680D03*
X007180Y019680D03*
X007180Y018680D03*
X007180Y017680D03*
X007180Y016680D03*
X007180Y015680D03*
X007180Y014680D03*
X007180Y013680D03*
X007180Y012680D03*
X007180Y011680D03*
X007180Y010680D03*
X007180Y009680D03*
X007180Y008680D03*
X007180Y007680D03*
X007180Y006680D03*
X007180Y005680D03*
X007180Y004680D03*
X007180Y003680D03*
X007180Y002680D03*
X007180Y001680D03*
X010180Y001680D03*
X010180Y002680D03*
X010180Y003680D03*
X010180Y004680D03*
X010180Y005680D03*
X010180Y006680D03*
X010180Y007680D03*
X013180Y007680D03*
X013180Y006680D03*
X013180Y005680D03*
X013180Y004680D03*
X013180Y003680D03*
X013180Y002680D03*
X013180Y001680D03*
X013180Y008680D03*
X013180Y012680D03*
X013180Y013680D03*
X013180Y014680D03*
X013180Y015680D03*
X013180Y016680D03*
X013180Y017680D03*
X013180Y018680D03*
X013180Y019680D03*
X010180Y018680D03*
X010180Y017680D03*
X010180Y016680D03*
X010180Y015680D03*
X010180Y014680D03*
X010180Y013680D03*
X010180Y012680D03*
D12*
X017383Y012680D02*
X017977Y012680D01*
X017977Y013680D02*
X017383Y013680D01*
X017383Y014680D02*
X017977Y014680D01*
X017977Y015680D02*
X017383Y015680D01*
X017383Y016680D02*
X017977Y016680D01*
X017977Y017680D02*
X017383Y017680D01*
X017383Y018680D02*
X017977Y018680D01*
X017977Y019680D02*
X017383Y019680D01*
X017383Y020680D02*
X017977Y020680D01*
X017977Y021680D02*
X017383Y021680D01*
X017383Y022680D02*
X017977Y022680D01*
X017977Y023680D02*
X017383Y023680D01*
X017383Y024680D02*
X017977Y024680D01*
X017977Y025680D02*
X017383Y025680D01*
X017383Y026680D02*
X017977Y026680D01*
X023383Y026680D02*
X023977Y026680D01*
X023977Y025680D02*
X023383Y025680D01*
X023383Y024680D02*
X023977Y024680D01*
X023977Y023680D02*
X023383Y023680D01*
X023383Y022680D02*
X023977Y022680D01*
X023977Y021680D02*
X023383Y021680D01*
X023383Y020680D02*
X023977Y020680D01*
X023977Y019680D02*
X023383Y019680D01*
X023383Y018680D02*
X023977Y018680D01*
X023977Y017680D02*
X023383Y017680D01*
X023383Y016680D02*
X023977Y016680D01*
X023977Y015680D02*
X023383Y015680D01*
X023383Y014680D02*
X023977Y014680D01*
X023977Y013680D02*
X023383Y013680D01*
X023383Y012680D02*
X023977Y012680D01*
X023977Y011680D02*
X023383Y011680D01*
X023383Y010680D02*
X023977Y010680D01*
X023977Y009680D02*
X023383Y009680D01*
X023383Y008680D02*
X023977Y008680D01*
X023977Y007680D02*
X023383Y007680D01*
X023383Y006680D02*
X023977Y006680D01*
X023977Y005680D02*
X023383Y005680D01*
X023383Y004680D02*
X023977Y004680D01*
X023977Y003680D02*
X023383Y003680D01*
X017977Y003680D02*
X017383Y003680D01*
X017383Y004680D02*
X017977Y004680D01*
X017977Y005680D02*
X017383Y005680D01*
X017383Y006680D02*
X017977Y006680D01*
X017977Y007680D02*
X017383Y007680D01*
X017383Y008680D02*
X017977Y008680D01*
X017977Y009680D02*
X017383Y009680D01*
X017383Y010680D02*
X017977Y010680D01*
X017977Y011680D02*
X017383Y011680D01*
D13*
X010180Y008680D03*
X010180Y019680D03*
D14*
X011180Y021680D03*
X013180Y021680D03*
X013180Y024180D03*
X011180Y024180D03*
X011180Y026680D03*
X013180Y026680D03*
X013180Y029180D03*
X011180Y029180D03*
X011180Y010680D03*
X013180Y010680D03*
D15*
X012680Y011180D01*
X012680Y014680D01*
X012180Y015180D01*
X012180Y018680D01*
X013180Y019680D01*
X014180Y020680D01*
X014180Y021180D01*
X014680Y021680D01*
X014180Y022180D01*
X013680Y022180D01*
X013180Y021680D01*
X012680Y021680D02*
X012680Y022180D01*
X012680Y021680D02*
X012180Y021180D01*
X012180Y020680D01*
X011180Y019680D01*
X011180Y018680D01*
X010180Y017680D01*
X010180Y016680D02*
X011680Y018180D01*
X011680Y019680D01*
X012680Y020680D01*
X012680Y021180D01*
X012180Y021680D02*
X012180Y022180D01*
X013680Y023680D01*
X016680Y023680D01*
X016680Y023180D01*
X017180Y022680D01*
X017680Y022680D01*
X017680Y021680D02*
X017180Y021680D01*
X015180Y019680D01*
X015180Y018680D01*
X014180Y017680D01*
X013180Y017680D02*
X014680Y019180D01*
X014680Y021180D01*
X015680Y022180D01*
X016180Y022180D02*
X016180Y021180D01*
X015180Y020180D01*
X015680Y019680D02*
X015680Y016180D01*
X016680Y015180D01*
X016680Y014180D01*
X017180Y013680D01*
X017680Y013680D01*
X018680Y014680D02*
X018680Y009180D01*
X018180Y008680D01*
X017680Y008680D01*
X017680Y009680D02*
X017180Y009680D01*
X016180Y010680D01*
X016180Y011180D01*
X015180Y011180D01*
X015180Y010180D02*
X013680Y010180D01*
X013180Y010680D02*
X012680Y010180D01*
X012680Y009180D01*
X013180Y008680D01*
X012680Y008180D02*
X015180Y008180D01*
X015180Y009180D01*
X015680Y009680D02*
X015680Y007680D01*
X016680Y007180D02*
X017180Y007680D01*
X017680Y007680D01*
X016680Y007180D02*
X012680Y007180D01*
X012180Y006680D01*
X012180Y006180D02*
X014180Y006180D01*
X014180Y005180D01*
X015180Y004180D01*
X015180Y004680D02*
X017180Y002680D01*
X020180Y002680D01*
X022180Y004680D01*
X023680Y004680D01*
X024680Y003180D02*
X024680Y008180D01*
X024180Y008680D01*
X023680Y008680D01*
X022180Y007180D02*
X022180Y012680D01*
X022680Y013180D01*
X022680Y013680D01*
X023180Y014180D01*
X024680Y014180D01*
X024680Y017180D01*
X024180Y017680D01*
X023680Y017680D01*
X023680Y018680D02*
X024180Y018680D01*
X025180Y017680D01*
X025180Y003180D01*
X023180Y001180D01*
X023680Y002180D02*
X024680Y003180D01*
X022680Y006680D02*
X022680Y011180D01*
X023180Y011680D01*
X023680Y011680D01*
X022180Y013180D02*
X022180Y013680D01*
X023180Y014680D01*
X023680Y014680D01*
X022180Y014180D02*
X022180Y021680D01*
X019680Y024180D01*
X019680Y018680D01*
X019180Y017180D02*
X019180Y026680D01*
X019680Y026680D02*
X018680Y027680D01*
X012180Y027680D01*
X012180Y025180D01*
X011180Y024180D01*
X010180Y022680D02*
X010180Y026680D01*
X011680Y028180D01*
X022680Y028180D01*
X022680Y021680D01*
X021680Y020680D02*
X021180Y020180D01*
X021180Y014180D01*
X021680Y014180D02*
X021180Y013680D01*
X021180Y006680D01*
X020680Y006180D01*
X020680Y005180D01*
X019680Y004180D01*
X019680Y003680D01*
X020180Y004180D02*
X022680Y006680D01*
X021680Y006180D02*
X021680Y013680D01*
X022180Y014180D01*
X021680Y014180D02*
X021680Y016180D01*
X020180Y016180D02*
X019680Y015680D01*
X019680Y015180D01*
X020180Y015680D02*
X020180Y014180D01*
X020930Y013430D01*
X020930Y006930D01*
X020180Y006180D01*
X020180Y005180D01*
X019680Y004680D01*
X019180Y004680D02*
X019180Y008930D01*
X018930Y009180D01*
X018930Y014180D01*
X019180Y014430D01*
X019180Y016680D01*
X018680Y017180D01*
X018680Y021180D01*
X018180Y021180D02*
X018680Y021680D01*
X018680Y023180D01*
X018680Y024180D02*
X018680Y027180D01*
X015180Y027180D01*
X010180Y022180D01*
X010180Y020680D01*
X008680Y019180D01*
X009180Y018680D02*
X009680Y019180D01*
X010680Y019180D01*
X010680Y022180D01*
X010180Y022680D02*
X009680Y022180D01*
X009680Y020680D01*
X009180Y020180D01*
X006680Y020180D01*
X006180Y020680D01*
X001180Y020680D01*
X002680Y019180D02*
X005180Y019180D01*
X005180Y011680D01*
X005680Y011180D01*
X005680Y008680D01*
X006680Y008180D02*
X006680Y010180D01*
X007180Y009680D02*
X008680Y011180D01*
X008680Y016680D01*
X009180Y016680D02*
X008680Y017180D01*
X009180Y017680D02*
X009180Y018680D01*
X008680Y018180D02*
X006680Y018180D01*
X006180Y017680D01*
X006180Y014680D01*
X005680Y014430D02*
X006430Y013680D01*
X006430Y011680D01*
X006180Y011430D01*
X006180Y006680D01*
X006680Y006180D01*
X006180Y005680D02*
X006680Y005180D01*
X008180Y005180D01*
X008180Y004180D01*
X009180Y003180D01*
X009180Y001680D01*
X009680Y001180D01*
X011680Y001180D01*
X012180Y001680D01*
X012430Y001680D01*
X013430Y000680D01*
X020680Y000680D01*
X020680Y002680D01*
X019680Y001680D02*
X019680Y001180D01*
X019680Y001680D02*
X013180Y001680D01*
X012180Y001180D02*
X011930Y000930D01*
X006930Y000930D01*
X005180Y002680D01*
X005180Y011180D01*
X004680Y011680D01*
X004680Y010680D02*
X004680Y005680D01*
X004680Y005180D02*
X004680Y002680D01*
X006180Y001180D01*
X004680Y002180D02*
X004430Y002430D01*
X004430Y003930D01*
X004180Y004180D01*
X003680Y003180D02*
X003680Y002680D01*
X003680Y003180D02*
X001180Y005680D01*
X001180Y004680D02*
X001680Y004180D01*
X004180Y007180D02*
X004180Y009180D01*
X003680Y009680D01*
X003680Y011180D01*
X004180Y010180D02*
X004180Y015680D01*
X003180Y016680D01*
X002180Y017680D02*
X002180Y018680D01*
X002680Y019180D01*
X002680Y018680D02*
X002680Y008180D01*
X003180Y008180D02*
X002680Y007680D01*
X003180Y008180D02*
X003180Y009680D01*
X003680Y009180D02*
X003680Y007680D01*
X004680Y005180D02*
X001180Y008680D01*
X001180Y009680D02*
X002180Y010680D01*
X002180Y014180D01*
X001680Y015180D02*
X001680Y013180D01*
X001180Y012680D01*
X001180Y016680D02*
X002180Y017680D01*
X005680Y019680D02*
X005680Y014430D01*
X006680Y013180D02*
X007180Y013680D01*
X006680Y013180D02*
X006680Y012180D01*
X007180Y011680D01*
X006680Y011180D02*
X007680Y011180D01*
X008180Y011680D01*
X008180Y013680D01*
X009180Y013680D02*
X009180Y011680D01*
X010180Y011180D02*
X011180Y012180D01*
X011180Y015680D01*
X011680Y016180D01*
X011680Y016680D01*
X011680Y017180D02*
X010180Y015680D01*
X010680Y015680D02*
X010680Y015180D01*
X010180Y014680D01*
X010680Y015680D02*
X011180Y016180D01*
X011680Y014680D02*
X011680Y012680D01*
X011680Y012180D02*
X012180Y011680D01*
X012180Y008680D01*
X012680Y008180D01*
X012180Y008180D02*
X012180Y007180D01*
X011680Y006680D02*
X012180Y006180D01*
X011680Y006680D02*
X011680Y009180D01*
X009680Y009180D01*
X009180Y008680D01*
X009680Y009680D02*
X011680Y009680D01*
X011680Y010180D01*
X010180Y010180D02*
X010180Y011180D01*
X010180Y010180D02*
X008180Y010180D01*
X008180Y008680D02*
X007680Y008180D01*
X006680Y008180D01*
X008180Y008180D02*
X008180Y006680D01*
X007180Y005680D01*
X006180Y004680D02*
X006180Y004180D01*
X007680Y004180D01*
X008180Y003680D01*
X008680Y004680D02*
X008680Y007680D01*
X010180Y007680D01*
X009680Y007180D02*
X011180Y007180D01*
X011180Y006680D01*
X011180Y005680D02*
X011180Y004180D01*
X009680Y004180D01*
X009680Y003180D01*
X010180Y002680D01*
X010180Y003680D02*
X011680Y002180D01*
X018180Y002180D01*
X018180Y003680D02*
X017680Y003680D01*
X018180Y003680D02*
X019180Y004680D01*
X018680Y005180D02*
X018680Y008680D01*
X020430Y007680D02*
X020430Y013430D01*
X019680Y014180D01*
X020680Y014180D02*
X020680Y022680D01*
X020180Y022680D02*
X020180Y016180D01*
X017680Y016680D02*
X017180Y016680D01*
X016680Y017180D01*
X017180Y017680D02*
X017680Y017680D01*
X017180Y017680D02*
X016680Y018180D01*
X016180Y018180D01*
X017180Y018680D02*
X016680Y019180D01*
X016680Y020680D01*
X017180Y021180D01*
X018180Y021180D01*
X016180Y022180D02*
X015180Y023180D01*
X014180Y021680D02*
X012680Y020180D01*
X012180Y021680D02*
X011180Y020680D01*
X009180Y017680D02*
X007180Y017680D01*
X009180Y016680D02*
X009180Y015680D01*
X012180Y014680D02*
X012180Y012180D01*
X013180Y014680D02*
X016680Y011180D01*
X016680Y010680D01*
X016180Y010180D02*
X015680Y010180D01*
X014180Y008680D01*
X014180Y006680D02*
X015180Y005680D01*
X015180Y004680D01*
X014680Y004180D02*
X012680Y004180D01*
X015680Y005180D02*
X018680Y005180D01*
X016680Y006180D02*
X015680Y006180D01*
X021180Y005680D02*
X021680Y006180D01*
X015680Y015680D02*
X015180Y016180D01*
X015180Y017180D01*
X012680Y017180D01*
X013180Y015680D02*
X015180Y015680D01*
X017180Y018680D02*
X017680Y018680D01*
X019680Y024180D02*
X019680Y026680D01*
X012180Y027680D02*
X011680Y027680D01*
X011680Y027180D01*
X011180Y026680D01*
X009680Y009680D02*
X008180Y008180D01*
D16*
X008180Y008680D03*
X009180Y008680D03*
X008180Y010180D03*
X009180Y011680D03*
X009180Y013680D03*
X008180Y013680D03*
X009180Y015680D03*
X008680Y016680D03*
X008680Y017180D03*
X008680Y018180D03*
X008680Y019180D03*
X010680Y022180D03*
X011180Y020680D03*
X012680Y020180D03*
X012680Y021180D03*
X012680Y022180D03*
X014180Y021680D03*
X015180Y020180D03*
X015680Y019680D03*
X016180Y018180D03*
X016680Y017180D03*
X015680Y015680D03*
X015180Y015680D03*
X014180Y017680D03*
X012680Y017180D03*
X011680Y017180D03*
X011680Y016680D03*
X011180Y016180D03*
X011680Y014680D03*
X012180Y014680D03*
X011680Y012680D03*
X011680Y012180D03*
X012180Y012180D03*
X011680Y010180D03*
X012180Y008180D03*
X012180Y007180D03*
X012180Y006680D03*
X011180Y006680D03*
X011180Y005680D03*
X012680Y004180D03*
X014680Y004180D03*
X015180Y004180D03*
X015680Y005180D03*
X015680Y006180D03*
X016680Y006180D03*
X015680Y007680D03*
X015180Y009180D03*
X015680Y009680D03*
X015180Y010180D03*
X015180Y011180D03*
X016180Y010180D03*
X016680Y010680D03*
X018680Y008680D03*
X020430Y007680D03*
X022180Y007180D03*
X021180Y005680D03*
X020180Y004180D03*
X019680Y003680D03*
X020680Y002680D03*
X019680Y001180D03*
X018180Y002180D03*
X019680Y004680D03*
X023180Y001180D03*
X023680Y002180D03*
X022180Y013180D03*
X021180Y014180D03*
X020680Y014180D03*
X019680Y014180D03*
X019680Y015180D03*
X020180Y015680D03*
X021680Y016180D03*
X019680Y018680D03*
X019180Y017180D03*
X018680Y014680D03*
X014180Y008680D03*
X013680Y010180D03*
X014180Y006680D03*
X009680Y007180D03*
X008680Y004680D03*
X008180Y003680D03*
X006180Y004680D03*
X006180Y005680D03*
X006680Y006180D03*
X004680Y005680D03*
X004180Y007180D03*
X003680Y007680D03*
X002680Y007680D03*
X002680Y008180D03*
X003680Y009180D03*
X003180Y009680D03*
X004180Y010180D03*
X004680Y010680D03*
X004680Y011680D03*
X003680Y011180D03*
X005680Y008680D03*
X006680Y010180D03*
X006680Y011180D03*
X006180Y014680D03*
X003180Y016680D03*
X002680Y018680D03*
X005680Y019680D03*
X001680Y015180D03*
X002180Y014180D03*
X003680Y002680D03*
X004680Y002180D03*
X006180Y001180D03*
X012180Y001180D03*
X021680Y020680D03*
X022680Y021680D03*
X020680Y022680D03*
X020180Y022680D03*
X018680Y023180D03*
X018680Y024180D03*
X019180Y026680D03*
X015680Y022180D03*
X015180Y023180D03*
X018680Y021180D03*
D17*
X015180Y024180D03*
X015180Y026180D03*
X015180Y029180D03*
X021430Y026930D03*
X024180Y029180D03*
X019430Y013430D03*
X019930Y009930D03*
X016430Y012680D03*
X015430Y013180D03*
X014180Y012680D03*
X014180Y010680D03*
X008680Y010680D03*
X005680Y011680D03*
X005680Y013180D03*
X004680Y013430D03*
X003680Y013680D03*
X003930Y017680D03*
X002180Y019930D03*
X002430Y006180D03*
X003430Y004680D03*
X004180Y004180D03*
X005930Y003680D03*
X008430Y001680D03*
X011180Y001680D03*
X014430Y002930D03*
X022180Y003180D03*
X022430Y005430D03*
X024180Y001180D03*
X024680Y011180D03*
X002680Y002680D03*
X002680Y001680D03*
X001680Y004180D03*
D18*
X001823Y004509D02*
X002055Y004509D01*
X001984Y004383D02*
X001883Y004484D01*
X001751Y004538D01*
X001619Y004538D01*
X001602Y004555D01*
X001617Y004593D01*
X001617Y004767D01*
X001551Y004928D01*
X001428Y005051D01*
X001267Y005117D01*
X001093Y005117D01*
X000932Y005051D01*
X000809Y004928D01*
X000743Y004767D01*
X000743Y004593D01*
X000809Y004432D01*
X000932Y004309D01*
X001093Y004243D01*
X001267Y004243D01*
X001305Y004258D01*
X001322Y004241D01*
X001322Y004109D01*
X001329Y004091D01*
X001267Y004117D01*
X001093Y004117D01*
X000932Y004051D01*
X000809Y003928D01*
X000743Y003767D01*
X000743Y003593D01*
X000809Y003432D01*
X000932Y003309D01*
X001093Y003243D01*
X001267Y003243D01*
X001428Y003309D01*
X001551Y003432D01*
X001617Y003593D01*
X001617Y003767D01*
X001591Y003829D01*
X001609Y003822D01*
X001751Y003822D01*
X001883Y003876D01*
X001984Y003977D01*
X002038Y004109D01*
X002038Y004251D01*
X001984Y004383D01*
X001997Y004350D02*
X002213Y004350D01*
X002372Y004192D02*
X002038Y004192D01*
X002007Y004033D02*
X002530Y004033D01*
X002689Y003875D02*
X001878Y003875D01*
X001617Y003716D02*
X002847Y003716D01*
X003006Y003558D02*
X001602Y003558D01*
X001517Y003399D02*
X003164Y003399D01*
X003323Y003241D02*
X000660Y003241D01*
X000660Y003399D02*
X000843Y003399D01*
X000758Y003558D02*
X000660Y003558D01*
X000660Y003716D02*
X000743Y003716D01*
X000787Y003875D02*
X000660Y003875D01*
X000660Y004033D02*
X000915Y004033D01*
X000660Y004192D02*
X001322Y004192D01*
X000892Y004350D02*
X000660Y004350D01*
X000660Y004509D02*
X000778Y004509D01*
X000743Y004667D02*
X000660Y004667D01*
X000660Y004826D02*
X000767Y004826D01*
X000866Y004984D02*
X000660Y004984D01*
X000660Y005143D02*
X001421Y005143D01*
X001305Y005258D02*
X003470Y003093D01*
X003470Y002979D01*
X003375Y002884D01*
X003320Y002752D01*
X003320Y002608D01*
X003375Y002476D01*
X003476Y002375D01*
X003608Y002320D01*
X003752Y002320D01*
X003884Y002375D01*
X003985Y002476D01*
X004040Y002608D01*
X004040Y002752D01*
X003985Y002884D01*
X003890Y002979D01*
X003890Y003267D01*
X003767Y003390D01*
X001602Y005555D01*
X001617Y005593D01*
X001617Y005767D01*
X001551Y005928D01*
X001428Y006051D01*
X001267Y006117D01*
X001093Y006117D01*
X000932Y006051D01*
X000809Y005928D01*
X000743Y005767D01*
X000743Y005593D01*
X000809Y005432D01*
X000932Y005309D01*
X001093Y005243D01*
X001267Y005243D01*
X001305Y005258D01*
X001494Y004984D02*
X001579Y004984D01*
X001593Y004826D02*
X001738Y004826D01*
X001617Y004667D02*
X001896Y004667D01*
X002173Y004984D02*
X004470Y004984D01*
X004470Y005093D02*
X004470Y004396D01*
X004383Y004484D01*
X004251Y004538D01*
X004109Y004538D01*
X003977Y004484D01*
X003876Y004383D01*
X003822Y004251D01*
X003822Y004109D01*
X003876Y003977D01*
X003977Y003876D01*
X004109Y003822D01*
X004220Y003822D01*
X004220Y002343D01*
X004320Y002243D01*
X004320Y002108D01*
X004375Y001976D01*
X004476Y001875D01*
X004608Y001820D01*
X004752Y001820D01*
X004884Y001875D01*
X004985Y001976D01*
X005015Y002048D01*
X005820Y001243D01*
X005820Y001108D01*
X005875Y000976D01*
X005976Y000875D01*
X006108Y000820D01*
X006252Y000820D01*
X006384Y000875D01*
X006485Y000976D01*
X006515Y001048D01*
X006720Y000843D01*
X006843Y000720D01*
X012017Y000720D01*
X012117Y000820D01*
X012252Y000820D01*
X012384Y000875D01*
X012485Y000976D01*
X012540Y001108D01*
X012540Y001252D01*
X012525Y001288D01*
X013153Y000660D01*
X000660Y000660D01*
X000660Y020700D01*
X000743Y020700D01*
X000743Y020593D01*
X000809Y020432D01*
X000932Y020309D01*
X001093Y020243D01*
X001267Y020243D01*
X001428Y020309D01*
X001551Y020432D01*
X001566Y020470D01*
X006093Y020470D01*
X006470Y020093D01*
X006593Y019970D01*
X006852Y019970D01*
X006809Y019928D01*
X006743Y019767D01*
X006743Y019593D01*
X006809Y019432D01*
X006932Y019309D01*
X007093Y019243D01*
X007267Y019243D01*
X007428Y019309D01*
X007551Y019432D01*
X007617Y019593D01*
X007617Y019767D01*
X007551Y019928D01*
X007508Y019970D01*
X009173Y019970D01*
X008743Y019540D01*
X008608Y019540D01*
X008476Y019485D01*
X008375Y019384D01*
X008320Y019252D01*
X008320Y019108D01*
X008375Y018976D01*
X008476Y018875D01*
X008608Y018820D01*
X008752Y018820D01*
X008884Y018875D01*
X008985Y018976D01*
X009040Y019108D01*
X009040Y019243D01*
X009743Y019946D01*
X009743Y019390D01*
X009593Y019390D01*
X009470Y019267D01*
X008970Y018767D01*
X008970Y018399D01*
X008884Y018485D01*
X008752Y018540D01*
X008608Y018540D01*
X008476Y018485D01*
X008381Y018390D01*
X007508Y018390D01*
X007551Y018432D01*
X007617Y018593D01*
X007617Y018767D01*
X007551Y018928D01*
X007428Y019051D01*
X007267Y019117D01*
X007093Y019117D01*
X006932Y019051D01*
X006809Y018928D01*
X006743Y018767D01*
X006743Y018593D01*
X006809Y018432D01*
X006852Y018390D01*
X006593Y018390D01*
X006470Y018267D01*
X005970Y017767D01*
X005970Y014979D01*
X005890Y014899D01*
X005890Y019381D01*
X005985Y019476D01*
X006040Y019608D01*
X006040Y019752D01*
X005985Y019884D01*
X005884Y019985D01*
X005752Y020040D01*
X005608Y020040D01*
X005476Y019985D01*
X005375Y019884D01*
X005320Y019752D01*
X005320Y019608D01*
X005375Y019476D01*
X005470Y019381D01*
X005470Y014343D01*
X006220Y013593D01*
X006220Y011767D01*
X005970Y011517D01*
X005970Y008899D01*
X005890Y008979D01*
X005890Y011267D01*
X005767Y011390D01*
X005390Y011767D01*
X005390Y019267D01*
X005267Y019390D01*
X002593Y019390D01*
X002470Y019267D01*
X001970Y018767D01*
X001970Y017767D01*
X001305Y017102D01*
X001267Y017117D01*
X001093Y017117D01*
X000932Y017051D01*
X000809Y016928D01*
X000743Y016767D01*
X000743Y016593D01*
X000809Y016432D01*
X000932Y016309D01*
X001093Y016243D01*
X001267Y016243D01*
X001428Y016309D01*
X001551Y016432D01*
X001617Y016593D01*
X001617Y016767D01*
X001602Y016805D01*
X002267Y017470D01*
X002390Y017593D01*
X002390Y018461D01*
X002470Y018381D01*
X002470Y014399D01*
X002384Y014485D01*
X002252Y014540D01*
X002108Y014540D01*
X001976Y014485D01*
X001890Y014399D01*
X001890Y014881D01*
X001985Y014976D01*
X002040Y015108D01*
X002040Y015252D01*
X001985Y015384D01*
X001884Y015485D01*
X001752Y015540D01*
X001608Y015540D01*
X001592Y015533D01*
X001617Y015593D01*
X001617Y015767D01*
X001551Y015928D01*
X001428Y016051D01*
X001267Y016117D01*
X001093Y016117D01*
X000932Y016051D01*
X000809Y015928D01*
X000743Y015767D01*
X000743Y015593D01*
X000809Y015432D01*
X000932Y015309D01*
X001093Y015243D01*
X001267Y015243D01*
X001327Y015268D01*
X001320Y015252D01*
X001320Y015108D01*
X001327Y015092D01*
X001267Y015117D01*
X001093Y015117D01*
X000932Y015051D01*
X000809Y014928D01*
X000743Y014767D01*
X000743Y014593D01*
X000809Y014432D01*
X000932Y014309D01*
X001093Y014243D01*
X001267Y014243D01*
X001428Y014309D01*
X001470Y014352D01*
X001470Y014008D01*
X001428Y014051D01*
X001267Y014117D01*
X001093Y014117D01*
X000932Y014051D01*
X000809Y013928D01*
X000743Y013767D01*
X000743Y013593D01*
X000809Y013432D01*
X000932Y013309D01*
X001093Y013243D01*
X001267Y013243D01*
X001428Y013309D01*
X001470Y013352D01*
X001470Y013267D01*
X001305Y013102D01*
X001267Y013117D01*
X001093Y013117D01*
X000932Y013051D01*
X000809Y012928D01*
X000743Y012767D01*
X000743Y012593D01*
X000809Y012432D01*
X000932Y012309D01*
X001093Y012243D01*
X001267Y012243D01*
X001428Y012309D01*
X001551Y012432D01*
X001617Y012593D01*
X001617Y012767D01*
X001602Y012805D01*
X001767Y012970D01*
X001890Y013093D01*
X001890Y013961D01*
X001970Y013881D01*
X001970Y010767D01*
X001305Y010102D01*
X001267Y010117D01*
X001093Y010117D01*
X000932Y010051D01*
X000809Y009928D01*
X000743Y009767D01*
X000743Y009593D01*
X000809Y009432D01*
X000932Y009309D01*
X001093Y009243D01*
X001267Y009243D01*
X001428Y009309D01*
X001551Y009432D01*
X001617Y009593D01*
X001617Y009767D01*
X001602Y009805D01*
X002267Y010470D01*
X002390Y010593D01*
X002390Y013881D01*
X002470Y013961D01*
X002470Y008479D01*
X002375Y008384D01*
X002320Y008252D01*
X002320Y008108D01*
X002375Y007976D01*
X002421Y007930D01*
X002375Y007884D01*
X002345Y007812D01*
X001602Y008555D01*
X001617Y008593D01*
X001617Y008767D01*
X001551Y008928D01*
X001428Y009051D01*
X001267Y009117D01*
X001093Y009117D01*
X000932Y009051D01*
X000809Y008928D01*
X000743Y008767D01*
X000743Y008593D01*
X000809Y008432D01*
X000932Y008309D01*
X001093Y008243D01*
X001267Y008243D01*
X001305Y008258D01*
X004470Y005093D01*
X004421Y005143D02*
X002014Y005143D01*
X001856Y005301D02*
X004262Y005301D01*
X004104Y005460D02*
X001697Y005460D01*
X001617Y005618D02*
X003945Y005618D01*
X003787Y005777D02*
X001613Y005777D01*
X001543Y005935D02*
X003628Y005935D01*
X003470Y006094D02*
X001324Y006094D01*
X001267Y006243D02*
X001428Y006309D01*
X001551Y006432D01*
X001617Y006593D01*
X001617Y006767D01*
X001551Y006928D01*
X001428Y007051D01*
X001267Y007117D01*
X001093Y007117D01*
X000932Y007051D01*
X000809Y006928D01*
X000743Y006767D01*
X000743Y006593D01*
X000809Y006432D01*
X000932Y006309D01*
X001093Y006243D01*
X001267Y006243D01*
X001289Y006252D02*
X003311Y006252D01*
X003153Y006411D02*
X001529Y006411D01*
X001607Y006569D02*
X002994Y006569D01*
X002836Y006728D02*
X001617Y006728D01*
X001568Y006886D02*
X002677Y006886D01*
X002519Y007045D02*
X001434Y007045D01*
X001267Y007243D02*
X001428Y007309D01*
X001551Y007432D01*
X001617Y007593D01*
X001617Y007767D01*
X001551Y007928D01*
X001428Y008051D01*
X001267Y008117D01*
X001093Y008117D01*
X000932Y008051D01*
X000809Y007928D01*
X000743Y007767D01*
X000743Y007593D01*
X000809Y007432D01*
X000932Y007309D01*
X001093Y007243D01*
X001267Y007243D01*
X001480Y007362D02*
X002202Y007362D01*
X002360Y007203D02*
X000660Y007203D01*
X000660Y007045D02*
X000926Y007045D01*
X000792Y006886D02*
X000660Y006886D01*
X000660Y006728D02*
X000743Y006728D01*
X000753Y006569D02*
X000660Y006569D01*
X000660Y006411D02*
X000831Y006411D01*
X000660Y006252D02*
X001071Y006252D01*
X001036Y006094D02*
X000660Y006094D01*
X000660Y005935D02*
X000817Y005935D01*
X000747Y005777D02*
X000660Y005777D01*
X000660Y005618D02*
X000743Y005618D01*
X000798Y005460D02*
X000660Y005460D01*
X000660Y005301D02*
X000953Y005301D01*
X002331Y004826D02*
X004470Y004826D01*
X004470Y004667D02*
X002490Y004667D01*
X002648Y004509D02*
X004037Y004509D01*
X003863Y004350D02*
X002807Y004350D01*
X002965Y004192D02*
X003822Y004192D01*
X003853Y004033D02*
X003124Y004033D01*
X003282Y003875D02*
X003982Y003875D01*
X004220Y003716D02*
X003441Y003716D01*
X003599Y003558D02*
X004220Y003558D01*
X004220Y003399D02*
X003758Y003399D01*
X003890Y003241D02*
X004220Y003241D01*
X004220Y003082D02*
X003890Y003082D01*
X003946Y002924D02*
X004220Y002924D01*
X004220Y002765D02*
X004034Y002765D01*
X004039Y002607D02*
X004220Y002607D01*
X004220Y002448D02*
X003957Y002448D01*
X004274Y002290D02*
X001380Y002290D01*
X001428Y002309D02*
X001551Y002432D01*
X001617Y002593D01*
X001617Y002767D01*
X001551Y002928D01*
X001428Y003051D01*
X001267Y003117D01*
X001093Y003117D01*
X000932Y003051D01*
X000809Y002928D01*
X000743Y002767D01*
X000743Y002593D01*
X000809Y002432D01*
X000932Y002309D01*
X001093Y002243D01*
X001267Y002243D01*
X001428Y002309D01*
X001557Y002448D02*
X003403Y002448D01*
X003321Y002607D02*
X001617Y002607D01*
X001617Y002765D02*
X003326Y002765D01*
X003414Y002924D02*
X001552Y002924D01*
X001352Y003082D02*
X003470Y003082D01*
X004320Y002131D02*
X001255Y002131D01*
X001287Y002126D02*
X001216Y002137D01*
X001189Y002137D01*
X001189Y001689D01*
X001637Y001689D01*
X001637Y001716D01*
X001626Y001787D01*
X001604Y001855D01*
X001571Y001920D01*
X001529Y001978D01*
X001478Y002029D01*
X001420Y002071D01*
X001355Y002104D01*
X001287Y002126D01*
X001189Y002131D02*
X001171Y002131D01*
X001171Y002137D02*
X001144Y002137D01*
X001073Y002126D01*
X001005Y002104D01*
X000940Y002071D01*
X000882Y002029D01*
X000831Y001978D01*
X000789Y001920D01*
X000756Y001855D01*
X000734Y001787D01*
X000723Y001716D01*
X000723Y001689D01*
X001171Y001689D01*
X001171Y002137D01*
X001105Y002131D02*
X000660Y002131D01*
X000660Y001973D02*
X000827Y001973D01*
X000743Y001814D02*
X000660Y001814D01*
X000723Y001671D02*
X000723Y001644D01*
X000734Y001573D01*
X000756Y001505D01*
X000789Y001440D01*
X000831Y001382D01*
X000882Y001331D01*
X000940Y001289D01*
X001005Y001256D01*
X001073Y001234D01*
X001144Y001223D01*
X001171Y001223D01*
X001171Y001671D01*
X001189Y001671D01*
X001189Y001689D01*
X001171Y001689D01*
X001171Y001671D01*
X000723Y001671D01*
X000723Y001656D02*
X000660Y001656D01*
X000660Y001497D02*
X000760Y001497D01*
X000660Y001339D02*
X000875Y001339D01*
X000660Y001180D02*
X005820Y001180D01*
X005856Y001021D02*
X000660Y001021D01*
X000660Y000863D02*
X006005Y000863D01*
X006355Y000863D02*
X006700Y000863D01*
X006720Y000843D02*
X006720Y000843D01*
X006542Y001021D02*
X006504Y001021D01*
X006818Y001339D02*
X006903Y001339D01*
X006932Y001309D02*
X007093Y001243D01*
X007267Y001243D01*
X007428Y001309D01*
X007551Y001432D01*
X007617Y001593D01*
X007617Y001767D01*
X007551Y001928D01*
X007428Y002051D01*
X007267Y002117D01*
X007093Y002117D01*
X006932Y002051D01*
X006809Y001928D01*
X006743Y001767D01*
X006743Y001593D01*
X006809Y001432D01*
X006932Y001309D01*
X006977Y001180D02*
X009383Y001180D01*
X009423Y001140D02*
X007017Y001140D01*
X005390Y002767D01*
X005390Y008461D01*
X005476Y008375D01*
X005608Y008320D01*
X005752Y008320D01*
X005884Y008375D01*
X005970Y008461D01*
X005970Y006593D01*
X006093Y006470D01*
X006320Y006243D01*
X006320Y006108D01*
X006368Y005992D01*
X006252Y006040D01*
X006108Y006040D01*
X005976Y005985D01*
X005875Y005884D01*
X005820Y005752D01*
X005820Y005608D01*
X005875Y005476D01*
X005976Y005375D01*
X006108Y005320D01*
X006243Y005320D01*
X006470Y005093D01*
X006593Y004970D01*
X006852Y004970D01*
X006809Y004928D01*
X006743Y004767D01*
X006743Y004593D01*
X006809Y004432D01*
X006852Y004390D01*
X006399Y004390D01*
X006485Y004476D01*
X006540Y004608D01*
X006540Y004752D01*
X006485Y004884D01*
X006384Y004985D01*
X006252Y005040D01*
X006108Y005040D01*
X005976Y004985D01*
X005875Y004884D01*
X005820Y004752D01*
X005820Y004608D01*
X005875Y004476D01*
X005970Y004381D01*
X005970Y004093D01*
X006093Y003970D01*
X006852Y003970D01*
X006809Y003928D01*
X006743Y003767D01*
X006743Y003593D01*
X006809Y003432D01*
X006932Y003309D01*
X007093Y003243D01*
X007267Y003243D01*
X007428Y003309D01*
X007551Y003432D01*
X007617Y003593D01*
X007617Y003767D01*
X007551Y003928D01*
X007508Y003970D01*
X007593Y003970D01*
X007820Y003743D01*
X007820Y003608D01*
X007875Y003476D01*
X007976Y003375D01*
X008108Y003320D01*
X008252Y003320D01*
X008384Y003375D01*
X008485Y003476D01*
X008515Y003548D01*
X008970Y003093D01*
X008970Y001593D01*
X009423Y001140D01*
X009225Y001339D02*
X007457Y001339D01*
X007577Y001497D02*
X009066Y001497D01*
X008970Y001656D02*
X007617Y001656D01*
X007598Y001814D02*
X008970Y001814D01*
X008970Y001973D02*
X007506Y001973D01*
X007380Y002290D02*
X008970Y002290D01*
X008970Y002448D02*
X007557Y002448D01*
X007551Y002432D02*
X007617Y002593D01*
X007617Y002767D01*
X007551Y002928D01*
X007428Y003051D01*
X007267Y003117D01*
X007093Y003117D01*
X006932Y003051D01*
X006809Y002928D01*
X006743Y002767D01*
X006743Y002593D01*
X006809Y002432D01*
X006932Y002309D01*
X007093Y002243D01*
X007267Y002243D01*
X007428Y002309D01*
X007551Y002432D01*
X007617Y002607D02*
X008970Y002607D01*
X008970Y002765D02*
X007617Y002765D01*
X007552Y002924D02*
X008970Y002924D01*
X008970Y003082D02*
X007352Y003082D01*
X007008Y003082D02*
X005390Y003082D01*
X005390Y002924D02*
X006808Y002924D01*
X006743Y002765D02*
X005392Y002765D01*
X005550Y002607D02*
X006743Y002607D01*
X006803Y002448D02*
X005709Y002448D01*
X005867Y002290D02*
X006980Y002290D01*
X006854Y001973D02*
X006184Y001973D01*
X006026Y002131D02*
X008970Y002131D01*
X009390Y002131D02*
X010105Y002131D01*
X010073Y002126D02*
X010144Y002137D01*
X010171Y002137D01*
X010171Y001689D01*
X010189Y001689D01*
X010189Y002137D01*
X010216Y002137D01*
X010287Y002126D01*
X010355Y002104D01*
X010420Y002071D01*
X010478Y002029D01*
X010529Y001978D01*
X010571Y001920D01*
X010604Y001855D01*
X010626Y001787D01*
X010637Y001716D01*
X010637Y001689D01*
X010189Y001689D01*
X010189Y001671D01*
X010637Y001671D01*
X010637Y001644D01*
X010626Y001573D01*
X010604Y001505D01*
X010571Y001440D01*
X010534Y001390D01*
X010964Y001390D01*
X010876Y001477D01*
X010822Y001609D01*
X010822Y001751D01*
X010876Y001883D01*
X010977Y001984D01*
X011109Y002038D01*
X011251Y002038D01*
X011383Y001984D01*
X011484Y001883D01*
X011538Y001751D01*
X011538Y001609D01*
X011484Y001477D01*
X011396Y001390D01*
X011593Y001390D01*
X011970Y001767D01*
X012093Y001890D01*
X012517Y001890D01*
X012743Y001664D01*
X012743Y001767D01*
X012809Y001928D01*
X012852Y001970D01*
X011593Y001970D01*
X011470Y002093D01*
X010305Y003258D01*
X010267Y003243D01*
X010093Y003243D01*
X009932Y003309D01*
X009890Y003352D01*
X009890Y003267D01*
X010055Y003102D01*
X010093Y003117D01*
X010267Y003117D01*
X010428Y003051D01*
X010551Y002928D01*
X010617Y002767D01*
X010617Y002593D01*
X010551Y002432D01*
X010428Y002309D01*
X010267Y002243D01*
X010093Y002243D01*
X009932Y002309D01*
X009809Y002432D01*
X009743Y002593D01*
X009743Y002767D01*
X009758Y002805D01*
X009593Y002970D01*
X009470Y003093D01*
X009470Y004267D01*
X009593Y004390D01*
X009852Y004390D01*
X009809Y004432D01*
X009743Y004593D01*
X009743Y004767D01*
X009809Y004928D01*
X009932Y005051D01*
X010093Y005117D01*
X010267Y005117D01*
X010428Y005051D01*
X010551Y004928D01*
X010617Y004767D01*
X010617Y004593D01*
X010551Y004432D01*
X010508Y004390D01*
X010970Y004390D01*
X010970Y005381D01*
X010875Y005476D01*
X010820Y005608D01*
X010820Y005752D01*
X010875Y005884D01*
X010976Y005985D01*
X011108Y006040D01*
X011252Y006040D01*
X011384Y005985D01*
X011485Y005884D01*
X011540Y005752D01*
X011540Y005608D01*
X011485Y005476D01*
X011390Y005381D01*
X011390Y004093D01*
X011267Y003970D01*
X010508Y003970D01*
X010551Y003928D01*
X010617Y003767D01*
X010617Y003593D01*
X010602Y003555D01*
X011767Y002390D01*
X012852Y002390D01*
X012809Y002432D01*
X012743Y002593D01*
X012743Y002767D01*
X012809Y002928D01*
X012932Y003051D01*
X013093Y003117D01*
X013267Y003117D01*
X013428Y003051D01*
X013551Y002928D01*
X013617Y002767D01*
X013617Y002593D01*
X013551Y002432D01*
X013508Y002390D01*
X017881Y002390D01*
X017961Y002470D01*
X017093Y002470D01*
X016970Y002593D01*
X015515Y004048D01*
X015485Y003976D01*
X015384Y003875D01*
X015252Y003820D01*
X015108Y003820D01*
X014976Y003875D01*
X014930Y003921D01*
X014884Y003875D01*
X014752Y003820D01*
X014608Y003820D01*
X014476Y003875D01*
X014381Y003970D01*
X013508Y003970D01*
X013551Y003928D01*
X013617Y003767D01*
X013617Y003593D01*
X013551Y003432D01*
X013428Y003309D01*
X013267Y003243D01*
X013093Y003243D01*
X012932Y003309D01*
X012809Y003432D01*
X012743Y003593D01*
X012743Y003767D01*
X012768Y003827D01*
X012752Y003820D01*
X012608Y003820D01*
X012476Y003875D01*
X012375Y003976D01*
X012320Y004108D01*
X012320Y004252D01*
X012375Y004384D01*
X012476Y004485D01*
X012608Y004540D01*
X012752Y004540D01*
X012768Y004533D01*
X012743Y004593D01*
X012743Y004767D01*
X012809Y004928D01*
X012932Y005051D01*
X013093Y005117D01*
X013267Y005117D01*
X013428Y005051D01*
X013551Y004928D01*
X013617Y004767D01*
X013617Y004593D01*
X013551Y004432D01*
X013508Y004390D01*
X014381Y004390D01*
X014476Y004485D01*
X014548Y004515D01*
X013970Y005093D01*
X013970Y005970D01*
X013508Y005970D01*
X013551Y005928D01*
X013617Y005767D01*
X013617Y005593D01*
X013551Y005432D01*
X013428Y005309D01*
X013267Y005243D01*
X013093Y005243D01*
X012932Y005309D01*
X012809Y005432D01*
X012743Y005593D01*
X012743Y005767D01*
X012809Y005928D01*
X012852Y005970D01*
X012093Y005970D01*
X011970Y006093D01*
X011515Y006548D01*
X011485Y006476D01*
X011384Y006375D01*
X011252Y006320D01*
X011108Y006320D01*
X010976Y006375D01*
X010875Y006476D01*
X010820Y006608D01*
X010820Y006752D01*
X010875Y006884D01*
X010961Y006970D01*
X010508Y006970D01*
X010551Y006928D01*
X010617Y006767D01*
X010617Y006593D01*
X010551Y006432D01*
X010428Y006309D01*
X010267Y006243D01*
X010093Y006243D01*
X009932Y006309D01*
X009809Y006432D01*
X009743Y006593D01*
X009743Y006767D01*
X009768Y006827D01*
X009752Y006820D01*
X009608Y006820D01*
X009476Y006875D01*
X009375Y006976D01*
X009320Y007108D01*
X009320Y007252D01*
X009375Y007384D01*
X009461Y007470D01*
X008890Y007470D01*
X008890Y004979D01*
X008985Y004884D01*
X009040Y004752D01*
X009040Y004608D01*
X008985Y004476D01*
X008884Y004375D01*
X008752Y004320D01*
X008608Y004320D01*
X008476Y004375D01*
X008390Y004461D01*
X008390Y004267D01*
X009267Y003390D01*
X009390Y003267D01*
X009390Y001767D01*
X009767Y001390D01*
X009826Y001390D01*
X009789Y001440D01*
X009756Y001505D01*
X009734Y001573D01*
X009723Y001644D01*
X009723Y001671D01*
X010171Y001671D01*
X010171Y001689D01*
X009723Y001689D01*
X009723Y001716D01*
X009734Y001787D01*
X009756Y001855D01*
X009789Y001920D01*
X009831Y001978D01*
X009882Y002029D01*
X009940Y002071D01*
X010005Y002104D01*
X010073Y002126D01*
X010171Y002131D02*
X010189Y002131D01*
X010255Y002131D02*
X011432Y002131D01*
X011394Y001973D02*
X011591Y001973D01*
X011512Y001814D02*
X012017Y001814D01*
X011859Y001656D02*
X011538Y001656D01*
X011492Y001497D02*
X011700Y001497D01*
X012355Y000863D02*
X012950Y000863D01*
X012792Y001021D02*
X012504Y001021D01*
X012540Y001180D02*
X012633Y001180D01*
X012593Y001814D02*
X012762Y001814D01*
X012803Y002448D02*
X011709Y002448D01*
X011550Y002607D02*
X012743Y002607D01*
X012743Y002765D02*
X011392Y002765D01*
X011233Y002924D02*
X012808Y002924D01*
X013008Y003082D02*
X011075Y003082D01*
X010916Y003241D02*
X016323Y003241D01*
X016164Y003399D02*
X013517Y003399D01*
X013602Y003558D02*
X016006Y003558D01*
X015847Y003716D02*
X013617Y003716D01*
X013573Y003875D02*
X014477Y003875D01*
X014883Y003875D02*
X014977Y003875D01*
X015383Y003875D02*
X015689Y003875D01*
X015530Y004033D02*
X015509Y004033D01*
X015648Y004509D02*
X016960Y004509D01*
X016926Y004589D02*
X016996Y004421D01*
X017124Y004293D01*
X017292Y004223D01*
X018068Y004223D01*
X018236Y004293D01*
X018364Y004421D01*
X018434Y004589D01*
X018434Y004771D01*
X018364Y004939D01*
X018333Y004970D01*
X018767Y004970D01*
X018890Y005093D01*
X018890Y008381D01*
X018970Y008461D01*
X018970Y004767D01*
X018253Y004050D01*
X018236Y004067D01*
X018068Y004137D01*
X017292Y004137D01*
X017124Y004067D01*
X016996Y003939D01*
X016926Y003771D01*
X016926Y003589D01*
X016996Y003421D01*
X017124Y003293D01*
X017292Y003223D01*
X018068Y003223D01*
X018236Y003293D01*
X018364Y003421D01*
X018434Y003589D01*
X018434Y003637D01*
X019345Y004548D01*
X019375Y004476D01*
X019476Y004375D01*
X019548Y004345D01*
X019470Y004267D01*
X019470Y003979D01*
X019375Y003884D01*
X019320Y003752D01*
X019320Y003608D01*
X019375Y003476D01*
X019476Y003375D01*
X019608Y003320D01*
X019752Y003320D01*
X019884Y003375D01*
X019985Y003476D01*
X020040Y003608D01*
X020040Y003752D01*
X019992Y003868D01*
X020108Y003820D01*
X020252Y003820D01*
X020384Y003875D01*
X020485Y003976D01*
X020540Y004108D01*
X020540Y004243D01*
X022767Y006470D01*
X022890Y006593D01*
X022890Y011093D01*
X023107Y011310D01*
X023124Y011293D01*
X023292Y011223D01*
X024068Y011223D01*
X024236Y011293D01*
X024364Y011421D01*
X024434Y011589D01*
X024434Y011771D01*
X024364Y011939D01*
X024236Y012067D01*
X024068Y012137D01*
X023292Y012137D01*
X023124Y012067D01*
X022996Y011939D01*
X022926Y011771D01*
X022926Y011723D01*
X022470Y011267D01*
X022470Y007399D01*
X022390Y007479D01*
X022390Y012593D01*
X022767Y012970D01*
X022890Y013093D01*
X022890Y013593D01*
X022926Y013629D01*
X022926Y013589D01*
X022996Y013421D01*
X023124Y013293D01*
X023292Y013223D01*
X024068Y013223D01*
X024236Y013293D01*
X024364Y013421D01*
X024434Y013589D01*
X024434Y013771D01*
X024364Y013939D01*
X024333Y013970D01*
X024767Y013970D01*
X024890Y014093D01*
X024890Y017267D01*
X024434Y017723D01*
X024434Y017771D01*
X024364Y017939D01*
X024236Y018067D01*
X024068Y018137D01*
X023292Y018137D01*
X023124Y018067D01*
X022996Y017939D01*
X022926Y017771D01*
X022926Y017589D01*
X022996Y017421D01*
X023124Y017293D01*
X023292Y017223D01*
X024068Y017223D01*
X024236Y017293D01*
X024253Y017310D01*
X024470Y017093D01*
X024470Y014390D01*
X024333Y014390D01*
X024364Y014421D01*
X024434Y014589D01*
X024434Y014771D01*
X024364Y014939D01*
X024236Y015067D01*
X024068Y015137D01*
X023292Y015137D01*
X023124Y015067D01*
X022996Y014939D01*
X022926Y014771D01*
X022926Y014723D01*
X022390Y014187D01*
X022390Y021461D01*
X022476Y021375D01*
X022608Y021320D01*
X022752Y021320D01*
X022884Y021375D01*
X022977Y021468D01*
X022996Y021421D01*
X023124Y021293D01*
X023292Y021223D01*
X024068Y021223D01*
X024236Y021293D01*
X024364Y021421D01*
X024434Y021589D01*
X024434Y021771D01*
X024364Y021939D01*
X024236Y022067D01*
X024068Y022137D01*
X023292Y022137D01*
X023124Y022067D01*
X022996Y021939D01*
X022977Y021892D01*
X022890Y021979D01*
X022890Y028267D01*
X022767Y028390D01*
X011593Y028390D01*
X011470Y028267D01*
X009970Y026767D01*
X009970Y022767D01*
X009660Y022457D01*
X009660Y030070D01*
X025192Y030070D01*
X025192Y017965D01*
X024434Y018723D01*
X024434Y018771D01*
X024364Y018939D01*
X024236Y019067D01*
X024068Y019137D01*
X023292Y019137D01*
X023124Y019067D01*
X022996Y018939D01*
X022926Y018771D01*
X022926Y018589D01*
X022996Y018421D01*
X023124Y018293D01*
X023292Y018223D01*
X024068Y018223D01*
X024236Y018293D01*
X024253Y018310D01*
X024970Y017593D01*
X024970Y003267D01*
X024890Y003187D01*
X024890Y008267D01*
X024434Y008723D01*
X024434Y008771D01*
X024364Y008939D01*
X024236Y009067D01*
X024068Y009137D01*
X023292Y009137D01*
X023124Y009067D01*
X022996Y008939D01*
X022926Y008771D01*
X022926Y008589D01*
X022996Y008421D01*
X023124Y008293D01*
X023292Y008223D01*
X024068Y008223D01*
X024236Y008293D01*
X024253Y008310D01*
X024470Y008093D01*
X024470Y003267D01*
X023743Y002540D01*
X023608Y002540D01*
X023476Y002485D01*
X023375Y002384D01*
X023320Y002252D01*
X023320Y002108D01*
X023375Y001976D01*
X023476Y001875D01*
X023548Y001845D01*
X023243Y001540D01*
X023108Y001540D01*
X022976Y001485D01*
X022875Y001384D01*
X022820Y001252D01*
X022820Y001108D01*
X022875Y000976D01*
X022976Y000875D01*
X023108Y000820D01*
X023252Y000820D01*
X023384Y000875D01*
X023485Y000976D01*
X023540Y001108D01*
X023540Y001243D01*
X025192Y002895D01*
X025192Y000660D01*
X020890Y000660D01*
X020890Y002381D01*
X020985Y002476D01*
X021040Y002608D01*
X021040Y002752D01*
X020985Y002884D01*
X020884Y002985D01*
X020812Y003015D01*
X022267Y004470D01*
X022976Y004470D01*
X022996Y004421D01*
X023124Y004293D01*
X023292Y004223D01*
X024068Y004223D01*
X024236Y004293D01*
X024364Y004421D01*
X024434Y004589D01*
X024434Y004771D01*
X024364Y004939D01*
X024236Y005067D01*
X024068Y005137D01*
X023292Y005137D01*
X023124Y005067D01*
X022996Y004939D01*
X022976Y004890D01*
X022093Y004890D01*
X021970Y004767D01*
X020093Y002890D01*
X017267Y002890D01*
X015390Y004767D01*
X015390Y004961D01*
X015476Y004875D01*
X015608Y004820D01*
X015752Y004820D01*
X015884Y004875D01*
X015979Y004970D01*
X017027Y004970D01*
X016996Y004939D01*
X016926Y004771D01*
X016926Y004589D01*
X016926Y004667D02*
X015490Y004667D01*
X015390Y004826D02*
X015595Y004826D01*
X015765Y004826D02*
X016949Y004826D01*
X017067Y004350D02*
X015807Y004350D01*
X015965Y004192D02*
X018395Y004192D01*
X018293Y004350D02*
X018553Y004350D01*
X018400Y004509D02*
X018712Y004509D01*
X018870Y004667D02*
X018434Y004667D01*
X018411Y004826D02*
X018970Y004826D01*
X018970Y004984D02*
X018781Y004984D01*
X018890Y005143D02*
X018970Y005143D01*
X018970Y005301D02*
X018890Y005301D01*
X018890Y005460D02*
X018970Y005460D01*
X018970Y005618D02*
X018890Y005618D01*
X018890Y005777D02*
X018970Y005777D01*
X018970Y005935D02*
X018890Y005935D01*
X018890Y006094D02*
X018970Y006094D01*
X018970Y006252D02*
X018890Y006252D01*
X018890Y006411D02*
X018970Y006411D01*
X018970Y006569D02*
X018890Y006569D01*
X018890Y006728D02*
X018970Y006728D01*
X018970Y006886D02*
X018890Y006886D01*
X018890Y007045D02*
X018970Y007045D01*
X018970Y007203D02*
X018890Y007203D01*
X018890Y007362D02*
X018970Y007362D01*
X018970Y007520D02*
X018890Y007520D01*
X018890Y007679D02*
X018970Y007679D01*
X018970Y007837D02*
X018890Y007837D01*
X018890Y007996D02*
X018970Y007996D01*
X018970Y008154D02*
X018890Y008154D01*
X018890Y008313D02*
X018970Y008313D01*
X019390Y008313D02*
X020220Y008313D01*
X020220Y008471D02*
X019390Y008471D01*
X019390Y008630D02*
X020220Y008630D01*
X020220Y008788D02*
X019390Y008788D01*
X019390Y008947D02*
X020220Y008947D01*
X020220Y009105D02*
X019302Y009105D01*
X019267Y009140D02*
X019140Y009267D01*
X019140Y014093D01*
X019335Y014288D01*
X019320Y014252D01*
X019320Y014108D01*
X019375Y013976D01*
X019476Y013875D01*
X019608Y013820D01*
X019743Y013820D01*
X020220Y013343D01*
X020220Y007979D01*
X020125Y007884D01*
X020070Y007752D01*
X020070Y007608D01*
X020125Y007476D01*
X020226Y007375D01*
X020358Y007320D01*
X020502Y007320D01*
X020634Y007375D01*
X020720Y007461D01*
X020720Y007017D01*
X020093Y006390D01*
X019970Y006267D01*
X019970Y005267D01*
X019743Y005040D01*
X019608Y005040D01*
X019476Y004985D01*
X019390Y004899D01*
X019390Y009017D01*
X019267Y009140D01*
X019143Y009264D02*
X020220Y009264D01*
X020220Y009422D02*
X019140Y009422D01*
X019140Y009581D02*
X020220Y009581D01*
X020220Y009739D02*
X019140Y009739D01*
X019140Y009898D02*
X020220Y009898D01*
X020220Y010056D02*
X019140Y010056D01*
X019140Y010215D02*
X020220Y010215D01*
X020220Y010373D02*
X019140Y010373D01*
X019140Y010532D02*
X020220Y010532D01*
X020220Y010690D02*
X019140Y010690D01*
X019140Y010849D02*
X020220Y010849D01*
X020220Y011007D02*
X019140Y011007D01*
X019140Y011166D02*
X020220Y011166D01*
X020220Y011324D02*
X019140Y011324D01*
X019140Y011483D02*
X020220Y011483D01*
X020220Y011641D02*
X019140Y011641D01*
X019140Y011800D02*
X020220Y011800D01*
X020220Y011958D02*
X019140Y011958D01*
X019140Y012117D02*
X020220Y012117D01*
X020220Y012275D02*
X019140Y012275D01*
X019140Y012434D02*
X020220Y012434D01*
X020220Y012592D02*
X019140Y012592D01*
X019140Y012751D02*
X020220Y012751D01*
X020220Y012909D02*
X019140Y012909D01*
X019140Y013068D02*
X020220Y013068D01*
X020220Y013226D02*
X019140Y013226D01*
X019140Y013385D02*
X020178Y013385D01*
X020020Y013543D02*
X019140Y013543D01*
X019140Y013702D02*
X019861Y013702D01*
X019512Y013860D02*
X019140Y013860D01*
X019140Y014019D02*
X019357Y014019D01*
X019320Y014177D02*
X019224Y014177D01*
X018470Y014177D02*
X016980Y014177D01*
X016890Y014267D02*
X016890Y015267D01*
X016767Y015390D01*
X015890Y016267D01*
X015890Y017961D01*
X015976Y017875D01*
X016108Y017820D01*
X016252Y017820D01*
X016384Y017875D01*
X016479Y017970D01*
X016593Y017970D01*
X016926Y017637D01*
X016926Y017589D01*
X016996Y017421D01*
X017124Y017293D01*
X017292Y017223D01*
X018068Y017223D01*
X018236Y017293D01*
X018364Y017421D01*
X018434Y017589D01*
X018434Y017771D01*
X018364Y017939D01*
X018236Y018067D01*
X018068Y018137D01*
X017292Y018137D01*
X017124Y018067D01*
X017107Y018050D01*
X016767Y018390D01*
X016479Y018390D01*
X016384Y018485D01*
X016252Y018540D01*
X016108Y018540D01*
X015976Y018485D01*
X015890Y018399D01*
X015890Y019381D01*
X015985Y019476D01*
X016040Y019608D01*
X016040Y019752D01*
X015985Y019884D01*
X015884Y019985D01*
X015812Y020015D01*
X016470Y020673D01*
X016470Y019093D01*
X016926Y018637D01*
X016926Y018589D01*
X016996Y018421D01*
X017124Y018293D01*
X017292Y018223D01*
X018068Y018223D01*
X018236Y018293D01*
X018364Y018421D01*
X018434Y018589D01*
X018434Y018771D01*
X018364Y018939D01*
X018236Y019067D01*
X018068Y019137D01*
X017292Y019137D01*
X017124Y019067D01*
X017107Y019050D01*
X016890Y019267D01*
X016890Y020593D01*
X016926Y020629D01*
X016926Y020589D01*
X016996Y020421D01*
X017124Y020293D01*
X017292Y020223D01*
X018068Y020223D01*
X018236Y020293D01*
X018364Y020421D01*
X018434Y020589D01*
X018434Y020771D01*
X018364Y020939D01*
X018300Y021003D01*
X018345Y021048D01*
X018375Y020976D01*
X018470Y020881D01*
X018470Y017093D01*
X018970Y016593D01*
X018970Y014899D01*
X018884Y014985D01*
X018752Y015040D01*
X018608Y015040D01*
X018476Y014985D01*
X018383Y014892D01*
X018364Y014939D01*
X018236Y015067D01*
X018068Y015137D01*
X017292Y015137D01*
X017124Y015067D01*
X016996Y014939D01*
X016926Y014771D01*
X016926Y014589D01*
X016996Y014421D01*
X017124Y014293D01*
X017292Y014223D01*
X018068Y014223D01*
X018236Y014293D01*
X018364Y014421D01*
X018383Y014468D01*
X018470Y014381D01*
X018470Y009267D01*
X018253Y009050D01*
X018236Y009067D01*
X018068Y009137D01*
X017292Y009137D01*
X017124Y009067D01*
X016996Y008939D01*
X016926Y008771D01*
X016926Y008589D01*
X016996Y008421D01*
X017124Y008293D01*
X017292Y008223D01*
X018068Y008223D01*
X018236Y008293D01*
X018364Y008421D01*
X018383Y008468D01*
X018470Y008381D01*
X018470Y005390D01*
X018333Y005390D01*
X018364Y005421D01*
X018434Y005589D01*
X018434Y005771D01*
X018364Y005939D01*
X018236Y006067D01*
X018068Y006137D01*
X017292Y006137D01*
X017124Y006067D01*
X016996Y005939D01*
X016926Y005771D01*
X016926Y005589D01*
X016996Y005421D01*
X017027Y005390D01*
X015979Y005390D01*
X015884Y005485D01*
X015752Y005540D01*
X015608Y005540D01*
X015476Y005485D01*
X015390Y005399D01*
X015390Y005767D01*
X015267Y005890D01*
X014540Y006617D01*
X014540Y006752D01*
X014485Y006884D01*
X014399Y006970D01*
X016767Y006970D01*
X017107Y007310D01*
X017124Y007293D01*
X017292Y007223D01*
X018068Y007223D01*
X018236Y007293D01*
X018364Y007421D01*
X018434Y007589D01*
X018434Y007771D01*
X018364Y007939D01*
X018236Y008067D01*
X018068Y008137D01*
X017292Y008137D01*
X017124Y008067D01*
X016996Y007939D01*
X016926Y007771D01*
X016926Y007723D01*
X016593Y007390D01*
X015899Y007390D01*
X015985Y007476D01*
X016040Y007608D01*
X016040Y007752D01*
X015985Y007884D01*
X015890Y007979D01*
X015890Y009381D01*
X015985Y009476D01*
X016040Y009608D01*
X016040Y009752D01*
X015992Y009868D01*
X016108Y009820D01*
X016252Y009820D01*
X016384Y009875D01*
X016485Y009976D01*
X016515Y010048D01*
X016926Y009637D01*
X016926Y009589D01*
X016996Y009421D01*
X017124Y009293D01*
X017292Y009223D01*
X018068Y009223D01*
X018236Y009293D01*
X018364Y009421D01*
X018434Y009589D01*
X018434Y009771D01*
X018364Y009939D01*
X018236Y010067D01*
X018068Y010137D01*
X017292Y010137D01*
X017124Y010067D01*
X017107Y010050D01*
X016812Y010345D01*
X016884Y010375D01*
X016977Y010468D01*
X016996Y010421D01*
X017124Y010293D01*
X017292Y010223D01*
X018068Y010223D01*
X018236Y010293D01*
X018364Y010421D01*
X018434Y010589D01*
X018434Y010771D01*
X018364Y010939D01*
X018236Y011067D01*
X018068Y011137D01*
X017292Y011137D01*
X017124Y011067D01*
X016996Y010939D01*
X016977Y010892D01*
X016890Y010979D01*
X016890Y011267D01*
X016767Y011390D01*
X013602Y014555D01*
X013617Y014593D01*
X013617Y014767D01*
X013551Y014928D01*
X013428Y015051D01*
X013267Y015117D01*
X013093Y015117D01*
X012932Y015051D01*
X012809Y014928D01*
X012786Y014871D01*
X012767Y014890D01*
X012390Y015267D01*
X012390Y016961D01*
X012476Y016875D01*
X012608Y016820D01*
X012752Y016820D01*
X012768Y016827D01*
X012743Y016767D01*
X012743Y016593D01*
X012809Y016432D01*
X012932Y016309D01*
X013093Y016243D01*
X013267Y016243D01*
X013428Y016309D01*
X013551Y016432D01*
X013617Y016593D01*
X013617Y016767D01*
X013551Y016928D01*
X013508Y016970D01*
X014970Y016970D01*
X014970Y016093D01*
X015048Y016015D01*
X014976Y015985D01*
X014881Y015890D01*
X013566Y015890D01*
X013551Y015928D01*
X013428Y016051D01*
X013267Y016117D01*
X013093Y016117D01*
X012932Y016051D01*
X012809Y015928D01*
X012743Y015767D01*
X012743Y015593D01*
X012809Y015432D01*
X012932Y015309D01*
X013093Y015243D01*
X013267Y015243D01*
X013428Y015309D01*
X013551Y015432D01*
X013566Y015470D01*
X014881Y015470D01*
X014976Y015375D01*
X015108Y015320D01*
X015252Y015320D01*
X015384Y015375D01*
X015430Y015421D01*
X015476Y015375D01*
X015608Y015320D01*
X015752Y015320D01*
X015884Y015375D01*
X015985Y015476D01*
X016015Y015548D01*
X016470Y015093D01*
X016470Y014093D01*
X016926Y013637D01*
X016926Y013589D01*
X016996Y013421D01*
X017124Y013293D01*
X017292Y013223D01*
X018068Y013223D01*
X018236Y013293D01*
X018364Y013421D01*
X018434Y013589D01*
X018434Y013771D01*
X018364Y013939D01*
X018236Y014067D01*
X018068Y014137D01*
X017292Y014137D01*
X017124Y014067D01*
X017107Y014050D01*
X016890Y014267D01*
X016890Y014336D02*
X017082Y014336D01*
X016966Y014494D02*
X016890Y014494D01*
X016890Y014653D02*
X016926Y014653D01*
X016943Y014811D02*
X016890Y014811D01*
X016890Y014970D02*
X017027Y014970D01*
X016890Y015128D02*
X017271Y015128D01*
X017292Y015223D02*
X018068Y015223D01*
X018236Y015293D01*
X018364Y015421D01*
X018434Y015589D01*
X018434Y015771D01*
X018364Y015939D01*
X018236Y016067D01*
X018068Y016137D01*
X017292Y016137D01*
X017124Y016067D01*
X016996Y015939D01*
X016926Y015771D01*
X016926Y015589D01*
X016996Y015421D01*
X017124Y015293D01*
X017292Y015223D01*
X017139Y015287D02*
X016870Y015287D01*
X016986Y015445D02*
X016712Y015445D01*
X016553Y015604D02*
X016926Y015604D01*
X016926Y015762D02*
X016395Y015762D01*
X016236Y015921D02*
X016988Y015921D01*
X017153Y016079D02*
X016078Y016079D01*
X015919Y016238D02*
X017258Y016238D01*
X017292Y016223D02*
X018068Y016223D01*
X018236Y016293D01*
X018364Y016421D01*
X018434Y016589D01*
X018434Y016771D01*
X018364Y016939D01*
X018236Y017067D01*
X018068Y017137D01*
X017292Y017137D01*
X017124Y017067D01*
X017107Y017050D01*
X017040Y017117D01*
X017040Y017252D01*
X016985Y017384D01*
X016884Y017485D01*
X016752Y017540D01*
X016608Y017540D01*
X016476Y017485D01*
X016375Y017384D01*
X016320Y017252D01*
X016320Y017108D01*
X016375Y016976D01*
X016476Y016875D01*
X016608Y016820D01*
X016743Y016820D01*
X016926Y016637D01*
X016926Y016589D01*
X016996Y016421D01*
X017124Y016293D01*
X017292Y016223D01*
X017021Y016396D02*
X015890Y016396D01*
X015890Y016555D02*
X016941Y016555D01*
X016850Y016713D02*
X015890Y016713D01*
X015890Y016872D02*
X016484Y016872D01*
X016352Y017030D02*
X015890Y017030D01*
X015890Y017189D02*
X016320Y017189D01*
X016360Y017347D02*
X015890Y017347D01*
X015890Y017506D02*
X016525Y017506D01*
X016740Y017823D02*
X016258Y017823D01*
X016102Y017823D02*
X015890Y017823D01*
X015890Y017664D02*
X016899Y017664D01*
X016961Y017506D02*
X016835Y017506D01*
X017000Y017347D02*
X017070Y017347D01*
X017040Y017189D02*
X018470Y017189D01*
X018470Y017347D02*
X018290Y017347D01*
X018399Y017506D02*
X018470Y017506D01*
X018470Y017664D02*
X018434Y017664D01*
X018412Y017823D02*
X018470Y017823D01*
X018470Y017981D02*
X018322Y017981D01*
X018470Y018140D02*
X017017Y018140D01*
X017119Y018298D02*
X016859Y018298D01*
X016981Y018457D02*
X016413Y018457D01*
X016789Y018774D02*
X015890Y018774D01*
X015890Y018932D02*
X016631Y018932D01*
X016472Y019091D02*
X015890Y019091D01*
X015890Y019249D02*
X016470Y019249D01*
X016470Y019408D02*
X015917Y019408D01*
X016022Y019566D02*
X016470Y019566D01*
X016470Y019725D02*
X016040Y019725D01*
X015986Y019883D02*
X016470Y019883D01*
X016470Y020042D02*
X015839Y020042D01*
X015997Y020200D02*
X016470Y020200D01*
X016470Y020359D02*
X016156Y020359D01*
X016314Y020517D02*
X016470Y020517D01*
X016890Y020517D02*
X016956Y020517D01*
X016890Y020359D02*
X017059Y020359D01*
X016890Y020200D02*
X018470Y020200D01*
X018470Y020042D02*
X018261Y020042D01*
X018236Y020067D02*
X018068Y020137D01*
X017292Y020137D01*
X017124Y020067D01*
X016996Y019939D01*
X016926Y019771D01*
X016926Y019589D01*
X016996Y019421D01*
X017124Y019293D01*
X017292Y019223D01*
X018068Y019223D01*
X018236Y019293D01*
X018364Y019421D01*
X018434Y019589D01*
X018434Y019771D01*
X018364Y019939D01*
X018236Y020067D01*
X018387Y019883D02*
X018470Y019883D01*
X018470Y019725D02*
X018434Y019725D01*
X018424Y019566D02*
X018470Y019566D01*
X018470Y019408D02*
X018350Y019408D01*
X018470Y019249D02*
X018130Y019249D01*
X018180Y019091D02*
X018470Y019091D01*
X018470Y018932D02*
X018367Y018932D01*
X018433Y018774D02*
X018470Y018774D01*
X018470Y018615D02*
X018434Y018615D01*
X018470Y018457D02*
X018379Y018457D01*
X018470Y018298D02*
X018241Y018298D01*
X018273Y017030D02*
X018533Y017030D01*
X018392Y016872D02*
X018691Y016872D01*
X018850Y016713D02*
X018434Y016713D01*
X018419Y016555D02*
X018970Y016555D01*
X018970Y016396D02*
X018339Y016396D01*
X018102Y016238D02*
X018970Y016238D01*
X018970Y016079D02*
X018207Y016079D01*
X018372Y015921D02*
X018970Y015921D01*
X018970Y015762D02*
X018434Y015762D01*
X018434Y015604D02*
X018970Y015604D01*
X018970Y015445D02*
X018374Y015445D01*
X018221Y015287D02*
X018970Y015287D01*
X018970Y015128D02*
X018089Y015128D01*
X018333Y014970D02*
X018460Y014970D01*
X018900Y014970D02*
X018970Y014970D01*
X018470Y014336D02*
X018278Y014336D01*
X018284Y014019D02*
X018470Y014019D01*
X018470Y013860D02*
X018397Y013860D01*
X018434Y013702D02*
X018470Y013702D01*
X018470Y013543D02*
X018415Y013543D01*
X018470Y013385D02*
X018327Y013385D01*
X018470Y013226D02*
X018075Y013226D01*
X018089Y013145D02*
X018014Y013157D01*
X017698Y013157D01*
X017698Y012698D01*
X017662Y012698D01*
X017662Y012662D01*
X017698Y012662D01*
X017698Y012203D01*
X018014Y012203D01*
X018089Y012215D01*
X018160Y012238D01*
X018227Y012272D01*
X018287Y012316D01*
X018341Y012369D01*
X018385Y012430D01*
X018419Y012497D01*
X018442Y012568D01*
X018454Y012642D01*
X018454Y012662D01*
X017698Y012662D01*
X017698Y012698D01*
X018454Y012698D01*
X018454Y012718D01*
X018442Y012792D01*
X018419Y012863D01*
X018385Y012930D01*
X018341Y012991D01*
X018287Y013044D01*
X018227Y013088D01*
X018160Y013122D01*
X018089Y013145D01*
X018255Y013068D02*
X018470Y013068D01*
X018470Y012909D02*
X018395Y012909D01*
X018448Y012751D02*
X018470Y012751D01*
X018470Y012592D02*
X018446Y012592D01*
X018470Y012434D02*
X018386Y012434D01*
X018470Y012275D02*
X018231Y012275D01*
X018117Y012117D02*
X018470Y012117D01*
X018470Y011958D02*
X018345Y011958D01*
X018364Y011939D02*
X018236Y012067D01*
X018068Y012137D01*
X017292Y012137D01*
X017124Y012067D01*
X016996Y011939D01*
X016926Y011771D01*
X016926Y011589D01*
X016996Y011421D01*
X017124Y011293D01*
X017292Y011223D01*
X018068Y011223D01*
X018236Y011293D01*
X018364Y011421D01*
X018434Y011589D01*
X018434Y011771D01*
X018364Y011939D01*
X018422Y011800D02*
X018470Y011800D01*
X018470Y011641D02*
X018434Y011641D01*
X018470Y011483D02*
X018390Y011483D01*
X018470Y011324D02*
X018267Y011324D01*
X018470Y011166D02*
X016890Y011166D01*
X016890Y011007D02*
X017064Y011007D01*
X017093Y011324D02*
X016833Y011324D01*
X016970Y011483D02*
X016674Y011483D01*
X016516Y011641D02*
X016926Y011641D01*
X016938Y011800D02*
X016357Y011800D01*
X016199Y011958D02*
X017015Y011958D01*
X017243Y012117D02*
X016040Y012117D01*
X015882Y012275D02*
X017129Y012275D01*
X017133Y012272D02*
X017200Y012238D01*
X017271Y012215D01*
X017346Y012203D01*
X017662Y012203D01*
X017662Y012662D01*
X016906Y012662D01*
X016906Y012642D01*
X016918Y012568D01*
X016941Y012497D01*
X016975Y012430D01*
X017019Y012369D01*
X017073Y012316D01*
X017133Y012272D01*
X016974Y012434D02*
X015723Y012434D01*
X015565Y012592D02*
X016914Y012592D01*
X016906Y012698D02*
X017662Y012698D01*
X017662Y013157D01*
X017346Y013157D01*
X017271Y013145D01*
X017200Y013122D01*
X017133Y013088D01*
X017073Y013044D01*
X017019Y012991D01*
X016975Y012930D01*
X016941Y012863D01*
X016918Y012792D01*
X016906Y012718D01*
X016906Y012698D01*
X016912Y012751D02*
X015406Y012751D01*
X015248Y012909D02*
X016965Y012909D01*
X017105Y013068D02*
X015089Y013068D01*
X014931Y013226D02*
X017285Y013226D01*
X017033Y013385D02*
X014772Y013385D01*
X014614Y013543D02*
X016945Y013543D01*
X016861Y013702D02*
X014455Y013702D01*
X014297Y013860D02*
X016703Y013860D01*
X016544Y014019D02*
X014138Y014019D01*
X013980Y014177D02*
X016470Y014177D01*
X016470Y014336D02*
X013821Y014336D01*
X013663Y014494D02*
X016470Y014494D01*
X016470Y014653D02*
X013617Y014653D01*
X013599Y014811D02*
X016470Y014811D01*
X016470Y014970D02*
X013509Y014970D01*
X013372Y015287D02*
X016276Y015287D01*
X016118Y015445D02*
X015954Y015445D01*
X016435Y015128D02*
X012529Y015128D01*
X012390Y015287D02*
X012988Y015287D01*
X012804Y015445D02*
X012390Y015445D01*
X012390Y015604D02*
X012743Y015604D01*
X012743Y015762D02*
X012390Y015762D01*
X012390Y015921D02*
X012806Y015921D01*
X013001Y016079D02*
X012390Y016079D01*
X012390Y016238D02*
X014970Y016238D01*
X014970Y016396D02*
X013514Y016396D01*
X013601Y016555D02*
X014970Y016555D01*
X014970Y016713D02*
X013617Y016713D01*
X013574Y016872D02*
X014970Y016872D01*
X014984Y016079D02*
X013359Y016079D01*
X013554Y015921D02*
X014911Y015921D01*
X014906Y015445D02*
X013556Y015445D01*
X012851Y014970D02*
X012687Y014970D01*
X012890Y014352D02*
X012932Y014309D01*
X013093Y014243D01*
X013267Y014243D01*
X013305Y014258D01*
X016173Y011390D01*
X015479Y011390D01*
X015384Y011485D01*
X015252Y011540D01*
X015108Y011540D01*
X014976Y011485D01*
X014875Y011384D01*
X014820Y011252D01*
X014820Y011108D01*
X014875Y010976D01*
X014976Y010875D01*
X015108Y010820D01*
X015252Y010820D01*
X015384Y010875D01*
X015479Y010970D01*
X015970Y010970D01*
X015970Y010593D01*
X016048Y010515D01*
X015976Y010485D01*
X015881Y010390D01*
X015593Y010390D01*
X015515Y010312D01*
X015485Y010384D01*
X015384Y010485D01*
X015252Y010540D01*
X015108Y010540D01*
X014976Y010485D01*
X014881Y010390D01*
X013979Y010390D01*
X013884Y010485D01*
X013752Y010540D01*
X013617Y010540D01*
X013617Y010861D01*
X013361Y011117D01*
X013040Y011117D01*
X012890Y011267D01*
X012890Y012352D01*
X012932Y012309D01*
X013093Y012243D01*
X013267Y012243D01*
X013428Y012309D01*
X013551Y012432D01*
X013617Y012593D01*
X013617Y012767D01*
X013551Y012928D01*
X013428Y013051D01*
X013267Y013117D01*
X013093Y013117D01*
X012932Y013051D01*
X012890Y013008D01*
X012890Y013352D01*
X012932Y013309D01*
X013093Y013243D01*
X013267Y013243D01*
X013428Y013309D01*
X013551Y013432D01*
X013617Y013593D01*
X013617Y013767D01*
X013551Y013928D01*
X013428Y014051D01*
X013267Y014117D01*
X013093Y014117D01*
X012932Y014051D01*
X012890Y014008D01*
X012890Y014352D01*
X012890Y014336D02*
X012906Y014336D01*
X012890Y014177D02*
X013386Y014177D01*
X013460Y014019D02*
X013544Y014019D01*
X013579Y013860D02*
X013703Y013860D01*
X013617Y013702D02*
X013861Y013702D01*
X014020Y013543D02*
X013596Y013543D01*
X013503Y013385D02*
X014178Y013385D01*
X014337Y013226D02*
X012890Y013226D01*
X012890Y013068D02*
X012973Y013068D01*
X013387Y013068D02*
X014495Y013068D01*
X014654Y012909D02*
X013558Y012909D01*
X013617Y012751D02*
X014812Y012751D01*
X014971Y012592D02*
X013617Y012592D01*
X013551Y012434D02*
X015129Y012434D01*
X015288Y012275D02*
X013345Y012275D01*
X013015Y012275D02*
X012890Y012275D01*
X012890Y012117D02*
X015446Y012117D01*
X015605Y011958D02*
X012890Y011958D01*
X012890Y011800D02*
X015763Y011800D01*
X015922Y011641D02*
X012890Y011641D01*
X012890Y011483D02*
X014973Y011483D01*
X014850Y011324D02*
X012890Y011324D01*
X012991Y011166D02*
X014820Y011166D01*
X014862Y011007D02*
X013471Y011007D01*
X013617Y010849D02*
X015040Y010849D01*
X015320Y010849D02*
X015970Y010849D01*
X015970Y010690D02*
X013617Y010690D01*
X013772Y010532D02*
X015088Y010532D01*
X015272Y010532D02*
X016031Y010532D01*
X015576Y010373D02*
X015490Y010373D01*
X016028Y009581D02*
X016930Y009581D01*
X016996Y009422D02*
X015931Y009422D01*
X015890Y009264D02*
X017195Y009264D01*
X017215Y009105D02*
X015890Y009105D01*
X015890Y008947D02*
X017004Y008947D01*
X016933Y008788D02*
X015890Y008788D01*
X015890Y008630D02*
X016926Y008630D01*
X016975Y008471D02*
X015890Y008471D01*
X015890Y008313D02*
X017105Y008313D01*
X017053Y007996D02*
X015890Y007996D01*
X015890Y008154D02*
X018470Y008154D01*
X018470Y007996D02*
X018307Y007996D01*
X018406Y007837D02*
X018470Y007837D01*
X018470Y007679D02*
X018434Y007679D01*
X018405Y007520D02*
X018470Y007520D01*
X018470Y007362D02*
X018304Y007362D01*
X018470Y007203D02*
X017000Y007203D01*
X017124Y007067D02*
X016996Y006939D01*
X016926Y006771D01*
X016926Y006589D01*
X016996Y006421D01*
X017124Y006293D01*
X017292Y006223D01*
X018068Y006223D01*
X018236Y006293D01*
X018364Y006421D01*
X018434Y006589D01*
X018434Y006771D01*
X018364Y006939D01*
X018236Y007067D01*
X018068Y007137D01*
X017292Y007137D01*
X017124Y007067D01*
X017102Y007045D02*
X016841Y007045D01*
X016974Y006886D02*
X014483Y006886D01*
X014540Y006728D02*
X016926Y006728D01*
X016935Y006569D02*
X014588Y006569D01*
X014746Y006411D02*
X015401Y006411D01*
X015375Y006384D02*
X015320Y006252D01*
X014905Y006252D01*
X015063Y006094D02*
X015326Y006094D01*
X015320Y006108D02*
X015375Y005976D01*
X015476Y005875D01*
X015608Y005820D01*
X015752Y005820D01*
X015884Y005875D01*
X015979Y005970D01*
X016381Y005970D01*
X016476Y005875D01*
X016608Y005820D01*
X016752Y005820D01*
X016884Y005875D01*
X016985Y005976D01*
X017040Y006108D01*
X017040Y006252D01*
X017223Y006252D01*
X017188Y006094D02*
X017034Y006094D01*
X017040Y006252D02*
X016985Y006384D01*
X016884Y006485D01*
X016752Y006540D01*
X016608Y006540D01*
X016476Y006485D01*
X016381Y006390D01*
X015979Y006390D01*
X015884Y006485D01*
X015752Y006540D01*
X015608Y006540D01*
X015476Y006485D01*
X015375Y006384D01*
X015320Y006252D02*
X015320Y006108D01*
X015416Y005935D02*
X015222Y005935D01*
X015380Y005777D02*
X016929Y005777D01*
X016944Y005935D02*
X016994Y005935D01*
X016926Y005618D02*
X015390Y005618D01*
X015390Y005460D02*
X015450Y005460D01*
X015910Y005460D02*
X016980Y005460D01*
X016416Y005935D02*
X015944Y005935D01*
X015959Y006411D02*
X016401Y006411D01*
X016959Y006411D02*
X017007Y006411D01*
X016723Y007520D02*
X016003Y007520D01*
X016040Y007679D02*
X016882Y007679D01*
X016954Y007837D02*
X016005Y007837D01*
X016040Y009739D02*
X016824Y009739D01*
X016666Y009898D02*
X016407Y009898D01*
X016942Y010215D02*
X018470Y010215D01*
X018470Y010373D02*
X018316Y010373D01*
X018410Y010532D02*
X018470Y010532D01*
X018470Y010690D02*
X018434Y010690D01*
X018402Y010849D02*
X018470Y010849D01*
X018470Y011007D02*
X018296Y011007D01*
X018247Y010056D02*
X018470Y010056D01*
X018470Y009898D02*
X018381Y009898D01*
X018434Y009739D02*
X018470Y009739D01*
X018470Y009581D02*
X018430Y009581D01*
X018470Y009422D02*
X018364Y009422D01*
X018467Y009264D02*
X018165Y009264D01*
X018145Y009105D02*
X018308Y009105D01*
X018255Y008313D02*
X018470Y008313D01*
X019390Y008154D02*
X020220Y008154D01*
X020220Y007996D02*
X019390Y007996D01*
X019390Y007837D02*
X020105Y007837D01*
X020070Y007679D02*
X019390Y007679D01*
X019390Y007520D02*
X020107Y007520D01*
X020258Y007362D02*
X019390Y007362D01*
X019390Y007203D02*
X020720Y007203D01*
X020720Y007045D02*
X019390Y007045D01*
X019390Y006886D02*
X020589Y006886D01*
X020431Y006728D02*
X019390Y006728D01*
X019390Y006569D02*
X020272Y006569D01*
X020114Y006411D02*
X019390Y006411D01*
X019390Y006252D02*
X019970Y006252D01*
X019970Y006094D02*
X019390Y006094D01*
X019390Y005935D02*
X019970Y005935D01*
X019970Y005777D02*
X019390Y005777D01*
X019390Y005618D02*
X019970Y005618D01*
X019970Y005460D02*
X019390Y005460D01*
X019390Y005301D02*
X019970Y005301D01*
X019846Y005143D02*
X019390Y005143D01*
X019390Y004984D02*
X019475Y004984D01*
X019361Y004509D02*
X019305Y004509D01*
X019147Y004350D02*
X019536Y004350D01*
X019470Y004192D02*
X018988Y004192D01*
X018830Y004033D02*
X019470Y004033D01*
X019371Y003875D02*
X018671Y003875D01*
X018513Y003716D02*
X019320Y003716D01*
X019341Y003558D02*
X018421Y003558D01*
X018342Y003399D02*
X019452Y003399D01*
X019908Y003399D02*
X020602Y003399D01*
X020444Y003241D02*
X018110Y003241D01*
X017939Y002448D02*
X013557Y002448D01*
X013617Y002607D02*
X016957Y002607D01*
X016798Y002765D02*
X013617Y002765D01*
X013552Y002924D02*
X016640Y002924D01*
X016481Y003082D02*
X013352Y003082D01*
X012843Y003399D02*
X010758Y003399D01*
X010602Y003558D02*
X012758Y003558D01*
X012743Y003716D02*
X010617Y003716D01*
X010573Y003875D02*
X012477Y003875D01*
X012351Y004033D02*
X011330Y004033D01*
X011390Y004192D02*
X012320Y004192D01*
X012361Y004350D02*
X011390Y004350D01*
X011390Y004509D02*
X012532Y004509D01*
X012743Y004667D02*
X011390Y004667D01*
X011390Y004826D02*
X012767Y004826D01*
X012866Y004984D02*
X011390Y004984D01*
X011390Y005143D02*
X013970Y005143D01*
X013970Y005301D02*
X013407Y005301D01*
X013562Y005460D02*
X013970Y005460D01*
X013970Y005618D02*
X013617Y005618D01*
X013613Y005777D02*
X013970Y005777D01*
X013970Y005935D02*
X013543Y005935D01*
X012953Y005301D02*
X011390Y005301D01*
X011469Y005460D02*
X012798Y005460D01*
X012743Y005618D02*
X011540Y005618D01*
X011530Y005777D02*
X012747Y005777D01*
X012817Y005935D02*
X011434Y005935D01*
X011420Y006411D02*
X011653Y006411D01*
X011811Y006252D02*
X010289Y006252D01*
X010267Y006117D02*
X010093Y006117D01*
X009932Y006051D01*
X009809Y005928D01*
X009743Y005767D01*
X009743Y005593D01*
X009809Y005432D01*
X009932Y005309D01*
X010093Y005243D01*
X010267Y005243D01*
X010428Y005309D01*
X010551Y005432D01*
X010617Y005593D01*
X010617Y005767D01*
X010551Y005928D01*
X010428Y006051D01*
X010267Y006117D01*
X010324Y006094D02*
X011970Y006094D01*
X010926Y005935D02*
X010543Y005935D01*
X010613Y005777D02*
X010830Y005777D01*
X010820Y005618D02*
X010617Y005618D01*
X010562Y005460D02*
X010891Y005460D01*
X010970Y005301D02*
X010407Y005301D01*
X010494Y004984D02*
X010970Y004984D01*
X010970Y004826D02*
X010593Y004826D01*
X010617Y004667D02*
X010970Y004667D01*
X010970Y004509D02*
X010582Y004509D01*
X010970Y005143D02*
X008890Y005143D01*
X008890Y005301D02*
X009953Y005301D01*
X009798Y005460D02*
X008890Y005460D01*
X008890Y005618D02*
X009743Y005618D01*
X009747Y005777D02*
X008890Y005777D01*
X008890Y005935D02*
X009817Y005935D01*
X010036Y006094D02*
X008890Y006094D01*
X008890Y006252D02*
X010071Y006252D01*
X009831Y006411D02*
X008890Y006411D01*
X008890Y006569D02*
X009753Y006569D01*
X009743Y006728D02*
X008890Y006728D01*
X008890Y006886D02*
X009465Y006886D01*
X009346Y007045D02*
X008890Y007045D01*
X008890Y007203D02*
X009320Y007203D01*
X009366Y007362D02*
X008890Y007362D01*
X007820Y008617D02*
X007593Y008390D01*
X007508Y008390D01*
X007551Y008432D01*
X007617Y008593D01*
X007617Y008767D01*
X007551Y008928D01*
X007428Y009051D01*
X007267Y009117D01*
X007093Y009117D01*
X006932Y009051D01*
X006890Y009008D01*
X006890Y009352D01*
X006932Y009309D01*
X007093Y009243D01*
X007267Y009243D01*
X007428Y009309D01*
X007551Y009432D01*
X007617Y009593D01*
X007617Y009767D01*
X007602Y009805D01*
X007845Y010048D01*
X007875Y009976D01*
X007976Y009875D01*
X008108Y009820D01*
X008252Y009820D01*
X008384Y009875D01*
X008479Y009970D01*
X010267Y009970D01*
X010390Y010093D01*
X010390Y011093D01*
X011267Y011970D01*
X011345Y012048D01*
X011375Y011976D01*
X011476Y011875D01*
X011608Y011820D01*
X011743Y011820D01*
X011970Y011593D01*
X011970Y010399D01*
X011884Y010485D01*
X011752Y010540D01*
X011637Y010540D01*
X011637Y010671D01*
X011189Y010671D01*
X011189Y010689D01*
X011637Y010689D01*
X011637Y010869D01*
X011369Y011137D01*
X011189Y011137D01*
X011189Y010689D01*
X011171Y010689D01*
X011171Y011137D01*
X010991Y011137D01*
X010723Y010869D01*
X010723Y010689D01*
X011171Y010689D01*
X011171Y010671D01*
X011189Y010671D01*
X011189Y010223D01*
X011320Y010223D01*
X011320Y010108D01*
X011375Y009976D01*
X011461Y009890D01*
X009593Y009890D01*
X009470Y009767D01*
X008515Y008812D01*
X008485Y008884D01*
X008384Y008985D01*
X008252Y009040D01*
X008108Y009040D01*
X007976Y008985D01*
X007875Y008884D01*
X007820Y008752D01*
X007820Y008617D01*
X007820Y008630D02*
X007617Y008630D01*
X007608Y008788D02*
X007835Y008788D01*
X007937Y008947D02*
X007532Y008947D01*
X007296Y009105D02*
X008808Y009105D01*
X008650Y008947D02*
X008423Y008947D01*
X008967Y009264D02*
X007317Y009264D01*
X007540Y009422D02*
X009125Y009422D01*
X009284Y009581D02*
X007612Y009581D01*
X007617Y009739D02*
X009442Y009739D01*
X009970Y010390D02*
X008479Y010390D01*
X008384Y010485D01*
X008312Y010515D01*
X008767Y010970D01*
X008890Y011093D01*
X008890Y011461D01*
X008976Y011375D01*
X009108Y011320D01*
X009252Y011320D01*
X009384Y011375D01*
X009485Y011476D01*
X009540Y011608D01*
X009540Y011752D01*
X009485Y011884D01*
X009390Y011979D01*
X009390Y013381D01*
X009485Y013476D01*
X009540Y013608D01*
X009540Y013752D01*
X009485Y013884D01*
X009384Y013985D01*
X009252Y014040D01*
X009108Y014040D01*
X008976Y013985D01*
X008890Y013899D01*
X008890Y015461D01*
X008976Y015375D01*
X009108Y015320D01*
X009252Y015320D01*
X009384Y015375D01*
X009485Y015476D01*
X009540Y015608D01*
X009540Y015752D01*
X009485Y015884D01*
X009390Y015979D01*
X009390Y016767D01*
X009267Y016890D01*
X009040Y017117D01*
X009040Y017252D01*
X008985Y017384D01*
X008899Y017470D01*
X009267Y017470D01*
X009390Y017593D01*
X009390Y018593D01*
X009767Y018970D01*
X009852Y018970D01*
X009809Y018928D01*
X009743Y018767D01*
X009743Y018593D01*
X009809Y018432D01*
X009932Y018309D01*
X010093Y018243D01*
X010267Y018243D01*
X010428Y018309D01*
X010551Y018432D01*
X010617Y018593D01*
X010617Y018767D01*
X010551Y018928D01*
X010508Y018970D01*
X010767Y018970D01*
X010890Y019093D01*
X010890Y020461D01*
X010976Y020375D01*
X011108Y020320D01*
X011252Y020320D01*
X011384Y020375D01*
X011485Y020476D01*
X011540Y020608D01*
X011540Y020743D01*
X011970Y021173D01*
X011970Y020767D01*
X010970Y019767D01*
X010970Y018767D01*
X010305Y018102D01*
X010267Y018117D01*
X010093Y018117D01*
X009932Y018051D01*
X009809Y017928D01*
X009743Y017767D01*
X009743Y017593D01*
X009809Y017432D01*
X009932Y017309D01*
X010093Y017243D01*
X010267Y017243D01*
X010428Y017309D01*
X010551Y017432D01*
X010617Y017593D01*
X010617Y017767D01*
X010602Y017805D01*
X011267Y018470D01*
X011390Y018593D01*
X011390Y019593D01*
X011470Y019673D01*
X011470Y018267D01*
X010305Y017102D01*
X010267Y017117D01*
X010093Y017117D01*
X009932Y017051D01*
X009809Y016928D01*
X009743Y016767D01*
X009743Y016593D01*
X009809Y016432D01*
X009932Y016309D01*
X010093Y016243D01*
X010267Y016243D01*
X010428Y016309D01*
X010551Y016432D01*
X010617Y016593D01*
X010617Y016767D01*
X010602Y016805D01*
X011767Y017970D01*
X011890Y018093D01*
X011890Y019593D01*
X012345Y020048D01*
X012375Y019976D01*
X012476Y019875D01*
X012608Y019820D01*
X012752Y019820D01*
X012768Y019827D01*
X012743Y019767D01*
X012743Y019593D01*
X012758Y019555D01*
X012093Y018890D01*
X011970Y018767D01*
X011970Y017399D01*
X011884Y017485D01*
X011752Y017540D01*
X011608Y017540D01*
X011476Y017485D01*
X011375Y017384D01*
X011320Y017252D01*
X011320Y017117D01*
X010305Y016102D01*
X010267Y016117D01*
X010093Y016117D01*
X009932Y016051D01*
X009809Y015928D01*
X009743Y015767D01*
X009743Y015593D01*
X009809Y015432D01*
X009932Y015309D01*
X010093Y015243D01*
X010267Y015243D01*
X010428Y015309D01*
X010470Y015352D01*
X010470Y015267D01*
X010305Y015102D01*
X010267Y015117D01*
X010093Y015117D01*
X009932Y015051D01*
X009809Y014928D01*
X009743Y014767D01*
X009743Y014593D01*
X009809Y014432D01*
X009932Y014309D01*
X010093Y014243D01*
X010267Y014243D01*
X010428Y014309D01*
X010551Y014432D01*
X010617Y014593D01*
X010617Y014767D01*
X010602Y014805D01*
X010767Y014970D01*
X010890Y015093D01*
X010890Y015593D01*
X010970Y015673D01*
X010970Y015593D01*
X010970Y012267D01*
X009970Y011267D01*
X009970Y010390D01*
X009970Y010532D02*
X008328Y010532D01*
X008487Y010690D02*
X009970Y010690D01*
X009970Y010849D02*
X008645Y010849D01*
X008804Y011007D02*
X009970Y011007D01*
X009970Y011166D02*
X008890Y011166D01*
X008890Y011324D02*
X009099Y011324D01*
X009261Y011324D02*
X010027Y011324D01*
X010186Y011483D02*
X009488Y011483D01*
X009540Y011641D02*
X010344Y011641D01*
X010503Y011800D02*
X009520Y011800D01*
X009411Y011958D02*
X010661Y011958D01*
X010820Y012117D02*
X009390Y012117D01*
X009390Y012275D02*
X009968Y012275D01*
X009940Y012289D02*
X010005Y012256D01*
X010073Y012234D01*
X010144Y012223D01*
X010171Y012223D01*
X010171Y012671D01*
X010189Y012671D01*
X010189Y012689D01*
X010637Y012689D01*
X010637Y012716D01*
X010626Y012787D01*
X010604Y012855D01*
X010571Y012920D01*
X010529Y012978D01*
X010478Y013029D01*
X010420Y013071D01*
X010355Y013104D01*
X010287Y013126D01*
X010216Y013137D01*
X010189Y013137D01*
X010189Y012689D01*
X010171Y012689D01*
X010171Y013137D01*
X010144Y013137D01*
X010073Y013126D01*
X010005Y013104D01*
X009940Y013071D01*
X009882Y013029D01*
X009831Y012978D01*
X009789Y012920D01*
X009756Y012855D01*
X009734Y012787D01*
X009723Y012716D01*
X009723Y012689D01*
X010171Y012689D01*
X010171Y012671D01*
X009723Y012671D01*
X009723Y012644D01*
X009734Y012573D01*
X009756Y012505D01*
X009789Y012440D01*
X009831Y012382D01*
X009882Y012331D01*
X009940Y012289D01*
X009794Y012434D02*
X009390Y012434D01*
X009390Y012592D02*
X009731Y012592D01*
X009728Y012751D02*
X009390Y012751D01*
X009390Y012909D02*
X009784Y012909D01*
X009936Y013068D02*
X009390Y013068D01*
X009390Y013226D02*
X010970Y013226D01*
X010970Y013068D02*
X010424Y013068D01*
X010576Y012909D02*
X010970Y012909D01*
X010970Y012751D02*
X010632Y012751D01*
X010637Y012671D02*
X010189Y012671D01*
X010189Y012223D01*
X010216Y012223D01*
X010287Y012234D01*
X010355Y012256D01*
X010420Y012289D01*
X010478Y012331D01*
X010529Y012382D01*
X010571Y012440D01*
X010604Y012505D01*
X010626Y012573D01*
X010637Y012644D01*
X010637Y012671D01*
X010629Y012592D02*
X010970Y012592D01*
X010970Y012434D02*
X010566Y012434D01*
X010392Y012275D02*
X010970Y012275D01*
X011255Y011958D02*
X011393Y011958D01*
X011097Y011800D02*
X011763Y011800D01*
X011922Y011641D02*
X010938Y011641D01*
X010780Y011483D02*
X011970Y011483D01*
X011970Y011324D02*
X010621Y011324D01*
X010463Y011166D02*
X011970Y011166D01*
X011970Y011007D02*
X011500Y011007D01*
X011637Y010849D02*
X011970Y010849D01*
X011970Y010690D02*
X011637Y010690D01*
X011772Y010532D02*
X011970Y010532D01*
X011453Y009898D02*
X008407Y009898D01*
X007953Y009898D02*
X007694Y009898D01*
X007043Y009264D02*
X006890Y009264D01*
X006890Y009105D02*
X007064Y009105D01*
X007567Y008471D02*
X007674Y008471D01*
X005970Y008313D02*
X005390Y008313D01*
X005390Y008154D02*
X005970Y008154D01*
X005970Y007996D02*
X005390Y007996D01*
X005390Y007837D02*
X005970Y007837D01*
X005970Y007679D02*
X005390Y007679D01*
X005390Y007520D02*
X005970Y007520D01*
X005970Y007362D02*
X005390Y007362D01*
X005390Y007203D02*
X005970Y007203D01*
X005970Y007045D02*
X005390Y007045D01*
X005390Y006886D02*
X005970Y006886D01*
X005970Y006728D02*
X005390Y006728D01*
X005390Y006569D02*
X005994Y006569D01*
X006153Y006411D02*
X005390Y006411D01*
X005390Y006252D02*
X006311Y006252D01*
X006326Y006094D02*
X005390Y006094D01*
X005390Y005935D02*
X005926Y005935D01*
X005830Y005777D02*
X005390Y005777D01*
X005390Y005618D02*
X005820Y005618D01*
X005891Y005460D02*
X005390Y005460D01*
X005390Y005301D02*
X006262Y005301D01*
X006421Y005143D02*
X005390Y005143D01*
X005390Y004984D02*
X005975Y004984D01*
X005851Y004826D02*
X005390Y004826D01*
X005390Y004667D02*
X005820Y004667D01*
X005861Y004509D02*
X005390Y004509D01*
X005390Y004350D02*
X005970Y004350D01*
X005970Y004192D02*
X005390Y004192D01*
X005390Y004033D02*
X006030Y004033D01*
X006499Y004509D02*
X006778Y004509D01*
X006743Y004667D02*
X006540Y004667D01*
X006509Y004826D02*
X006767Y004826D01*
X006579Y004984D02*
X006385Y004984D01*
X006787Y003875D02*
X005390Y003875D01*
X005390Y003716D02*
X006743Y003716D01*
X006758Y003558D02*
X005390Y003558D01*
X005390Y003399D02*
X006843Y003399D01*
X007517Y003399D02*
X007952Y003399D01*
X007841Y003558D02*
X007602Y003558D01*
X007617Y003716D02*
X007820Y003716D01*
X007689Y003875D02*
X007573Y003875D01*
X008390Y004350D02*
X008536Y004350D01*
X008465Y004192D02*
X009470Y004192D01*
X009470Y004033D02*
X008624Y004033D01*
X008782Y003875D02*
X009470Y003875D01*
X009470Y003716D02*
X008941Y003716D01*
X009099Y003558D02*
X009470Y003558D01*
X009470Y003399D02*
X009258Y003399D01*
X009390Y003241D02*
X009470Y003241D01*
X009481Y003082D02*
X009390Y003082D01*
X009390Y002924D02*
X009640Y002924D01*
X009743Y002765D02*
X009390Y002765D01*
X009390Y002607D02*
X009743Y002607D01*
X009803Y002448D02*
X009390Y002448D01*
X009390Y002290D02*
X009980Y002290D01*
X009827Y001973D02*
X009390Y001973D01*
X009390Y001814D02*
X009743Y001814D01*
X009723Y001656D02*
X009501Y001656D01*
X009660Y001497D02*
X009760Y001497D01*
X010171Y001814D02*
X010189Y001814D01*
X010189Y001973D02*
X010171Y001973D01*
X010533Y001973D02*
X010966Y001973D01*
X010848Y001814D02*
X010617Y001814D01*
X010637Y001656D02*
X010822Y001656D01*
X010868Y001497D02*
X010600Y001497D01*
X010380Y002290D02*
X011274Y002290D01*
X011115Y002448D02*
X010557Y002448D01*
X010617Y002607D02*
X010957Y002607D01*
X010798Y002765D02*
X010617Y002765D01*
X010640Y002924D02*
X010552Y002924D01*
X010481Y003082D02*
X010352Y003082D01*
X010323Y003241D02*
X009916Y003241D01*
X008823Y003241D02*
X005390Y003241D01*
X005091Y001973D02*
X004982Y001973D01*
X005249Y001814D02*
X001617Y001814D01*
X001637Y001671D02*
X001189Y001671D01*
X001189Y001223D01*
X001216Y001223D01*
X001287Y001234D01*
X001355Y001256D01*
X001420Y001289D01*
X001478Y001331D01*
X001529Y001382D01*
X001571Y001440D01*
X001604Y001505D01*
X001626Y001573D01*
X001637Y001644D01*
X001637Y001671D01*
X001637Y001656D02*
X005408Y001656D01*
X005566Y001497D02*
X001600Y001497D01*
X001485Y001339D02*
X005725Y001339D01*
X006343Y001814D02*
X006762Y001814D01*
X006743Y001656D02*
X006501Y001656D01*
X006660Y001497D02*
X006783Y001497D01*
X008408Y003399D02*
X008664Y003399D01*
X008824Y004350D02*
X009553Y004350D01*
X009778Y004509D02*
X008999Y004509D01*
X009040Y004667D02*
X009743Y004667D01*
X009767Y004826D02*
X009009Y004826D01*
X008890Y004984D02*
X009866Y004984D01*
X010529Y006411D02*
X010940Y006411D01*
X010836Y006569D02*
X010607Y006569D01*
X010617Y006728D02*
X010820Y006728D01*
X010877Y006886D02*
X010568Y006886D01*
X010353Y010056D02*
X011342Y010056D01*
X011320Y010215D02*
X010390Y010215D01*
X010390Y010373D02*
X010840Y010373D01*
X010723Y010491D02*
X010991Y010223D01*
X011171Y010223D01*
X011171Y010671D01*
X010723Y010671D01*
X010723Y010491D01*
X010723Y010532D02*
X010390Y010532D01*
X010390Y010690D02*
X010723Y010690D01*
X010723Y010849D02*
X010390Y010849D01*
X010390Y011007D02*
X010860Y011007D01*
X011171Y011007D02*
X011189Y011007D01*
X011189Y010849D02*
X011171Y010849D01*
X011171Y010690D02*
X011189Y010690D01*
X011189Y010532D02*
X011171Y010532D01*
X011171Y010373D02*
X011189Y010373D01*
X010189Y012275D02*
X010171Y012275D01*
X010171Y012434D02*
X010189Y012434D01*
X010189Y012592D02*
X010171Y012592D01*
X010171Y012751D02*
X010189Y012751D01*
X010189Y012909D02*
X010171Y012909D01*
X010171Y013068D02*
X010189Y013068D01*
X010267Y013243D02*
X010428Y013309D01*
X010551Y013432D01*
X010617Y013593D01*
X010617Y013767D01*
X010551Y013928D01*
X010428Y014051D01*
X010267Y014117D01*
X010093Y014117D01*
X009932Y014051D01*
X009809Y013928D01*
X009743Y013767D01*
X009743Y013593D01*
X009809Y013432D01*
X009932Y013309D01*
X010093Y013243D01*
X010267Y013243D01*
X010503Y013385D02*
X010970Y013385D01*
X010970Y013543D02*
X010596Y013543D01*
X010617Y013702D02*
X010970Y013702D01*
X010970Y013860D02*
X010579Y013860D01*
X010460Y014019D02*
X010970Y014019D01*
X010970Y014177D02*
X008890Y014177D01*
X008890Y014019D02*
X009057Y014019D01*
X009303Y014019D02*
X009900Y014019D01*
X009781Y013860D02*
X009495Y013860D01*
X009540Y013702D02*
X009743Y013702D01*
X009764Y013543D02*
X009513Y013543D01*
X009394Y013385D02*
X009857Y013385D01*
X009906Y014336D02*
X008890Y014336D01*
X008890Y014494D02*
X009784Y014494D01*
X009743Y014653D02*
X008890Y014653D01*
X008890Y014811D02*
X009761Y014811D01*
X009851Y014970D02*
X008890Y014970D01*
X008890Y015128D02*
X010331Y015128D01*
X010372Y015287D02*
X010470Y015287D01*
X010767Y014970D02*
X010970Y014970D01*
X010970Y015128D02*
X010890Y015128D01*
X010890Y015287D02*
X010970Y015287D01*
X010970Y015445D02*
X010890Y015445D01*
X010901Y015604D02*
X010970Y015604D01*
X010441Y016238D02*
X009390Y016238D01*
X009390Y016396D02*
X009846Y016396D01*
X009759Y016555D02*
X009390Y016555D01*
X009390Y016713D02*
X009743Y016713D01*
X009786Y016872D02*
X009285Y016872D01*
X009127Y017030D02*
X009912Y017030D01*
X009895Y017347D02*
X009000Y017347D01*
X009040Y017189D02*
X010392Y017189D01*
X010465Y017347D02*
X010550Y017347D01*
X010581Y017506D02*
X010709Y017506D01*
X010617Y017664D02*
X010867Y017664D01*
X011026Y017823D02*
X010620Y017823D01*
X010778Y017981D02*
X011184Y017981D01*
X011343Y018140D02*
X010937Y018140D01*
X011095Y018298D02*
X011470Y018298D01*
X011470Y018457D02*
X011254Y018457D01*
X011390Y018615D02*
X011470Y018615D01*
X011470Y018774D02*
X011390Y018774D01*
X011390Y018932D02*
X011470Y018932D01*
X011470Y019091D02*
X011390Y019091D01*
X011390Y019249D02*
X011470Y019249D01*
X011470Y019408D02*
X011390Y019408D01*
X011390Y019566D02*
X011470Y019566D01*
X011890Y019566D02*
X012754Y019566D01*
X012743Y019725D02*
X012022Y019725D01*
X012180Y019883D02*
X012468Y019883D01*
X012348Y020042D02*
X012339Y020042D01*
X012611Y019408D02*
X011890Y019408D01*
X011890Y019249D02*
X012452Y019249D01*
X012294Y019091D02*
X011890Y019091D01*
X011890Y018932D02*
X012135Y018932D01*
X011977Y018774D02*
X011890Y018774D01*
X011890Y018615D02*
X011970Y018615D01*
X011970Y018457D02*
X011890Y018457D01*
X011890Y018298D02*
X011970Y018298D01*
X011970Y018140D02*
X011890Y018140D01*
X011970Y017981D02*
X011778Y017981D01*
X011620Y017823D02*
X011970Y017823D01*
X011970Y017664D02*
X011461Y017664D01*
X011525Y017506D02*
X011303Y017506D01*
X011360Y017347D02*
X011144Y017347D01*
X010986Y017189D02*
X011320Y017189D01*
X011233Y017030D02*
X010827Y017030D01*
X010669Y016872D02*
X011075Y016872D01*
X010916Y016713D02*
X010617Y016713D01*
X010601Y016555D02*
X010758Y016555D01*
X010599Y016396D02*
X010514Y016396D01*
X010001Y016079D02*
X009390Y016079D01*
X009449Y015921D02*
X009806Y015921D01*
X009743Y015762D02*
X009536Y015762D01*
X009538Y015604D02*
X009743Y015604D01*
X009804Y015445D02*
X009454Y015445D01*
X008906Y015445D02*
X008890Y015445D01*
X008890Y015287D02*
X009988Y015287D01*
X010608Y014811D02*
X010970Y014811D01*
X010970Y014653D02*
X010617Y014653D01*
X010576Y014494D02*
X010970Y014494D01*
X010970Y014336D02*
X010454Y014336D01*
X012390Y016396D02*
X012846Y016396D01*
X012759Y016555D02*
X012390Y016555D01*
X012390Y016713D02*
X012743Y016713D01*
X012484Y016872D02*
X012390Y016872D01*
X011970Y017506D02*
X011835Y017506D01*
X010818Y018615D02*
X010617Y018615D01*
X010614Y018774D02*
X010970Y018774D01*
X010970Y018932D02*
X010546Y018932D01*
X010888Y019091D02*
X010970Y019091D01*
X010970Y019249D02*
X010890Y019249D01*
X010890Y019408D02*
X010970Y019408D01*
X010970Y019566D02*
X010890Y019566D01*
X010890Y019725D02*
X010970Y019725D01*
X010890Y019883D02*
X011086Y019883D01*
X011245Y020042D02*
X010890Y020042D01*
X010890Y020200D02*
X011403Y020200D01*
X011345Y020359D02*
X011562Y020359D01*
X011502Y020517D02*
X011720Y020517D01*
X011879Y020676D02*
X011540Y020676D01*
X011631Y020834D02*
X011970Y020834D01*
X011970Y020993D02*
X011790Y020993D01*
X011948Y021151D02*
X011970Y021151D01*
X011671Y021468D02*
X011615Y021468D01*
X011637Y021491D02*
X011369Y021223D01*
X011189Y021223D01*
X011189Y021671D01*
X011189Y021689D01*
X011171Y021689D01*
X011171Y022137D01*
X011040Y022137D01*
X011040Y022252D01*
X010985Y022384D01*
X010884Y022485D01*
X010812Y022515D01*
X015267Y026970D01*
X017027Y026970D01*
X016996Y026939D01*
X016926Y026771D01*
X016926Y026589D01*
X016996Y026421D01*
X017124Y026293D01*
X017292Y026223D01*
X018068Y026223D01*
X018236Y026293D01*
X018364Y026421D01*
X018434Y026589D01*
X018434Y026771D01*
X018364Y026939D01*
X018333Y026970D01*
X018470Y026970D01*
X018470Y024479D01*
X018375Y024384D01*
X018320Y024252D01*
X018320Y024108D01*
X018375Y023976D01*
X018476Y023875D01*
X018608Y023820D01*
X018752Y023820D01*
X018884Y023875D01*
X018970Y023961D01*
X018970Y023399D01*
X018884Y023485D01*
X018752Y023540D01*
X018608Y023540D01*
X018476Y023485D01*
X018375Y023384D01*
X018320Y023252D01*
X018320Y023108D01*
X018375Y022976D01*
X018470Y022881D01*
X018470Y021767D01*
X018434Y021731D01*
X018434Y021771D01*
X018364Y021939D01*
X018236Y022067D01*
X018068Y022137D01*
X017292Y022137D01*
X017124Y022067D01*
X016996Y021939D01*
X016926Y021771D01*
X016926Y021723D01*
X016390Y021187D01*
X016390Y022267D01*
X016267Y022390D01*
X015540Y023117D01*
X015540Y023252D01*
X015485Y023384D01*
X015399Y023470D01*
X016470Y023470D01*
X016470Y023093D01*
X016926Y022637D01*
X016926Y022589D01*
X016996Y022421D01*
X017124Y022293D01*
X017292Y022223D01*
X018068Y022223D01*
X018236Y022293D01*
X018364Y022421D01*
X018434Y022589D01*
X018434Y022771D01*
X018364Y022939D01*
X018236Y023067D01*
X018068Y023137D01*
X017292Y023137D01*
X017124Y023067D01*
X017107Y023050D01*
X016890Y023267D01*
X016890Y023767D01*
X016767Y023890D01*
X013593Y023890D01*
X013470Y023767D01*
X011970Y022267D01*
X011970Y021767D01*
X011243Y021040D01*
X011108Y021040D01*
X010976Y020985D01*
X010890Y020899D01*
X010890Y021323D01*
X010991Y021223D01*
X011171Y021223D01*
X011171Y021671D01*
X011189Y021671D01*
X011637Y021671D01*
X011637Y021491D01*
X011637Y021627D02*
X011830Y021627D01*
X011637Y021689D02*
X011637Y021869D01*
X011369Y022137D01*
X011189Y022137D01*
X011189Y021689D01*
X011637Y021689D01*
X011637Y021785D02*
X011970Y021785D01*
X011970Y021944D02*
X011563Y021944D01*
X011404Y022102D02*
X011970Y022102D01*
X011970Y022261D02*
X011036Y022261D01*
X010950Y022419D02*
X012122Y022419D01*
X012281Y022578D02*
X010875Y022578D01*
X011033Y022736D02*
X012439Y022736D01*
X012598Y022895D02*
X011192Y022895D01*
X011350Y023053D02*
X012756Y023053D01*
X012915Y023212D02*
X011509Y023212D01*
X011667Y023370D02*
X013073Y023370D01*
X013232Y023529D02*
X011826Y023529D01*
X011984Y023687D02*
X013390Y023687D01*
X013369Y023723D02*
X013637Y023991D01*
X013637Y024171D01*
X013189Y024171D01*
X013189Y024189D01*
X013189Y024637D01*
X013369Y024637D01*
X013637Y024369D01*
X013637Y024189D01*
X013189Y024189D01*
X013171Y024189D01*
X013171Y024637D01*
X012991Y024637D01*
X012723Y024369D01*
X012723Y024189D01*
X013171Y024189D01*
X013171Y024171D01*
X013189Y024171D01*
X013189Y023723D01*
X013369Y023723D01*
X013492Y023846D02*
X013549Y023846D01*
X013637Y024004D02*
X017061Y024004D01*
X017124Y024067D02*
X016996Y023939D01*
X016926Y023771D01*
X016926Y023589D01*
X016996Y023421D01*
X017124Y023293D01*
X017292Y023223D01*
X018068Y023223D01*
X018236Y023293D01*
X018364Y023421D01*
X018434Y023589D01*
X018434Y023771D01*
X018364Y023939D01*
X018236Y024067D01*
X018068Y024137D01*
X017292Y024137D01*
X017124Y024067D01*
X017124Y024293D02*
X017292Y024223D01*
X018068Y024223D01*
X018236Y024293D01*
X018364Y024421D01*
X018434Y024589D01*
X018434Y024771D01*
X018364Y024939D01*
X018236Y025067D01*
X018068Y025137D01*
X017292Y025137D01*
X017124Y025067D01*
X016996Y024939D01*
X016926Y024771D01*
X016926Y024589D01*
X016996Y024421D01*
X017124Y024293D01*
X017096Y024321D02*
X013637Y024321D01*
X013637Y024163D02*
X018320Y024163D01*
X018299Y024004D02*
X018363Y024004D01*
X018403Y023846D02*
X018547Y023846D01*
X018434Y023687D02*
X018970Y023687D01*
X018970Y023529D02*
X018779Y023529D01*
X018581Y023529D02*
X018409Y023529D01*
X018369Y023370D02*
X018313Y023370D01*
X018320Y023212D02*
X016945Y023212D01*
X016890Y023370D02*
X017047Y023370D01*
X016951Y023529D02*
X016890Y023529D01*
X016890Y023687D02*
X016926Y023687D01*
X016957Y023846D02*
X016811Y023846D01*
X016470Y023370D02*
X015491Y023370D01*
X015540Y023212D02*
X016470Y023212D01*
X016510Y023053D02*
X015604Y023053D01*
X015762Y022895D02*
X016668Y022895D01*
X016827Y022736D02*
X015921Y022736D01*
X016079Y022578D02*
X016931Y022578D01*
X016998Y022419D02*
X016238Y022419D01*
X016390Y022261D02*
X017202Y022261D01*
X017208Y022102D02*
X016390Y022102D01*
X016390Y021944D02*
X017001Y021944D01*
X016932Y021785D02*
X016390Y021785D01*
X016390Y021627D02*
X016830Y021627D01*
X016671Y021468D02*
X016390Y021468D01*
X016390Y021310D02*
X016513Y021310D01*
X016890Y020042D02*
X017099Y020042D01*
X016973Y019883D02*
X016890Y019883D01*
X016890Y019725D02*
X016926Y019725D01*
X016936Y019566D02*
X016890Y019566D01*
X016890Y019408D02*
X017010Y019408D01*
X016908Y019249D02*
X017230Y019249D01*
X017180Y019091D02*
X017066Y019091D01*
X016926Y018615D02*
X015890Y018615D01*
X015890Y018457D02*
X015947Y018457D01*
X018301Y020359D02*
X018470Y020359D01*
X018470Y020517D02*
X018404Y020517D01*
X018434Y020676D02*
X018470Y020676D01*
X018470Y020834D02*
X018408Y020834D01*
X018368Y020993D02*
X018310Y020993D01*
X018428Y021785D02*
X018470Y021785D01*
X018470Y021944D02*
X018359Y021944D01*
X018470Y022102D02*
X018152Y022102D01*
X018158Y022261D02*
X018470Y022261D01*
X018470Y022419D02*
X018362Y022419D01*
X018429Y022578D02*
X018470Y022578D01*
X018470Y022736D02*
X018434Y022736D01*
X018456Y022895D02*
X018382Y022895D01*
X018343Y023053D02*
X018250Y023053D01*
X018813Y023846D02*
X018970Y023846D01*
X018470Y024480D02*
X018388Y024480D01*
X018349Y024321D02*
X018264Y024321D01*
X018434Y024638D02*
X018470Y024638D01*
X018470Y024797D02*
X018423Y024797D01*
X018470Y024955D02*
X018348Y024955D01*
X018470Y025114D02*
X018124Y025114D01*
X018068Y025223D02*
X018236Y025293D01*
X018364Y025421D01*
X018434Y025589D01*
X018434Y025771D01*
X018364Y025939D01*
X018236Y026067D01*
X018068Y026137D01*
X017292Y026137D01*
X017124Y026067D01*
X016996Y025939D01*
X016926Y025771D01*
X016926Y025589D01*
X016996Y025421D01*
X017124Y025293D01*
X017292Y025223D01*
X018068Y025223D01*
X018186Y025272D02*
X018470Y025272D01*
X018470Y025431D02*
X018368Y025431D01*
X018434Y025589D02*
X018470Y025589D01*
X018470Y025748D02*
X018434Y025748D01*
X018470Y025906D02*
X018378Y025906D01*
X018470Y026065D02*
X018238Y026065D01*
X018470Y026223D02*
X014520Y026223D01*
X014362Y026065D02*
X017122Y026065D01*
X016982Y025906D02*
X014203Y025906D01*
X014045Y025748D02*
X016926Y025748D01*
X016926Y025589D02*
X013886Y025589D01*
X013728Y025431D02*
X016992Y025431D01*
X017174Y025272D02*
X013569Y025272D01*
X013411Y025114D02*
X017236Y025114D01*
X017012Y024955D02*
X013252Y024955D01*
X013094Y024797D02*
X016937Y024797D01*
X016926Y024638D02*
X012935Y024638D01*
X012833Y024480D02*
X012777Y024480D01*
X012723Y024321D02*
X012618Y024321D01*
X012723Y024171D02*
X012723Y023991D01*
X012991Y023723D01*
X013171Y023723D01*
X013171Y024171D01*
X012723Y024171D01*
X012723Y024163D02*
X012460Y024163D01*
X012301Y024004D02*
X012723Y024004D01*
X012868Y023846D02*
X012143Y023846D01*
X011866Y024163D02*
X011617Y024163D01*
X011617Y024320D02*
X012267Y024970D01*
X012390Y025093D01*
X012390Y027470D01*
X018593Y027470D01*
X018673Y027390D01*
X015093Y027390D01*
X014970Y027267D01*
X010390Y022687D01*
X010390Y026593D01*
X011470Y027673D01*
X011470Y027267D01*
X011320Y027117D01*
X010999Y027117D01*
X010743Y026861D01*
X010743Y026499D01*
X010999Y026243D01*
X011361Y026243D01*
X011617Y026499D01*
X011617Y026820D01*
X011890Y027093D01*
X011890Y027470D01*
X011970Y027470D01*
X011970Y025267D01*
X011320Y024617D01*
X010999Y024617D01*
X010743Y024361D01*
X010743Y023999D01*
X010999Y023743D01*
X011361Y023743D01*
X011617Y023999D01*
X011617Y024320D01*
X011618Y024321D02*
X012024Y024321D01*
X012183Y024480D02*
X011777Y024480D01*
X011935Y024638D02*
X012341Y024638D01*
X012500Y024797D02*
X012094Y024797D01*
X012252Y024955D02*
X012658Y024955D01*
X012817Y025114D02*
X012390Y025114D01*
X012390Y025272D02*
X012975Y025272D01*
X013134Y025431D02*
X012390Y025431D01*
X012390Y025589D02*
X013292Y025589D01*
X013451Y025748D02*
X012390Y025748D01*
X012390Y025906D02*
X013609Y025906D01*
X013768Y026065D02*
X012390Y026065D01*
X012390Y026223D02*
X012990Y026223D01*
X012991Y026223D02*
X013171Y026223D01*
X013189Y026223D01*
X013369Y026223D01*
X013637Y026491D01*
X013637Y026671D01*
X013189Y026671D01*
X013189Y026689D01*
X013189Y027137D01*
X013369Y027137D01*
X013637Y026869D01*
X013637Y026689D01*
X013189Y026689D01*
X013171Y026689D01*
X013171Y027137D01*
X012991Y027137D01*
X012723Y026869D01*
X012723Y026689D01*
X013171Y026689D01*
X013171Y026671D01*
X013189Y026671D01*
X013189Y026223D01*
X013171Y026223D02*
X013171Y026671D01*
X012723Y026671D01*
X012723Y026491D01*
X012991Y026223D01*
X012832Y026382D02*
X012390Y026382D01*
X012390Y026540D02*
X012723Y026540D01*
X012723Y026699D02*
X012390Y026699D01*
X012390Y026857D02*
X012723Y026857D01*
X012869Y027016D02*
X012390Y027016D01*
X012390Y027174D02*
X014877Y027174D01*
X014719Y027016D02*
X013491Y027016D01*
X013637Y026857D02*
X014560Y026857D01*
X014402Y026699D02*
X013637Y026699D01*
X013637Y026540D02*
X014243Y026540D01*
X014085Y026382D02*
X013528Y026382D01*
X013370Y026223D02*
X013926Y026223D01*
X013189Y026382D02*
X013171Y026382D01*
X013171Y026540D02*
X013189Y026540D01*
X013189Y026699D02*
X013171Y026699D01*
X013171Y026857D02*
X013189Y026857D01*
X013189Y027016D02*
X013171Y027016D01*
X012390Y027333D02*
X015036Y027333D01*
X015154Y026857D02*
X016962Y026857D01*
X016926Y026699D02*
X014996Y026699D01*
X014837Y026540D02*
X016947Y026540D01*
X017036Y026382D02*
X014679Y026382D01*
X013527Y024480D02*
X016972Y024480D01*
X017104Y023053D02*
X017110Y023053D01*
X019890Y024267D02*
X019890Y024267D01*
X019890Y026767D01*
X018767Y027890D01*
X011687Y027890D01*
X011767Y027970D01*
X022470Y027970D01*
X022470Y021979D01*
X022375Y021884D01*
X022345Y021812D01*
X019890Y024267D01*
X019890Y024321D02*
X022470Y024321D01*
X022470Y024163D02*
X019994Y024163D01*
X020153Y024004D02*
X022470Y024004D01*
X022470Y023846D02*
X020311Y023846D01*
X020470Y023687D02*
X022470Y023687D01*
X022470Y023529D02*
X020628Y023529D01*
X020787Y023370D02*
X022470Y023370D01*
X022470Y023212D02*
X020945Y023212D01*
X021104Y023053D02*
X022470Y023053D01*
X022470Y022895D02*
X021262Y022895D01*
X021421Y022736D02*
X022470Y022736D01*
X022470Y022578D02*
X021579Y022578D01*
X021738Y022419D02*
X022470Y022419D01*
X022470Y022261D02*
X021896Y022261D01*
X022055Y022102D02*
X022470Y022102D01*
X022434Y021944D02*
X022213Y021944D01*
X022390Y021310D02*
X023108Y021310D01*
X023124Y021067D02*
X022996Y020939D01*
X022926Y020771D01*
X022926Y020589D01*
X022996Y020421D01*
X023124Y020293D01*
X023292Y020223D01*
X024068Y020223D01*
X024236Y020293D01*
X024364Y020421D01*
X024434Y020589D01*
X024434Y020771D01*
X024364Y020939D01*
X024236Y021067D01*
X024068Y021137D01*
X023292Y021137D01*
X023124Y021067D01*
X023050Y020993D02*
X022390Y020993D01*
X022390Y021151D02*
X025192Y021151D01*
X025192Y020993D02*
X024310Y020993D01*
X024408Y020834D02*
X025192Y020834D01*
X025192Y020676D02*
X024434Y020676D01*
X024404Y020517D02*
X025192Y020517D01*
X025192Y020359D02*
X024301Y020359D01*
X024236Y020067D02*
X024068Y020137D01*
X023292Y020137D01*
X023124Y020067D01*
X022996Y019939D01*
X022926Y019771D01*
X022926Y019589D01*
X022996Y019421D01*
X023124Y019293D01*
X023292Y019223D01*
X024068Y019223D01*
X024236Y019293D01*
X024364Y019421D01*
X024434Y019589D01*
X024434Y019771D01*
X024364Y019939D01*
X024236Y020067D01*
X024261Y020042D02*
X025192Y020042D01*
X025192Y020200D02*
X022390Y020200D01*
X022390Y020042D02*
X023099Y020042D01*
X022973Y019883D02*
X022390Y019883D01*
X022390Y019725D02*
X022926Y019725D01*
X022936Y019566D02*
X022390Y019566D01*
X022390Y019408D02*
X023010Y019408D01*
X023230Y019249D02*
X022390Y019249D01*
X022390Y019091D02*
X023180Y019091D01*
X022993Y018932D02*
X022390Y018932D01*
X022390Y018774D02*
X022927Y018774D01*
X022926Y018615D02*
X022390Y018615D01*
X022390Y018457D02*
X022981Y018457D01*
X023119Y018298D02*
X022390Y018298D01*
X022390Y018140D02*
X024423Y018140D01*
X024322Y017981D02*
X024582Y017981D01*
X024740Y017823D02*
X024412Y017823D01*
X024493Y017664D02*
X024899Y017664D01*
X024970Y017506D02*
X024651Y017506D01*
X024810Y017347D02*
X024970Y017347D01*
X024970Y017189D02*
X024890Y017189D01*
X024890Y017030D02*
X024970Y017030D01*
X024970Y016872D02*
X024890Y016872D01*
X024890Y016713D02*
X024970Y016713D01*
X024970Y016555D02*
X024890Y016555D01*
X024890Y016396D02*
X024970Y016396D01*
X024970Y016238D02*
X024890Y016238D01*
X024890Y016079D02*
X024970Y016079D01*
X024970Y015921D02*
X024890Y015921D01*
X024890Y015762D02*
X024970Y015762D01*
X024970Y015604D02*
X024890Y015604D01*
X024890Y015445D02*
X024970Y015445D01*
X024970Y015287D02*
X024890Y015287D01*
X024890Y015128D02*
X024970Y015128D01*
X024970Y014970D02*
X024890Y014970D01*
X024890Y014811D02*
X024970Y014811D01*
X024970Y014653D02*
X024890Y014653D01*
X024890Y014494D02*
X024970Y014494D01*
X024970Y014336D02*
X024890Y014336D01*
X024890Y014177D02*
X024970Y014177D01*
X024970Y014019D02*
X024816Y014019D01*
X024970Y013860D02*
X024397Y013860D01*
X024434Y013702D02*
X024970Y013702D01*
X024970Y013543D02*
X024415Y013543D01*
X024327Y013385D02*
X024970Y013385D01*
X024970Y013226D02*
X024075Y013226D01*
X024089Y013145D02*
X024014Y013157D01*
X023698Y013157D01*
X023698Y012698D01*
X023662Y012698D01*
X023662Y012662D01*
X023698Y012662D01*
X023698Y012203D01*
X024014Y012203D01*
X024089Y012215D01*
X024160Y012238D01*
X024227Y012272D01*
X024287Y012316D01*
X024341Y012369D01*
X024385Y012430D01*
X024419Y012497D01*
X024442Y012568D01*
X024454Y012642D01*
X024454Y012662D01*
X023698Y012662D01*
X023698Y012698D01*
X024454Y012698D01*
X024454Y012718D01*
X024442Y012792D01*
X024419Y012863D01*
X024385Y012930D01*
X024341Y012991D01*
X024287Y013044D01*
X024227Y013088D01*
X024160Y013122D01*
X024089Y013145D01*
X024255Y013068D02*
X024970Y013068D01*
X024970Y012909D02*
X024395Y012909D01*
X024448Y012751D02*
X024970Y012751D01*
X024970Y012592D02*
X024446Y012592D01*
X024386Y012434D02*
X024970Y012434D01*
X024970Y012275D02*
X024231Y012275D01*
X024117Y012117D02*
X024970Y012117D01*
X024970Y011958D02*
X024345Y011958D01*
X024422Y011800D02*
X024970Y011800D01*
X024970Y011641D02*
X024434Y011641D01*
X024390Y011483D02*
X024970Y011483D01*
X024970Y011324D02*
X024267Y011324D01*
X024236Y011067D02*
X024068Y011137D01*
X023292Y011137D01*
X023124Y011067D01*
X022996Y010939D01*
X022926Y010771D01*
X022926Y010589D01*
X022996Y010421D01*
X023124Y010293D01*
X023292Y010223D01*
X024068Y010223D01*
X024236Y010293D01*
X024364Y010421D01*
X024434Y010589D01*
X024434Y010771D01*
X024364Y010939D01*
X024236Y011067D01*
X024296Y011007D02*
X024970Y011007D01*
X024970Y010849D02*
X024402Y010849D01*
X024434Y010690D02*
X024970Y010690D01*
X024970Y010532D02*
X024410Y010532D01*
X024316Y010373D02*
X024970Y010373D01*
X024970Y010215D02*
X022890Y010215D01*
X022890Y010373D02*
X023044Y010373D01*
X022950Y010532D02*
X022890Y010532D01*
X022890Y010690D02*
X022926Y010690D01*
X022958Y010849D02*
X022890Y010849D01*
X022890Y011007D02*
X023064Y011007D01*
X022963Y011166D02*
X024970Y011166D01*
X024970Y010056D02*
X024247Y010056D01*
X024236Y010067D02*
X024068Y010137D01*
X023292Y010137D01*
X023124Y010067D01*
X022996Y009939D01*
X022926Y009771D01*
X022926Y009589D01*
X022996Y009421D01*
X023124Y009293D01*
X023292Y009223D01*
X024068Y009223D01*
X024236Y009293D01*
X024364Y009421D01*
X024434Y009589D01*
X024434Y009771D01*
X024364Y009939D01*
X024236Y010067D01*
X024381Y009898D02*
X024970Y009898D01*
X024970Y009739D02*
X024434Y009739D01*
X024430Y009581D02*
X024970Y009581D01*
X024970Y009422D02*
X024364Y009422D01*
X024165Y009264D02*
X024970Y009264D01*
X024970Y009105D02*
X024145Y009105D01*
X024356Y008947D02*
X024970Y008947D01*
X024970Y008788D02*
X024427Y008788D01*
X024527Y008630D02*
X024970Y008630D01*
X024970Y008471D02*
X024686Y008471D01*
X024844Y008313D02*
X024970Y008313D01*
X024970Y008154D02*
X024890Y008154D01*
X024890Y007996D02*
X024970Y007996D01*
X024970Y007837D02*
X024890Y007837D01*
X024890Y007679D02*
X024970Y007679D01*
X024970Y007520D02*
X024890Y007520D01*
X024890Y007362D02*
X024970Y007362D01*
X024970Y007203D02*
X024890Y007203D01*
X024890Y007045D02*
X024970Y007045D01*
X024970Y006886D02*
X024890Y006886D01*
X024890Y006728D02*
X024970Y006728D01*
X024970Y006569D02*
X024890Y006569D01*
X024890Y006411D02*
X024970Y006411D01*
X024970Y006252D02*
X024890Y006252D01*
X024890Y006094D02*
X024970Y006094D01*
X024970Y005935D02*
X024890Y005935D01*
X024890Y005777D02*
X024970Y005777D01*
X024970Y005618D02*
X024890Y005618D01*
X024890Y005460D02*
X024970Y005460D01*
X024970Y005301D02*
X024890Y005301D01*
X024890Y005143D02*
X024970Y005143D01*
X024970Y004984D02*
X024890Y004984D01*
X024890Y004826D02*
X024970Y004826D01*
X024970Y004667D02*
X024890Y004667D01*
X024890Y004509D02*
X024970Y004509D01*
X024970Y004350D02*
X024890Y004350D01*
X024890Y004192D02*
X024970Y004192D01*
X024970Y004033D02*
X024890Y004033D01*
X024890Y003875D02*
X024970Y003875D01*
X024970Y003716D02*
X024890Y003716D01*
X024890Y003558D02*
X024970Y003558D01*
X024970Y003399D02*
X024890Y003399D01*
X024890Y003241D02*
X024944Y003241D01*
X025062Y002765D02*
X025192Y002765D01*
X025192Y002607D02*
X024903Y002607D01*
X024745Y002448D02*
X025192Y002448D01*
X025192Y002290D02*
X024586Y002290D01*
X024428Y002131D02*
X025192Y002131D01*
X025192Y001973D02*
X024269Y001973D01*
X024111Y001814D02*
X025192Y001814D01*
X025192Y001656D02*
X023952Y001656D01*
X023794Y001497D02*
X025192Y001497D01*
X025192Y001339D02*
X023635Y001339D01*
X023540Y001180D02*
X025192Y001180D01*
X025192Y001021D02*
X023504Y001021D01*
X023355Y000863D02*
X025192Y000863D01*
X025192Y000704D02*
X020890Y000704D01*
X020890Y000863D02*
X023005Y000863D01*
X022856Y001021D02*
X020890Y001021D01*
X020890Y001180D02*
X022820Y001180D01*
X022856Y001339D02*
X020890Y001339D01*
X020890Y001497D02*
X023005Y001497D01*
X023359Y001656D02*
X020890Y001656D01*
X020890Y001814D02*
X023517Y001814D01*
X023378Y001973D02*
X020890Y001973D01*
X020890Y002131D02*
X023320Y002131D01*
X023336Y002290D02*
X020890Y002290D01*
X020957Y002448D02*
X023439Y002448D01*
X023810Y002607D02*
X021039Y002607D01*
X021034Y002765D02*
X023968Y002765D01*
X024127Y002924D02*
X020946Y002924D01*
X020879Y003082D02*
X024285Y003082D01*
X024236Y003293D02*
X024364Y003421D01*
X024434Y003589D01*
X024434Y003771D01*
X024364Y003939D01*
X024236Y004067D01*
X024068Y004137D01*
X023292Y004137D01*
X023124Y004067D01*
X022996Y003939D01*
X022926Y003771D01*
X022926Y003589D01*
X022996Y003421D01*
X023124Y003293D01*
X023292Y003223D01*
X024068Y003223D01*
X024236Y003293D01*
X024110Y003241D02*
X024444Y003241D01*
X024470Y003399D02*
X024342Y003399D01*
X024421Y003558D02*
X024470Y003558D01*
X024470Y003716D02*
X024434Y003716D01*
X024470Y003875D02*
X024391Y003875D01*
X024470Y004033D02*
X024270Y004033D01*
X024470Y004192D02*
X021988Y004192D01*
X022147Y004350D02*
X023067Y004350D01*
X023090Y004033D02*
X021830Y004033D01*
X021671Y003875D02*
X022969Y003875D01*
X022926Y003716D02*
X021513Y003716D01*
X021354Y003558D02*
X022939Y003558D01*
X023018Y003399D02*
X021196Y003399D01*
X021037Y003241D02*
X023250Y003241D01*
X024293Y004350D02*
X024470Y004350D01*
X024470Y004509D02*
X024400Y004509D01*
X024434Y004667D02*
X024470Y004667D01*
X024470Y004826D02*
X024411Y004826D01*
X024470Y004984D02*
X024319Y004984D01*
X024470Y005143D02*
X021439Y005143D01*
X021598Y005301D02*
X023116Y005301D01*
X023124Y005293D02*
X023292Y005223D01*
X024068Y005223D01*
X024236Y005293D01*
X024364Y005421D01*
X024434Y005589D01*
X024434Y005771D01*
X024364Y005939D01*
X024236Y006067D01*
X024068Y006137D01*
X023292Y006137D01*
X023124Y006067D01*
X022996Y005939D01*
X022926Y005771D01*
X022926Y005589D01*
X022996Y005421D01*
X023124Y005293D01*
X022980Y005460D02*
X021756Y005460D01*
X021915Y005618D02*
X022926Y005618D01*
X022929Y005777D02*
X022073Y005777D01*
X022232Y005935D02*
X022994Y005935D01*
X023188Y006094D02*
X022390Y006094D01*
X022549Y006252D02*
X023223Y006252D01*
X023292Y006223D02*
X023124Y006293D01*
X022996Y006421D01*
X022926Y006589D01*
X022926Y006771D01*
X022996Y006939D01*
X023124Y007067D01*
X023292Y007137D01*
X024068Y007137D01*
X024236Y007067D01*
X024364Y006939D01*
X024434Y006771D01*
X024434Y006589D01*
X024364Y006421D01*
X024236Y006293D01*
X024068Y006223D01*
X023292Y006223D01*
X023007Y006411D02*
X022707Y006411D01*
X022866Y006569D02*
X022935Y006569D01*
X022926Y006728D02*
X022890Y006728D01*
X022890Y006886D02*
X022974Y006886D01*
X022890Y007045D02*
X023102Y007045D01*
X023124Y007293D02*
X023292Y007223D01*
X024068Y007223D01*
X024236Y007293D01*
X024364Y007421D01*
X024434Y007589D01*
X024434Y007771D01*
X024364Y007939D01*
X024236Y008067D01*
X024068Y008137D01*
X023292Y008137D01*
X023124Y008067D01*
X022996Y007939D01*
X022926Y007771D01*
X022926Y007589D01*
X022996Y007421D01*
X023124Y007293D01*
X023056Y007362D02*
X022890Y007362D01*
X022890Y007520D02*
X022955Y007520D01*
X022926Y007679D02*
X022890Y007679D01*
X022890Y007837D02*
X022954Y007837D01*
X022890Y007996D02*
X023053Y007996D01*
X022890Y008154D02*
X024409Y008154D01*
X024470Y007996D02*
X024307Y007996D01*
X024406Y007837D02*
X024470Y007837D01*
X024470Y007679D02*
X024434Y007679D01*
X024405Y007520D02*
X024470Y007520D01*
X024470Y007362D02*
X024304Y007362D01*
X024470Y007203D02*
X022890Y007203D01*
X022470Y007520D02*
X022390Y007520D01*
X022390Y007679D02*
X022470Y007679D01*
X022470Y007837D02*
X022390Y007837D01*
X022390Y007996D02*
X022470Y007996D01*
X022470Y008154D02*
X022390Y008154D01*
X022390Y008313D02*
X022470Y008313D01*
X022470Y008471D02*
X022390Y008471D01*
X022390Y008630D02*
X022470Y008630D01*
X022470Y008788D02*
X022390Y008788D01*
X022390Y008947D02*
X022470Y008947D01*
X022470Y009105D02*
X022390Y009105D01*
X022390Y009264D02*
X022470Y009264D01*
X022470Y009422D02*
X022390Y009422D01*
X022390Y009581D02*
X022470Y009581D01*
X022470Y009739D02*
X022390Y009739D01*
X022390Y009898D02*
X022470Y009898D01*
X022470Y010056D02*
X022390Y010056D01*
X022390Y010215D02*
X022470Y010215D01*
X022470Y010373D02*
X022390Y010373D01*
X022390Y010532D02*
X022470Y010532D01*
X022470Y010690D02*
X022390Y010690D01*
X022390Y010849D02*
X022470Y010849D01*
X022470Y011007D02*
X022390Y011007D01*
X022390Y011166D02*
X022470Y011166D01*
X022527Y011324D02*
X022390Y011324D01*
X022390Y011483D02*
X022686Y011483D01*
X022844Y011641D02*
X022390Y011641D01*
X022390Y011800D02*
X022938Y011800D01*
X023015Y011958D02*
X022390Y011958D01*
X022390Y012117D02*
X023243Y012117D01*
X023271Y012215D02*
X023346Y012203D01*
X023662Y012203D01*
X023662Y012662D01*
X022906Y012662D01*
X022906Y012642D01*
X022918Y012568D01*
X022941Y012497D01*
X022975Y012430D01*
X023019Y012369D01*
X023073Y012316D01*
X023133Y012272D01*
X023200Y012238D01*
X023271Y012215D01*
X023129Y012275D02*
X022390Y012275D01*
X022390Y012434D02*
X022974Y012434D01*
X022914Y012592D02*
X022390Y012592D01*
X022548Y012751D02*
X022912Y012751D01*
X022906Y012718D02*
X022906Y012698D01*
X023662Y012698D01*
X023662Y013157D01*
X023346Y013157D01*
X023271Y013145D01*
X023200Y013122D01*
X023133Y013088D01*
X023073Y013044D01*
X023019Y012991D01*
X022975Y012930D01*
X022941Y012863D01*
X022918Y012792D01*
X022906Y012718D01*
X022965Y012909D02*
X022706Y012909D01*
X022865Y013068D02*
X023105Y013068D01*
X023285Y013226D02*
X022890Y013226D01*
X022890Y013385D02*
X023033Y013385D01*
X022945Y013543D02*
X022890Y013543D01*
X022539Y014336D02*
X022390Y014336D01*
X022390Y014494D02*
X022697Y014494D01*
X022856Y014653D02*
X022390Y014653D01*
X022390Y014811D02*
X022943Y014811D01*
X023027Y014970D02*
X022390Y014970D01*
X022390Y015128D02*
X023271Y015128D01*
X023292Y015223D02*
X023124Y015293D01*
X022996Y015421D01*
X022926Y015589D01*
X022926Y015771D01*
X022996Y015939D01*
X023124Y016067D01*
X023292Y016137D01*
X024068Y016137D01*
X024236Y016067D01*
X024364Y015939D01*
X024434Y015771D01*
X024434Y015589D01*
X024364Y015421D01*
X024236Y015293D01*
X024068Y015223D01*
X023292Y015223D01*
X023139Y015287D02*
X022390Y015287D01*
X022390Y015445D02*
X022986Y015445D01*
X022926Y015604D02*
X022390Y015604D01*
X022390Y015762D02*
X022926Y015762D01*
X022988Y015921D02*
X022390Y015921D01*
X022390Y016079D02*
X023153Y016079D01*
X023258Y016238D02*
X022390Y016238D01*
X022390Y016396D02*
X023021Y016396D01*
X022996Y016421D02*
X023124Y016293D01*
X023292Y016223D01*
X024068Y016223D01*
X024236Y016293D01*
X024364Y016421D01*
X024434Y016589D01*
X024434Y016771D01*
X024364Y016939D01*
X024236Y017067D01*
X024068Y017137D01*
X023292Y017137D01*
X023124Y017067D01*
X022996Y016939D01*
X022926Y016771D01*
X022926Y016589D01*
X022996Y016421D01*
X022941Y016555D02*
X022390Y016555D01*
X022390Y016713D02*
X022926Y016713D01*
X022968Y016872D02*
X022390Y016872D01*
X022390Y017030D02*
X023087Y017030D01*
X023070Y017347D02*
X022390Y017347D01*
X022390Y017189D02*
X024374Y017189D01*
X024470Y017030D02*
X024273Y017030D01*
X024392Y016872D02*
X024470Y016872D01*
X024470Y016713D02*
X024434Y016713D01*
X024419Y016555D02*
X024470Y016555D01*
X024470Y016396D02*
X024339Y016396D01*
X024470Y016238D02*
X024102Y016238D01*
X024207Y016079D02*
X024470Y016079D01*
X024470Y015921D02*
X024372Y015921D01*
X024434Y015762D02*
X024470Y015762D01*
X024470Y015604D02*
X024434Y015604D01*
X024470Y015445D02*
X024374Y015445D01*
X024470Y015287D02*
X024221Y015287D01*
X024089Y015128D02*
X024470Y015128D01*
X024470Y014970D02*
X024333Y014970D01*
X024417Y014811D02*
X024470Y014811D01*
X024470Y014653D02*
X024434Y014653D01*
X024394Y014494D02*
X024470Y014494D01*
X023698Y013068D02*
X023662Y013068D01*
X023662Y012909D02*
X023698Y012909D01*
X023698Y012751D02*
X023662Y012751D01*
X023662Y012592D02*
X023698Y012592D01*
X023698Y012434D02*
X023662Y012434D01*
X023662Y012275D02*
X023698Y012275D01*
X023113Y010056D02*
X022890Y010056D01*
X022890Y009898D02*
X022979Y009898D01*
X022926Y009739D02*
X022890Y009739D01*
X022890Y009581D02*
X022930Y009581D01*
X022890Y009422D02*
X022996Y009422D01*
X022890Y009264D02*
X023195Y009264D01*
X023215Y009105D02*
X022890Y009105D01*
X022890Y008947D02*
X023004Y008947D01*
X022933Y008788D02*
X022890Y008788D01*
X022890Y008630D02*
X022926Y008630D01*
X022890Y008471D02*
X022975Y008471D01*
X022890Y008313D02*
X023105Y008313D01*
X024258Y007045D02*
X024470Y007045D01*
X024470Y006886D02*
X024386Y006886D01*
X024434Y006728D02*
X024470Y006728D01*
X024470Y006569D02*
X024425Y006569D01*
X024470Y006411D02*
X024353Y006411D01*
X024470Y006252D02*
X024137Y006252D01*
X024172Y006094D02*
X024470Y006094D01*
X024470Y005935D02*
X024366Y005935D01*
X024431Y005777D02*
X024470Y005777D01*
X024470Y005618D02*
X024434Y005618D01*
X024470Y005460D02*
X024380Y005460D01*
X024470Y005301D02*
X024244Y005301D01*
X023041Y004984D02*
X021281Y004984D01*
X021122Y004826D02*
X022029Y004826D01*
X021870Y004667D02*
X020964Y004667D01*
X020805Y004509D02*
X021712Y004509D01*
X021553Y004350D02*
X020647Y004350D01*
X020540Y004192D02*
X021395Y004192D01*
X021236Y004033D02*
X020509Y004033D01*
X020383Y003875D02*
X021078Y003875D01*
X020919Y003716D02*
X020040Y003716D01*
X020019Y003558D02*
X020761Y003558D01*
X020285Y003082D02*
X017075Y003082D01*
X017233Y002924D02*
X020127Y002924D01*
X018470Y005460D02*
X018380Y005460D01*
X018434Y005618D02*
X018470Y005618D01*
X018470Y005777D02*
X018431Y005777D01*
X018470Y005935D02*
X018366Y005935D01*
X018470Y006094D02*
X018172Y006094D01*
X018137Y006252D02*
X018470Y006252D01*
X018470Y006411D02*
X018353Y006411D01*
X018425Y006569D02*
X018470Y006569D01*
X018470Y006728D02*
X018434Y006728D01*
X018470Y006886D02*
X018386Y006886D01*
X018470Y007045D02*
X018258Y007045D01*
X020602Y007362D02*
X020720Y007362D01*
X017113Y010056D02*
X017101Y010056D01*
X017044Y010373D02*
X016880Y010373D01*
X016080Y011483D02*
X015387Y011483D01*
X017662Y012275D02*
X017698Y012275D01*
X017698Y012434D02*
X017662Y012434D01*
X017662Y012592D02*
X017698Y012592D01*
X017698Y012751D02*
X017662Y012751D01*
X017662Y012909D02*
X017698Y012909D01*
X017698Y013068D02*
X017662Y013068D01*
X022390Y017506D02*
X022961Y017506D01*
X022926Y017664D02*
X022390Y017664D01*
X022390Y017823D02*
X022948Y017823D01*
X023038Y017981D02*
X022390Y017981D01*
X024241Y018298D02*
X024265Y018298D01*
X024542Y018615D02*
X025192Y018615D01*
X025192Y018457D02*
X024700Y018457D01*
X024859Y018298D02*
X025192Y018298D01*
X025192Y018140D02*
X025017Y018140D01*
X025176Y017981D02*
X025192Y017981D01*
X025192Y018774D02*
X024433Y018774D01*
X024367Y018932D02*
X025192Y018932D01*
X025192Y019091D02*
X024180Y019091D01*
X024130Y019249D02*
X025192Y019249D01*
X025192Y019408D02*
X024350Y019408D01*
X024424Y019566D02*
X025192Y019566D01*
X025192Y019725D02*
X024434Y019725D01*
X024387Y019883D02*
X025192Y019883D01*
X025192Y021310D02*
X024252Y021310D01*
X024384Y021468D02*
X025192Y021468D01*
X025192Y021627D02*
X024434Y021627D01*
X024428Y021785D02*
X025192Y021785D01*
X025192Y021944D02*
X024359Y021944D01*
X024152Y022102D02*
X025192Y022102D01*
X025192Y022261D02*
X024158Y022261D01*
X024236Y022293D02*
X024364Y022421D01*
X024434Y022589D01*
X024434Y022771D01*
X024364Y022939D01*
X024236Y023067D01*
X024068Y023137D01*
X023292Y023137D01*
X023124Y023067D01*
X022996Y022939D01*
X022926Y022771D01*
X022926Y022589D01*
X022996Y022421D01*
X023124Y022293D01*
X023292Y022223D01*
X024068Y022223D01*
X024236Y022293D01*
X024362Y022419D02*
X025192Y022419D01*
X025192Y022578D02*
X024429Y022578D01*
X024434Y022736D02*
X025192Y022736D01*
X025192Y022895D02*
X024382Y022895D01*
X024250Y023053D02*
X025192Y023053D01*
X025192Y023212D02*
X022890Y023212D01*
X022890Y023370D02*
X023047Y023370D01*
X022996Y023421D02*
X023124Y023293D01*
X023292Y023223D01*
X024068Y023223D01*
X024236Y023293D01*
X024364Y023421D01*
X024434Y023589D01*
X024434Y023771D01*
X024364Y023939D01*
X024236Y024067D01*
X024068Y024137D01*
X023292Y024137D01*
X023124Y024067D01*
X022996Y023939D01*
X022926Y023771D01*
X022926Y023589D01*
X022996Y023421D01*
X022951Y023529D02*
X022890Y023529D01*
X022890Y023687D02*
X022926Y023687D01*
X022957Y023846D02*
X022890Y023846D01*
X022890Y024004D02*
X023061Y024004D01*
X022890Y024163D02*
X025192Y024163D01*
X025192Y024321D02*
X024264Y024321D01*
X024236Y024293D02*
X024364Y024421D01*
X024434Y024589D01*
X024434Y024771D01*
X024364Y024939D01*
X024236Y025067D01*
X024068Y025137D01*
X023292Y025137D01*
X023124Y025067D01*
X022996Y024939D01*
X022926Y024771D01*
X022926Y024589D01*
X022996Y024421D01*
X023124Y024293D01*
X023292Y024223D01*
X024068Y024223D01*
X024236Y024293D01*
X024388Y024480D02*
X025192Y024480D01*
X025192Y024638D02*
X024434Y024638D01*
X024423Y024797D02*
X025192Y024797D01*
X025192Y024955D02*
X024348Y024955D01*
X024124Y025114D02*
X025192Y025114D01*
X025192Y025272D02*
X024186Y025272D01*
X024236Y025293D02*
X024364Y025421D01*
X024434Y025589D01*
X024434Y025771D01*
X024364Y025939D01*
X024236Y026067D01*
X024068Y026137D01*
X023292Y026137D01*
X023124Y026067D01*
X022996Y025939D01*
X022926Y025771D01*
X022926Y025589D01*
X022996Y025421D01*
X023124Y025293D01*
X023292Y025223D01*
X024068Y025223D01*
X024236Y025293D01*
X024368Y025431D02*
X025192Y025431D01*
X025192Y025589D02*
X024434Y025589D01*
X024434Y025748D02*
X025192Y025748D01*
X025192Y025906D02*
X024378Y025906D01*
X024238Y026065D02*
X025192Y026065D01*
X025192Y026223D02*
X022890Y026223D01*
X022890Y026065D02*
X023122Y026065D01*
X022982Y025906D02*
X022890Y025906D01*
X022890Y025748D02*
X022926Y025748D01*
X022926Y025589D02*
X022890Y025589D01*
X022890Y025431D02*
X022992Y025431D01*
X022890Y025272D02*
X023174Y025272D01*
X023236Y025114D02*
X022890Y025114D01*
X022890Y024955D02*
X023012Y024955D01*
X022937Y024797D02*
X022890Y024797D01*
X022890Y024638D02*
X022926Y024638D01*
X022890Y024480D02*
X022972Y024480D01*
X022890Y024321D02*
X023096Y024321D01*
X022470Y024480D02*
X019890Y024480D01*
X019890Y024638D02*
X022470Y024638D01*
X022470Y024797D02*
X019890Y024797D01*
X019890Y024955D02*
X022470Y024955D01*
X022470Y025114D02*
X019890Y025114D01*
X019890Y025272D02*
X022470Y025272D01*
X022470Y025431D02*
X019890Y025431D01*
X019890Y025589D02*
X022470Y025589D01*
X022470Y025748D02*
X019890Y025748D01*
X019890Y025906D02*
X022470Y025906D01*
X022470Y026065D02*
X019890Y026065D01*
X019890Y026223D02*
X022470Y026223D01*
X022470Y026382D02*
X019890Y026382D01*
X019890Y026540D02*
X022470Y026540D01*
X022470Y026699D02*
X019890Y026699D01*
X019800Y026857D02*
X022470Y026857D01*
X022470Y027016D02*
X019641Y027016D01*
X019483Y027174D02*
X022470Y027174D01*
X022470Y027333D02*
X019324Y027333D01*
X019166Y027491D02*
X022470Y027491D01*
X022470Y027650D02*
X019007Y027650D01*
X018849Y027808D02*
X022470Y027808D01*
X022470Y027967D02*
X011764Y027967D01*
X011487Y028284D02*
X009660Y028284D01*
X009660Y028442D02*
X025192Y028442D01*
X025192Y028284D02*
X022873Y028284D01*
X022890Y028125D02*
X025192Y028125D01*
X025192Y027967D02*
X022890Y027967D01*
X022890Y027808D02*
X025192Y027808D01*
X025192Y027650D02*
X022890Y027650D01*
X022890Y027491D02*
X025192Y027491D01*
X025192Y027333D02*
X022890Y027333D01*
X022890Y027174D02*
X025192Y027174D01*
X025192Y027016D02*
X024287Y027016D01*
X024236Y027067D02*
X024068Y027137D01*
X023292Y027137D01*
X023124Y027067D01*
X022996Y026939D01*
X022926Y026771D01*
X022926Y026589D01*
X022996Y026421D01*
X023124Y026293D01*
X023292Y026223D01*
X024068Y026223D01*
X024236Y026293D01*
X024364Y026421D01*
X024434Y026589D01*
X024434Y026771D01*
X024364Y026939D01*
X024236Y027067D01*
X024398Y026857D02*
X025192Y026857D01*
X025192Y026699D02*
X024434Y026699D01*
X024413Y026540D02*
X025192Y026540D01*
X025192Y026382D02*
X024324Y026382D01*
X023036Y026382D02*
X022890Y026382D01*
X022890Y026540D02*
X022947Y026540D01*
X022926Y026699D02*
X022890Y026699D01*
X022890Y026857D02*
X022962Y026857D01*
X022890Y027016D02*
X023073Y027016D01*
X025192Y028601D02*
X009660Y028601D01*
X009660Y028759D02*
X010983Y028759D01*
X010999Y028743D02*
X011361Y028743D01*
X011617Y028999D01*
X011617Y029361D01*
X011361Y029617D01*
X010999Y029617D01*
X010743Y029361D01*
X010743Y028999D01*
X010999Y028743D01*
X010824Y028918D02*
X009660Y028918D01*
X009660Y029076D02*
X010743Y029076D01*
X010743Y029235D02*
X009660Y029235D01*
X009660Y029393D02*
X010775Y029393D01*
X010933Y029552D02*
X009660Y029552D01*
X009660Y029710D02*
X025192Y029710D01*
X025192Y029552D02*
X013455Y029552D01*
X013369Y029637D02*
X013637Y029369D01*
X013637Y029189D01*
X013189Y029189D01*
X013189Y029171D01*
X013637Y029171D01*
X013637Y028991D01*
X013369Y028723D01*
X013189Y028723D01*
X013189Y029171D01*
X013171Y029171D01*
X013171Y028723D01*
X012991Y028723D01*
X012723Y028991D01*
X012723Y029171D01*
X013171Y029171D01*
X013171Y029189D01*
X013171Y029637D01*
X012991Y029637D01*
X012723Y029369D01*
X012723Y029189D01*
X013171Y029189D01*
X013189Y029189D01*
X013189Y029637D01*
X013369Y029637D01*
X013189Y029552D02*
X013171Y029552D01*
X013171Y029393D02*
X013189Y029393D01*
X013189Y029235D02*
X013171Y029235D01*
X013171Y029076D02*
X013189Y029076D01*
X013189Y028918D02*
X013171Y028918D01*
X013171Y028759D02*
X013189Y028759D01*
X013406Y028759D02*
X025192Y028759D01*
X025192Y028918D02*
X013564Y028918D01*
X013637Y029076D02*
X025192Y029076D01*
X025192Y029235D02*
X013637Y029235D01*
X013613Y029393D02*
X025192Y029393D01*
X025192Y029869D02*
X009660Y029869D01*
X009660Y030027D02*
X025192Y030027D01*
X025192Y024004D02*
X024299Y024004D01*
X024403Y023846D02*
X025192Y023846D01*
X025192Y023687D02*
X024434Y023687D01*
X024409Y023529D02*
X025192Y023529D01*
X025192Y023370D02*
X024313Y023370D01*
X023110Y023053D02*
X022890Y023053D01*
X022890Y022895D02*
X022978Y022895D01*
X022926Y022736D02*
X022890Y022736D01*
X022890Y022578D02*
X022931Y022578D01*
X022890Y022419D02*
X022998Y022419D01*
X022890Y022261D02*
X023202Y022261D01*
X023208Y022102D02*
X022890Y022102D01*
X022926Y021944D02*
X023001Y021944D01*
X022952Y020834D02*
X022390Y020834D01*
X022390Y020676D02*
X022926Y020676D01*
X022956Y020517D02*
X022390Y020517D01*
X022390Y020359D02*
X023059Y020359D01*
X018470Y026382D02*
X018324Y026382D01*
X018413Y026540D02*
X018470Y026540D01*
X018470Y026699D02*
X018434Y026699D01*
X018398Y026857D02*
X018470Y026857D01*
X013189Y024480D02*
X013171Y024480D01*
X013171Y024321D02*
X013189Y024321D01*
X013189Y024163D02*
X013171Y024163D01*
X013171Y024004D02*
X013189Y024004D01*
X013189Y023846D02*
X013171Y023846D01*
X011970Y025272D02*
X010390Y025272D01*
X010390Y025114D02*
X011817Y025114D01*
X011658Y024955D02*
X010390Y024955D01*
X010390Y024797D02*
X011500Y024797D01*
X011341Y024638D02*
X010390Y024638D01*
X010390Y024480D02*
X010861Y024480D01*
X010743Y024321D02*
X010390Y024321D01*
X010390Y024163D02*
X010743Y024163D01*
X010743Y024004D02*
X010390Y024004D01*
X010390Y023846D02*
X010896Y023846D01*
X011232Y023529D02*
X010390Y023529D01*
X010390Y023687D02*
X011390Y023687D01*
X011464Y023846D02*
X011549Y023846D01*
X011617Y024004D02*
X011707Y024004D01*
X011073Y023370D02*
X010390Y023370D01*
X010390Y023212D02*
X010915Y023212D01*
X010756Y023053D02*
X010390Y023053D01*
X010390Y022895D02*
X010598Y022895D01*
X010439Y022736D02*
X010390Y022736D01*
X009970Y022895D02*
X009660Y022895D01*
X009660Y023053D02*
X009970Y023053D01*
X009970Y023212D02*
X009660Y023212D01*
X009660Y023370D02*
X009970Y023370D01*
X009970Y023529D02*
X009660Y023529D01*
X009660Y023687D02*
X009970Y023687D01*
X009970Y023846D02*
X009660Y023846D01*
X009660Y024004D02*
X009970Y024004D01*
X009970Y024163D02*
X009660Y024163D01*
X009660Y024321D02*
X009970Y024321D01*
X009970Y024480D02*
X009660Y024480D01*
X009660Y024638D02*
X009970Y024638D01*
X009970Y024797D02*
X009660Y024797D01*
X009660Y024955D02*
X009970Y024955D01*
X009970Y025114D02*
X009660Y025114D01*
X009660Y025272D02*
X009970Y025272D01*
X009970Y025431D02*
X009660Y025431D01*
X009660Y025589D02*
X009970Y025589D01*
X009970Y025748D02*
X009660Y025748D01*
X009660Y025906D02*
X009970Y025906D01*
X009970Y026065D02*
X009660Y026065D01*
X009660Y026223D02*
X009970Y026223D01*
X009970Y026382D02*
X009660Y026382D01*
X009660Y026540D02*
X009970Y026540D01*
X009970Y026699D02*
X009660Y026699D01*
X009660Y026857D02*
X010060Y026857D01*
X010219Y027016D02*
X009660Y027016D01*
X009660Y027174D02*
X010377Y027174D01*
X010536Y027333D02*
X009660Y027333D01*
X009660Y027491D02*
X010694Y027491D01*
X010853Y027650D02*
X009660Y027650D01*
X009660Y027808D02*
X011011Y027808D01*
X011170Y027967D02*
X009660Y027967D01*
X009660Y028125D02*
X011328Y028125D01*
X011447Y027650D02*
X011470Y027650D01*
X011470Y027491D02*
X011288Y027491D01*
X011130Y027333D02*
X011470Y027333D01*
X011377Y027174D02*
X010971Y027174D01*
X010897Y027016D02*
X010813Y027016D01*
X010743Y026857D02*
X010654Y026857D01*
X010743Y026699D02*
X010496Y026699D01*
X010390Y026540D02*
X010743Y026540D01*
X010860Y026382D02*
X010390Y026382D01*
X010390Y026223D02*
X011970Y026223D01*
X011970Y026065D02*
X010390Y026065D01*
X010390Y025906D02*
X011970Y025906D01*
X011970Y025748D02*
X010390Y025748D01*
X010390Y025589D02*
X011970Y025589D01*
X011970Y025431D02*
X010390Y025431D01*
X011500Y026382D02*
X011970Y026382D01*
X011970Y026540D02*
X011617Y026540D01*
X011617Y026699D02*
X011970Y026699D01*
X011970Y026857D02*
X011654Y026857D01*
X011813Y027016D02*
X011970Y027016D01*
X011970Y027174D02*
X011890Y027174D01*
X011890Y027333D02*
X011970Y027333D01*
X011377Y028759D02*
X012954Y028759D01*
X012796Y028918D02*
X011536Y028918D01*
X011617Y029076D02*
X012723Y029076D01*
X012723Y029235D02*
X011617Y029235D01*
X011585Y029393D02*
X012747Y029393D01*
X012905Y029552D02*
X011427Y029552D01*
X009939Y022736D02*
X009660Y022736D01*
X009660Y022578D02*
X009781Y022578D01*
X010890Y021310D02*
X010904Y021310D01*
X010890Y021151D02*
X011354Y021151D01*
X011456Y021310D02*
X011513Y021310D01*
X011189Y021310D02*
X011171Y021310D01*
X011171Y021468D02*
X011189Y021468D01*
X011189Y021627D02*
X011171Y021627D01*
X011171Y021785D02*
X011189Y021785D01*
X011189Y021944D02*
X011171Y021944D01*
X011171Y022102D02*
X011189Y022102D01*
X010994Y020993D02*
X010890Y020993D01*
X010890Y020359D02*
X011015Y020359D01*
X009743Y019883D02*
X009680Y019883D01*
X009743Y019725D02*
X009522Y019725D01*
X009363Y019566D02*
X009743Y019566D01*
X009743Y019408D02*
X009205Y019408D01*
X009046Y019249D02*
X009452Y019249D01*
X009294Y019091D02*
X009033Y019091D01*
X008941Y018932D02*
X009135Y018932D01*
X008977Y018774D02*
X007614Y018774D01*
X007617Y018615D02*
X008970Y018615D01*
X008970Y018457D02*
X008913Y018457D01*
X008447Y018457D02*
X007561Y018457D01*
X007546Y018932D02*
X008419Y018932D01*
X008327Y019091D02*
X007331Y019091D01*
X007282Y019249D02*
X008320Y019249D01*
X008398Y019408D02*
X007526Y019408D01*
X007606Y019566D02*
X008769Y019566D01*
X008928Y019725D02*
X007617Y019725D01*
X007569Y019883D02*
X009086Y019883D01*
X009729Y018932D02*
X009814Y018932D01*
X009746Y018774D02*
X009571Y018774D01*
X009412Y018615D02*
X009743Y018615D01*
X009799Y018457D02*
X009390Y018457D01*
X009390Y018298D02*
X009960Y018298D01*
X009863Y017981D02*
X009390Y017981D01*
X009390Y017823D02*
X009766Y017823D01*
X009743Y017664D02*
X009390Y017664D01*
X009303Y017506D02*
X009779Y017506D01*
X009390Y018140D02*
X010343Y018140D01*
X010400Y018298D02*
X010501Y018298D01*
X010561Y018457D02*
X010660Y018457D01*
X007078Y019249D02*
X005890Y019249D01*
X005890Y019091D02*
X007029Y019091D01*
X006814Y018932D02*
X005890Y018932D01*
X005890Y018774D02*
X006746Y018774D01*
X006743Y018615D02*
X005890Y018615D01*
X005890Y018457D02*
X006799Y018457D01*
X006501Y018298D02*
X005890Y018298D01*
X005890Y018140D02*
X006343Y018140D01*
X006184Y017981D02*
X005890Y017981D01*
X005890Y017823D02*
X006026Y017823D01*
X005970Y017664D02*
X005890Y017664D01*
X005890Y017506D02*
X005970Y017506D01*
X005970Y017347D02*
X005890Y017347D01*
X005890Y017189D02*
X005970Y017189D01*
X005970Y017030D02*
X005890Y017030D01*
X005890Y016872D02*
X005970Y016872D01*
X005970Y016713D02*
X005890Y016713D01*
X005890Y016555D02*
X005970Y016555D01*
X005970Y016396D02*
X005890Y016396D01*
X005890Y016238D02*
X005970Y016238D01*
X005970Y016079D02*
X005890Y016079D01*
X005890Y015921D02*
X005970Y015921D01*
X005970Y015762D02*
X005890Y015762D01*
X005890Y015604D02*
X005970Y015604D01*
X005970Y015445D02*
X005890Y015445D01*
X005890Y015287D02*
X005970Y015287D01*
X005970Y015128D02*
X005890Y015128D01*
X005890Y014970D02*
X005960Y014970D01*
X005470Y014970D02*
X005390Y014970D01*
X005390Y015128D02*
X005470Y015128D01*
X005470Y015287D02*
X005390Y015287D01*
X005390Y015445D02*
X005470Y015445D01*
X005470Y015604D02*
X005390Y015604D01*
X005390Y015762D02*
X005470Y015762D01*
X005470Y015921D02*
X005390Y015921D01*
X005390Y016079D02*
X005470Y016079D01*
X005470Y016238D02*
X005390Y016238D01*
X005390Y016396D02*
X005470Y016396D01*
X005470Y016555D02*
X005390Y016555D01*
X005390Y016713D02*
X005470Y016713D01*
X005470Y016872D02*
X005390Y016872D01*
X005390Y017030D02*
X005470Y017030D01*
X005470Y017189D02*
X005390Y017189D01*
X005390Y017347D02*
X005470Y017347D01*
X005470Y017506D02*
X005390Y017506D01*
X005390Y017664D02*
X005470Y017664D01*
X005470Y017823D02*
X005390Y017823D01*
X005390Y017981D02*
X005470Y017981D01*
X005470Y018140D02*
X005390Y018140D01*
X005390Y018298D02*
X005470Y018298D01*
X005470Y018457D02*
X005390Y018457D01*
X005390Y018615D02*
X005470Y018615D01*
X005470Y018774D02*
X005390Y018774D01*
X005390Y018932D02*
X005470Y018932D01*
X005470Y019091D02*
X005390Y019091D01*
X005390Y019249D02*
X005470Y019249D01*
X005443Y019408D02*
X001526Y019408D01*
X001551Y019432D02*
X001617Y019593D01*
X001617Y019767D01*
X001551Y019928D01*
X001428Y020051D01*
X001267Y020117D01*
X001093Y020117D01*
X000932Y020051D01*
X000809Y019928D01*
X000743Y019767D01*
X000743Y019593D01*
X000809Y019432D01*
X000932Y019309D01*
X001093Y019243D01*
X001267Y019243D01*
X001428Y019309D01*
X001551Y019432D01*
X001606Y019566D02*
X005338Y019566D01*
X005320Y019725D02*
X001617Y019725D01*
X001569Y019883D02*
X005374Y019883D01*
X005917Y019408D02*
X006834Y019408D01*
X006754Y019566D02*
X006022Y019566D01*
X006040Y019725D02*
X006743Y019725D01*
X006791Y019883D02*
X005986Y019883D01*
X006363Y020200D02*
X000660Y020200D01*
X000660Y020042D02*
X000923Y020042D01*
X000791Y019883D02*
X000660Y019883D01*
X000660Y019725D02*
X000743Y019725D01*
X000754Y019566D02*
X000660Y019566D01*
X000660Y019408D02*
X000834Y019408D01*
X000660Y019249D02*
X001078Y019249D01*
X001093Y019117D02*
X000932Y019051D01*
X000809Y018928D01*
X000743Y018767D01*
X000743Y018593D01*
X000809Y018432D01*
X000932Y018309D01*
X001093Y018243D01*
X001267Y018243D01*
X001428Y018309D01*
X001551Y018432D01*
X001617Y018593D01*
X001617Y018767D01*
X001551Y018928D01*
X001428Y019051D01*
X001267Y019117D01*
X001093Y019117D01*
X001029Y019091D02*
X000660Y019091D01*
X000660Y018932D02*
X000814Y018932D01*
X000746Y018774D02*
X000660Y018774D01*
X000660Y018615D02*
X000743Y018615D01*
X000799Y018457D02*
X000660Y018457D01*
X000660Y018298D02*
X000960Y018298D01*
X001093Y018117D02*
X000932Y018051D01*
X000809Y017928D01*
X000743Y017767D01*
X000743Y017593D01*
X000809Y017432D01*
X000932Y017309D01*
X001093Y017243D01*
X001267Y017243D01*
X001428Y017309D01*
X001551Y017432D01*
X001617Y017593D01*
X001617Y017767D01*
X001551Y017928D01*
X001428Y018051D01*
X001267Y018117D01*
X001093Y018117D01*
X000863Y017981D02*
X000660Y017981D01*
X000660Y017823D02*
X000766Y017823D01*
X000743Y017664D02*
X000660Y017664D01*
X000660Y017506D02*
X000779Y017506D01*
X000895Y017347D02*
X000660Y017347D01*
X000660Y017189D02*
X001392Y017189D01*
X001465Y017347D02*
X001550Y017347D01*
X001581Y017506D02*
X001709Y017506D01*
X001617Y017664D02*
X001867Y017664D01*
X001970Y017823D02*
X001594Y017823D01*
X001497Y017981D02*
X001970Y017981D01*
X001970Y018140D02*
X000660Y018140D01*
X001400Y018298D02*
X001970Y018298D01*
X001970Y018457D02*
X001561Y018457D01*
X001617Y018615D02*
X001970Y018615D01*
X001977Y018774D02*
X001614Y018774D01*
X001546Y018932D02*
X002135Y018932D01*
X002294Y019091D02*
X001331Y019091D01*
X001282Y019249D02*
X002452Y019249D01*
X002899Y018970D02*
X004970Y018970D01*
X004970Y011899D01*
X004884Y011985D01*
X004752Y012040D01*
X004608Y012040D01*
X004476Y011985D01*
X004390Y011899D01*
X004390Y015767D01*
X004267Y015890D01*
X004267Y015890D01*
X003540Y016617D01*
X003540Y016752D01*
X003485Y016884D01*
X003384Y016985D01*
X003252Y017040D01*
X003108Y017040D01*
X002976Y016985D01*
X002890Y016899D01*
X002890Y018381D01*
X002985Y018476D01*
X003040Y018608D01*
X003040Y018752D01*
X002985Y018884D01*
X002899Y018970D01*
X002937Y018932D02*
X004970Y018932D01*
X004970Y018774D02*
X003031Y018774D01*
X003040Y018615D02*
X004970Y018615D01*
X004970Y018457D02*
X002966Y018457D01*
X002890Y018298D02*
X004970Y018298D01*
X004970Y018140D02*
X002890Y018140D01*
X002890Y017981D02*
X004970Y017981D01*
X004970Y017823D02*
X002890Y017823D01*
X002890Y017664D02*
X004970Y017664D01*
X004970Y017506D02*
X002890Y017506D01*
X002890Y017347D02*
X004970Y017347D01*
X004970Y017189D02*
X002890Y017189D01*
X002890Y017030D02*
X003084Y017030D01*
X003276Y017030D02*
X004970Y017030D01*
X004970Y016872D02*
X003490Y016872D01*
X003540Y016713D02*
X004970Y016713D01*
X004970Y016555D02*
X003602Y016555D01*
X003761Y016396D02*
X004970Y016396D01*
X004970Y016238D02*
X003919Y016238D01*
X004078Y016079D02*
X004970Y016079D01*
X004970Y015921D02*
X004236Y015921D01*
X004390Y015762D02*
X004970Y015762D01*
X004970Y015604D02*
X004390Y015604D01*
X004390Y015445D02*
X004970Y015445D01*
X004970Y015287D02*
X004390Y015287D01*
X004390Y015128D02*
X004970Y015128D01*
X004970Y014970D02*
X004390Y014970D01*
X004390Y014811D02*
X004970Y014811D01*
X004970Y014653D02*
X004390Y014653D01*
X004390Y014494D02*
X004970Y014494D01*
X004970Y014336D02*
X004390Y014336D01*
X004390Y014177D02*
X004970Y014177D01*
X004970Y014019D02*
X004390Y014019D01*
X004390Y013860D02*
X004970Y013860D01*
X004970Y013702D02*
X004390Y013702D01*
X004390Y013543D02*
X004970Y013543D01*
X004970Y013385D02*
X004390Y013385D01*
X004390Y013226D02*
X004970Y013226D01*
X004970Y013068D02*
X004390Y013068D01*
X004390Y012909D02*
X004970Y012909D01*
X004970Y012751D02*
X004390Y012751D01*
X004390Y012592D02*
X004970Y012592D01*
X004970Y012434D02*
X004390Y012434D01*
X004390Y012275D02*
X004970Y012275D01*
X004970Y012117D02*
X004390Y012117D01*
X004390Y011958D02*
X004449Y011958D01*
X004911Y011958D02*
X004970Y011958D01*
X005390Y011958D02*
X006220Y011958D01*
X006220Y011800D02*
X005390Y011800D01*
X005516Y011641D02*
X006094Y011641D01*
X005970Y011483D02*
X005674Y011483D01*
X005833Y011324D02*
X005970Y011324D01*
X005970Y011166D02*
X005890Y011166D01*
X005890Y011007D02*
X005970Y011007D01*
X005970Y010849D02*
X005890Y010849D01*
X005890Y010690D02*
X005970Y010690D01*
X005970Y010532D02*
X005890Y010532D01*
X005890Y010373D02*
X005970Y010373D01*
X005970Y010215D02*
X005890Y010215D01*
X005890Y010056D02*
X005970Y010056D01*
X005970Y009898D02*
X005890Y009898D01*
X005890Y009739D02*
X005970Y009739D01*
X005970Y009581D02*
X005890Y009581D01*
X005890Y009422D02*
X005970Y009422D01*
X005970Y009264D02*
X005890Y009264D01*
X005890Y009105D02*
X005970Y009105D01*
X005970Y008947D02*
X005923Y008947D01*
X003970Y011399D02*
X003884Y011485D01*
X003752Y011540D01*
X003608Y011540D01*
X003476Y011485D01*
X003375Y011384D01*
X003320Y011252D01*
X003320Y011108D01*
X003375Y010976D01*
X003470Y010881D01*
X003470Y009899D01*
X003384Y009985D01*
X003252Y010040D01*
X003108Y010040D01*
X002976Y009985D01*
X002890Y009899D01*
X002890Y016461D01*
X002976Y016375D01*
X003108Y016320D01*
X003243Y016320D01*
X003970Y015593D01*
X003970Y011399D01*
X003970Y011483D02*
X003887Y011483D01*
X003970Y011641D02*
X002890Y011641D01*
X002890Y011483D02*
X003473Y011483D01*
X003350Y011324D02*
X002890Y011324D01*
X002890Y011166D02*
X003320Y011166D01*
X003362Y011007D02*
X002890Y011007D01*
X002890Y010849D02*
X003470Y010849D01*
X003470Y010690D02*
X002890Y010690D01*
X002890Y010532D02*
X003470Y010532D01*
X003470Y010373D02*
X002890Y010373D01*
X002890Y010215D02*
X003470Y010215D01*
X003470Y010056D02*
X002890Y010056D01*
X002470Y010056D02*
X001853Y010056D01*
X001694Y009898D02*
X002470Y009898D01*
X002470Y009739D02*
X001617Y009739D01*
X001612Y009581D02*
X002470Y009581D01*
X002470Y009422D02*
X001540Y009422D01*
X001317Y009264D02*
X002470Y009264D01*
X002470Y009105D02*
X001296Y009105D01*
X001064Y009105D02*
X000660Y009105D01*
X000660Y008947D02*
X000828Y008947D01*
X000752Y008788D02*
X000660Y008788D01*
X000660Y008630D02*
X000743Y008630D01*
X000793Y008471D02*
X000660Y008471D01*
X000660Y008313D02*
X000929Y008313D01*
X000660Y008154D02*
X001409Y008154D01*
X001483Y007996D02*
X001568Y007996D01*
X001588Y007837D02*
X001726Y007837D01*
X001617Y007679D02*
X001885Y007679D01*
X002043Y007520D02*
X001587Y007520D01*
X002161Y007996D02*
X002367Y007996D01*
X002355Y007837D02*
X002320Y007837D01*
X002320Y008154D02*
X002003Y008154D01*
X001844Y008313D02*
X002345Y008313D01*
X002462Y008471D02*
X001686Y008471D01*
X001617Y008630D02*
X002470Y008630D01*
X002470Y008788D02*
X001608Y008788D01*
X001532Y008947D02*
X002470Y008947D01*
X002470Y010215D02*
X002011Y010215D01*
X002170Y010373D02*
X002470Y010373D01*
X002470Y010532D02*
X002328Y010532D01*
X002390Y010690D02*
X002470Y010690D01*
X002470Y010849D02*
X002390Y010849D01*
X002390Y011007D02*
X002470Y011007D01*
X002470Y011166D02*
X002390Y011166D01*
X002390Y011324D02*
X002470Y011324D01*
X002470Y011483D02*
X002390Y011483D01*
X002390Y011641D02*
X002470Y011641D01*
X002470Y011800D02*
X002390Y011800D01*
X002390Y011958D02*
X002470Y011958D01*
X002470Y012117D02*
X002390Y012117D01*
X002390Y012275D02*
X002470Y012275D01*
X002470Y012434D02*
X002390Y012434D01*
X002390Y012592D02*
X002470Y012592D01*
X002470Y012751D02*
X002390Y012751D01*
X002390Y012909D02*
X002470Y012909D01*
X002470Y013068D02*
X002390Y013068D01*
X002390Y013226D02*
X002470Y013226D01*
X002470Y013385D02*
X002390Y013385D01*
X002390Y013543D02*
X002470Y013543D01*
X002470Y013702D02*
X002390Y013702D01*
X002390Y013860D02*
X002470Y013860D01*
X002890Y013860D02*
X003970Y013860D01*
X003970Y013702D02*
X002890Y013702D01*
X002890Y013543D02*
X003970Y013543D01*
X003970Y013385D02*
X002890Y013385D01*
X002890Y013226D02*
X003970Y013226D01*
X003970Y013068D02*
X002890Y013068D01*
X002890Y012909D02*
X003970Y012909D01*
X003970Y012751D02*
X002890Y012751D01*
X002890Y012592D02*
X003970Y012592D01*
X003970Y012434D02*
X002890Y012434D01*
X002890Y012275D02*
X003970Y012275D01*
X003970Y012117D02*
X002890Y012117D01*
X002890Y011958D02*
X003970Y011958D01*
X003970Y011800D02*
X002890Y011800D01*
X001970Y011800D02*
X001604Y011800D01*
X001617Y011767D02*
X001551Y011928D01*
X001428Y012051D01*
X001267Y012117D01*
X001093Y012117D01*
X000932Y012051D01*
X000809Y011928D01*
X000743Y011767D01*
X000743Y011593D01*
X000809Y011432D01*
X000932Y011309D01*
X001093Y011243D01*
X001267Y011243D01*
X001428Y011309D01*
X001551Y011432D01*
X001617Y011593D01*
X001617Y011767D01*
X001617Y011641D02*
X001970Y011641D01*
X001970Y011483D02*
X001571Y011483D01*
X001442Y011324D02*
X001970Y011324D01*
X001970Y011166D02*
X000660Y011166D01*
X000660Y011324D02*
X000918Y011324D01*
X000789Y011483D02*
X000660Y011483D01*
X000660Y011641D02*
X000743Y011641D01*
X000756Y011800D02*
X000660Y011800D01*
X000660Y011958D02*
X000840Y011958D01*
X000660Y012117D02*
X001091Y012117D01*
X001015Y012275D02*
X000660Y012275D01*
X000660Y012434D02*
X000809Y012434D01*
X000743Y012592D02*
X000660Y012592D01*
X000660Y012751D02*
X000743Y012751D01*
X000802Y012909D02*
X000660Y012909D01*
X000660Y013068D02*
X000973Y013068D01*
X000857Y013385D02*
X000660Y013385D01*
X000660Y013543D02*
X000764Y013543D01*
X000743Y013702D02*
X000660Y013702D01*
X000660Y013860D02*
X000781Y013860D01*
X000900Y014019D02*
X000660Y014019D01*
X000660Y014177D02*
X001470Y014177D01*
X001460Y014019D02*
X001470Y014019D01*
X001454Y014336D02*
X001470Y014336D01*
X001890Y014494D02*
X001997Y014494D01*
X001890Y014653D02*
X002470Y014653D01*
X002470Y014811D02*
X001890Y014811D01*
X001979Y014970D02*
X002470Y014970D01*
X002470Y015128D02*
X002040Y015128D01*
X002026Y015287D02*
X002470Y015287D01*
X002470Y015445D02*
X001924Y015445D01*
X001617Y015604D02*
X002470Y015604D01*
X002470Y015762D02*
X001617Y015762D01*
X001554Y015921D02*
X002470Y015921D01*
X002470Y016079D02*
X001359Y016079D01*
X001514Y016396D02*
X002470Y016396D01*
X002470Y016238D02*
X000660Y016238D01*
X000660Y016396D02*
X000846Y016396D01*
X000759Y016555D02*
X000660Y016555D01*
X000660Y016713D02*
X000743Y016713D01*
X000786Y016872D02*
X000660Y016872D01*
X000660Y017030D02*
X000912Y017030D01*
X001669Y016872D02*
X002470Y016872D01*
X002470Y017030D02*
X001827Y017030D01*
X001986Y017189D02*
X002470Y017189D01*
X002470Y017347D02*
X002144Y017347D01*
X002303Y017506D02*
X002470Y017506D01*
X002470Y017664D02*
X002390Y017664D01*
X002390Y017823D02*
X002470Y017823D01*
X002470Y017981D02*
X002390Y017981D01*
X002390Y018140D02*
X002470Y018140D01*
X002470Y018298D02*
X002390Y018298D01*
X002390Y018457D02*
X002394Y018457D01*
X002470Y016713D02*
X001617Y016713D01*
X001601Y016555D02*
X002470Y016555D01*
X002890Y016396D02*
X002955Y016396D01*
X002890Y016238D02*
X003325Y016238D01*
X003484Y016079D02*
X002890Y016079D01*
X002890Y015921D02*
X003642Y015921D01*
X003801Y015762D02*
X002890Y015762D01*
X002890Y015604D02*
X003959Y015604D01*
X003970Y015445D02*
X002890Y015445D01*
X002890Y015287D02*
X003970Y015287D01*
X003970Y015128D02*
X002890Y015128D01*
X002890Y014970D02*
X003970Y014970D01*
X003970Y014811D02*
X002890Y014811D01*
X002890Y014653D02*
X003970Y014653D01*
X003970Y014494D02*
X002890Y014494D01*
X002890Y014336D02*
X003970Y014336D01*
X003970Y014177D02*
X002890Y014177D01*
X002890Y014019D02*
X003970Y014019D01*
X005390Y014019D02*
X005794Y014019D01*
X005636Y014177D02*
X005390Y014177D01*
X005390Y014336D02*
X005477Y014336D01*
X005470Y014494D02*
X005390Y014494D01*
X005390Y014653D02*
X005470Y014653D01*
X005470Y014811D02*
X005390Y014811D01*
X005390Y013860D02*
X005953Y013860D01*
X006111Y013702D02*
X005390Y013702D01*
X005390Y013543D02*
X006220Y013543D01*
X006220Y013385D02*
X005390Y013385D01*
X005390Y013226D02*
X006220Y013226D01*
X006220Y013068D02*
X005390Y013068D01*
X005390Y012909D02*
X006220Y012909D01*
X006220Y012751D02*
X005390Y012751D01*
X005390Y012592D02*
X006220Y012592D01*
X006220Y012434D02*
X005390Y012434D01*
X005390Y012275D02*
X006220Y012275D01*
X006220Y012117D02*
X005390Y012117D01*
X002470Y014494D02*
X002363Y014494D01*
X001970Y013860D02*
X001890Y013860D01*
X001890Y013702D02*
X001970Y013702D01*
X001970Y013543D02*
X001890Y013543D01*
X001890Y013385D02*
X001970Y013385D01*
X001970Y013226D02*
X001890Y013226D01*
X001865Y013068D02*
X001970Y013068D01*
X001970Y012909D02*
X001706Y012909D01*
X001617Y012751D02*
X001970Y012751D01*
X001970Y012592D02*
X001617Y012592D01*
X001551Y012434D02*
X001970Y012434D01*
X001970Y012275D02*
X001345Y012275D01*
X001269Y012117D02*
X001970Y012117D01*
X001970Y011958D02*
X001520Y011958D01*
X001267Y011117D02*
X001093Y011117D01*
X000932Y011051D01*
X000809Y010928D01*
X000743Y010767D01*
X000743Y010593D01*
X000809Y010432D01*
X000932Y010309D01*
X001093Y010243D01*
X001267Y010243D01*
X001428Y010309D01*
X001551Y010432D01*
X001617Y010593D01*
X001617Y010767D01*
X001551Y010928D01*
X001428Y011051D01*
X001267Y011117D01*
X001471Y011007D02*
X001970Y011007D01*
X001970Y010849D02*
X001583Y010849D01*
X001617Y010690D02*
X001893Y010690D01*
X001735Y010532D02*
X001592Y010532D01*
X001576Y010373D02*
X001491Y010373D01*
X001418Y010215D02*
X000660Y010215D01*
X000660Y010373D02*
X000869Y010373D01*
X000768Y010532D02*
X000660Y010532D01*
X000660Y010690D02*
X000743Y010690D01*
X000777Y010849D02*
X000660Y010849D01*
X000660Y011007D02*
X000889Y011007D01*
X000945Y010056D02*
X000660Y010056D01*
X000660Y009898D02*
X000797Y009898D01*
X000743Y009739D02*
X000660Y009739D01*
X000660Y009581D02*
X000748Y009581D01*
X000820Y009422D02*
X000660Y009422D01*
X000660Y009264D02*
X001043Y009264D01*
X000877Y007996D02*
X000660Y007996D01*
X000660Y007837D02*
X000772Y007837D01*
X000743Y007679D02*
X000660Y007679D01*
X000660Y007520D02*
X000773Y007520D01*
X000880Y007362D02*
X000660Y007362D01*
X000660Y003082D02*
X001008Y003082D01*
X000808Y002924D02*
X000660Y002924D01*
X000660Y002765D02*
X000743Y002765D01*
X000743Y002607D02*
X000660Y002607D01*
X000660Y002448D02*
X000803Y002448D01*
X000660Y002290D02*
X000980Y002290D01*
X001171Y001973D02*
X001189Y001973D01*
X001189Y001814D02*
X001171Y001814D01*
X001171Y001656D02*
X001189Y001656D01*
X001189Y001497D02*
X001171Y001497D01*
X001171Y001339D02*
X001189Y001339D01*
X001533Y001973D02*
X004378Y001973D01*
X004323Y004509D02*
X004470Y004509D01*
X000660Y000704D02*
X013109Y000704D01*
X013582Y004509D02*
X014532Y004509D01*
X014396Y004667D02*
X013617Y004667D01*
X013593Y004826D02*
X014238Y004826D01*
X014079Y004984D02*
X013494Y004984D01*
X016124Y004033D02*
X017090Y004033D01*
X016969Y003875D02*
X016282Y003875D01*
X016441Y003716D02*
X016926Y003716D01*
X016939Y003558D02*
X016599Y003558D01*
X016758Y003399D02*
X017018Y003399D01*
X016916Y003241D02*
X017250Y003241D01*
X012900Y014019D02*
X012890Y014019D01*
X006521Y020042D02*
X001437Y020042D01*
X001477Y020359D02*
X006204Y020359D01*
X001320Y015128D02*
X000660Y015128D01*
X000660Y014970D02*
X000851Y014970D01*
X000761Y014811D02*
X000660Y014811D01*
X000660Y014653D02*
X000743Y014653D01*
X000784Y014494D02*
X000660Y014494D01*
X000660Y014336D02*
X000906Y014336D01*
X000988Y015287D02*
X000660Y015287D01*
X000660Y015445D02*
X000804Y015445D01*
X000743Y015604D02*
X000660Y015604D01*
X000660Y015762D02*
X000743Y015762D01*
X000806Y015921D02*
X000660Y015921D01*
X000660Y016079D02*
X001001Y016079D01*
X000660Y013226D02*
X001429Y013226D01*
X000883Y020359D02*
X000660Y020359D01*
X000660Y020517D02*
X000774Y020517D01*
X000743Y020676D02*
X000660Y020676D01*
M02*
